<?xml version="1.0" encoding="utf-8"?>
<!-- Generator: Adobe Illustrator 22.1.0, SVG Export Plug-In . SVG Version: 6.00 Build 0)  -->
<svg version="1.1" id="fundo-03" xmlns="http://www.w3.org/2000/svg" xmlns:xlink="http://www.w3.org/1999/xlink" x="0px" y="0px"
	 viewBox="0 0 330.7 285.5" style="enable-background:new 0 0 330.7 285.5;" xml:space="preserve">
<style type="text/css">
	.st0{fill:#6FD1A0;}
	.st1{fill:#2D98DA;}
</style>
<g>
	<g>
		<path class="st0" d="M116,194.5c1-2.9,1.9-5.2,2.4-8.6c1-4.3,0.5-9-0.5-13.8c-1.4-4.8-2.9-9-6.2-13.8L66.1,96
			c-5.7-8.1-14.3-12.8-23.8-14.8c-9.5-1.4-19.5,1-27.1,6.7c-7.6,5.7-12.8,14.3-14.8,23.8c-1.4,9.5,1,19.5,6.7,27.1l45.7,62.3
			c11.9,16.2,34.7,20,50.9,7.6C109.4,206.4,113.7,200.7,116,194.5z"/>
		<path class="st0" d="M19.4,96c-12.4,9-15.2,27.1-5.7,39.5l45.7,62.3c9,12.4,27.1,15.2,39.5,6.2s15.2-27.1,5.7-39.5l-45.7-62.3
			C49.9,89.4,32.3,87,19.4,96z"/>
		<path class="st1" d="M97,201.2L97,201.2c-10.9,8.1-26.6,5.7-34.7-5.2l-45.7-62.3c-8.1-10.9-5.7-26.6,5.2-34.7l0,0
			c10.9-8.1,26.6-5.7,34.7,5.2l45.7,62.3C110.3,177.4,108,192.6,97,201.2z"/>
	</g>
	<g>
		<path class="st0" d="M133.7,191.7c-9,4.3-15.2,11.9-19,20.9c-2.9,9-2.9,19,1.9,27.6c4.3,9,11.9,15.2,20.9,18.6l74.2,24.7
			c19.5,6.7,40.5-3.8,47.1-22.8c2.4-6.7,2.9-13.3,1.4-20c-0.5-2.9-1.9-5.2-2.9-8.1c-4.3-9-11.9-15.2-20.9-18.6l-74.2-24.7
			C152.7,186.9,142.2,187.4,133.7,191.7z"/>
		<path class="st0" d="M122.7,215.5c-5.2,14.8,2.9,30.9,17.6,35.7l74.2,24.7c14.8,4.8,31.4-2.9,36.6-17.6
			c5.2-14.8-2.9-30.9-17.6-35.7l-74.2-24.7C144.1,192.6,127.9,200.7,122.7,215.5z"/>
		<path class="st1" d="M247.9,257.3L247.9,257.3c-4.3,12.8-19,20-32.4,15.2l-74.2-24.7c-13.3-4.3-20.5-18.6-15.2-31.4l0,0
			c4.3-12.8,19-20,32.4-15.2l74.2,24.7C245.5,230.2,252.1,244.5,247.9,257.3z"/>
	</g>
	<g>
		<path class="st0" d="M177,155.5c-0.5,9.5,3.3,17.6,10.9,22.4c7.1,4.8,16.2,6.7,26.6,4.3l79-17.6c20-4.3,36.6-22.8,37.1-41.4
			c0-2.9,0-4.8-1-7.1c-1-3.3-2.9-7.1-4.8-10c-1.9-2.4-3.3-3.8-5.7-5.2c-7.1-4.8-16.2-6.7-26.6-4.3l-79,17.6
			c-9.5,2.4-19,7.6-25.7,15.2C181.2,136.9,177.4,146.5,177,155.5z"/>
		<path class="st0" d="M185,155c-0.5,14.8,12.4,23.3,28.1,20l79-17.6c15.7-3.3,29-18.6,29.5-32.8c0.5-14.3-12.4-23.3-28.1-20
			l-79,17.6C198.8,125.5,185.5,140.3,185,155z"/>
		<path class="st1" d="M318.8,125L318.8,125c-0.5,12.8-11.9,25.7-26.2,28.6l-79,17.6c-14.3,2.9-25.2-4.3-24.7-17.1l0,0
			c0.5-12.8,11.9-25.7,26.2-28.6l79-17.6C307.8,104.6,318.8,112.2,318.8,125z"/>
	</g>
	<g>
		<path class="st0" d="M61.3,20.3c-10.5,12.8-7.6,30.9,7.1,40.5l71.9,48.5c14.8,9.5,35.2,7.6,45.7-5.2c10.5-12.8,7.6-30.9-7.1-40.5
			L107,15.1C92.7,5.1,72.3,7.5,61.3,20.3z"/>
		<g>
			<path class="st0" d="M54.7,15.1c-6.7,8.1-9.5,18.1-8.1,27.6c1.9,10,7.6,19,16.2,24.7l71.9,48.5c18.1,12.4,44.3,9,57.6-6.7
				c4.8-5.7,7.6-12.4,8.6-19c0.5-2.9,0-5.7-0.5-9c0-0.5-0.5-1.4-0.5-1.9c-2.4-9-8.1-17.1-16.2-22.8L111.8,8c-9-6.2-20-9-30.5-7.6
				C70.8,2.3,61.3,7,54.7,15.1z"/>
			<path class="st1" d="M183.1,102.2L183.1,102.2c-9,10.9-27.1,13.3-40,4.3L71.3,57.9c-12.8-9-15.2-24.7-6.2-35.7l0,0
				c9-10.9,27.1-13.3,40-4.3L177,66.5C189.8,75.6,192.2,91.3,183.1,102.2z"/>
		</g>
	</g>
</g>
</svg>
