<?xml version="1.0" encoding="utf-8"?>
<!-- Generator: Adobe Illustrator 19.2.1, SVG Export Plug-In . SVG Version: 6.00 Build 0)  -->
<svg version="1.1" id="Layer_1" xmlns="http://www.w3.org/2000/svg" xmlns:xlink="http://www.w3.org/1999/xlink" x="0px" y="0px"
	 viewBox="0 0 374.237 403.728" style="enable-background:new 0 0 374.237 403.728;" xml:space="preserve">
<g id="New_Symbol_3">
</g>
<path style="fill:#0F5659;" d="M373.921,253.041c2.285-65.041-10.311-80.351-25.049-118.206
	c-19.392-49.809-46.84-86.799-81.579-109.941c-20.568-13.702-44.256-22.113-68.5-24.324c-26.206-2.389-51.071,2.772-71.914,14.925
	c-20.546,8.505-17.711,12.2-25.609,18.617c-7.77,4.388-9.088,7.383-13.61,10.611c-10.993,4.777-9.705,6.459-15.012,9.75
	c-13.481,5.694-14.888,9.233-22.174,14.939h-0.001C3,111,4.886,125.29,0.87,165.077c-3.87,58.59,4.018,73.495,20.862,104.138
	c14.518,30.535,18.854,27.072,28.35,37.972c15.286,17.542,34.309,39.373,56.836,56.471c49.415,36.009,74.854,40.071,115.223,40.071
	c3.277,0,6.559-0.093,9.83-0.28c80.529-8.449,90.875-25.415,117.887-60.857c16.142-17.092,13.5-20.49,17.309-30.966
	C381.5,271,374.687,269.564,373.921,253.041z"/>
<path style="fill:#6FD1A0;" d="M61.79,83.864c10.248-14.913,23.776-19.766,36.534-24.201c26.459-18.305,36.839-29.054,37.8-28.312
	c36.818-21.469,85.522-14.811,120.992,8.818s67.11,44.944,74.65,101.324c13.956,35.846,27.398,56.007,23.818,112.398
	c0.805,17.355,10.416,26.109-5.668,51.461c-3.425,9.417,2.584,11.648-14.658,26.113c-24.457,32.089-37.758,54.96-104.331,53.657
	c-40.281,2.294-59.427,6.378-112.913-36.087c-20.315-15.419-29.347-20.702-54.094-53.909c-9.537-10.946-14.587-6.459-26.104-34.754
	C7.879,205.909,22.333,110,61.79,83.864z"/>
</svg>
