<?xml version="1.0" encoding="utf-8"?>
<!-- Generator: Adobe Illustrator 19.2.1, SVG Export Plug-In . SVG Version: 6.00 Build 0)  -->
<svg version="1.1" id="Layer_1" xmlns="http://www.w3.org/2000/svg" xmlns:xlink="http://www.w3.org/1999/xlink" x="0px" y="0px"
	 viewBox="0 0 612 792" enable-background="new 0 0 612 792" xml:space="preserve">
<path id="XMLID_1_" fill="#833471" d="M101.458,622.645c35.029-16.513,67.248-38.967,94.865-66.115
	c8.803-8.653,17.259-17.948,22.703-29.027c15.008-30.545,4.515-68.159,16.081-100.166c10.705-29.626,38.316-49.462,65.53-65.327
	c28.42-16.568,58.135-30.944,85.69-48.914s53.261-40.007,69.975-68.341c-0.303,25.259-0.662,50.835-0.965,76.094
	c-0.13,10.829-0.361,22.093-5.244,31.759c-3.134,6.204-7.998,11.346-11.785,17.174c-4.426,6.811-7.332,14.482-10.013,22.15
	c-7.667,21.932-13.787,44.449-23.117,65.727c-9.33,21.278-22.237,41.604-40.847,55.513c-5.976,4.467-12.502,8.247-17.925,13.371
	c-9.192,8.685-14.633,20.665-23.379,29.8c-12.218,12.762-29.655,18.832-44.593,28.267c-23.786,15.023-42.543,39.36-69.787,46.379
	c-25.48,6.565-52.462-3.735-78.583-0.572c-6.648,0.805-13.305,2.484-19.957,1.711C103.454,631.354,102.937,629.177,101.458,622.645z
	"/>
<g>
	<defs>
		<path id="XMLID_2_" d="M101.458,622.645c35.029-16.513,67.248-38.967,94.865-66.115c8.803-8.653,17.259-17.948,22.703-29.027
			c15.008-30.545,4.515-68.159,16.081-100.166c10.705-29.626,38.316-49.462,65.53-65.327c28.42-16.568,58.135-30.944,85.69-48.914
			s53.261-40.007,69.975-68.341c-0.303,25.259-0.662,50.835-0.965,76.094c-0.13,10.829-0.361,22.093-5.244,31.759
			c-3.134,6.204-7.998,11.346-11.785,17.174c-4.426,6.811-7.332,14.482-10.013,22.15c-7.667,21.932-13.787,44.449-23.117,65.727
			c-9.33,21.278-22.237,41.604-40.847,55.513c-5.976,4.467-12.502,8.247-17.925,13.371c-9.192,8.685-14.633,20.665-23.379,29.8
			c-12.218,12.762-29.655,18.832-44.593,28.267c-23.786,15.023-42.543,39.36-69.787,46.379c-25.48,6.565-52.462-3.735-78.583-0.572
			c-6.648,0.805-13.305,2.484-19.957,1.711C103.454,631.354,102.937,629.177,101.458,622.645z"/>
	</defs>
	<clipPath id="XMLID_4_">
		<use xlink:href="#XMLID_2_"  overflow="visible"/>
	</clipPath>
	<path clip-path="url(#XMLID_4_)" fill="none" stroke="#8E3C7E" stroke-miterlimit="10" d="M88.043,625.21
		c9.979,7.275,23.997,2.464,34.893-3.349c52.525-28.025,93.173-73.528,132.65-118.091c6.196-6.994,12.521-14.199,15.811-22.945
		c3.963-10.536,3.119-22.197,4.894-33.314c1.423-8.915,4.572-17.551,9.22-25.289c20.329-33.842,63.626-44.515,95.498-67.812
		c46.318-33.857,67.584-94.104,113.796-128.106"/>
	<path clip-path="url(#XMLID_4_)" fill="none" stroke="#8E3C7E" stroke-miterlimit="10" d="M94.392,660.964
		c14.775-8.961,29.551-17.922,44.326-26.882c14.271-8.655,28.578-17.334,41.772-27.556c9.933-7.695,19.184-16.225,28.422-24.742
		c14.392-13.271,28.785-26.543,43.177-39.814c8.775-8.091,17.594-16.23,24.927-25.648c6.698-8.603,12.062-18.153,17.37-27.678
		c11.775-21.13,23.662-42.679,41.016-59.53c10.764-10.453,23.348-18.81,35.086-28.157c11.317-9.012,21.856-18.953,32.38-28.88
		c25.261-23.829,50.521-47.658,75.782-71.486"/>
	<path clip-path="url(#XMLID_4_)" fill="none" stroke="#8E3C7E" stroke-miterlimit="10" d="M145.597,685.471
		c9.035-23.937,24.817-45.286,45.051-60.945c8.201-6.346,17.078-11.752,25.781-17.389c57.373-37.162,107.821-84.977,148.001-140.279
		c10.399-14.313,20.32-29.342,34.068-40.477c8.967-7.262,19.292-12.636,29.671-17.678c23.822-11.574,48.357-21.68,73.419-30.243"/>
	<path clip-path="url(#XMLID_4_)" fill="none" stroke="#8E3C7E" stroke-miterlimit="10" d="M97.195,615.876
		c18.312-45.541,44.171-88.038,76.202-125.231c14.226-16.518,30.035-32.274,49.523-42.043c6.789-3.403,14.028-6.085,20.073-10.682
		c16.189-12.31,20.201-35.154,33.766-50.307c8.056-8.998,19.016-14.768,29.727-20.348c81.35-42.378,163.328-85.013,251.28-111.052"
		/>
	<path clip-path="url(#XMLID_4_)" fill="none" stroke="#8E3C7E" stroke-miterlimit="10" d="M146.877,651.018
		c38.681-22.592,72.816-52.933,99.789-88.698c10.33-13.697,19.684-28.253,31.792-40.407c9.583-9.62,20.704-17.545,31.766-25.42
		c11.664-8.303,23.521-16.709,37.009-21.509c12.443-4.428,25.863-5.63,38.259-10.19c29.021-10.676,48.188-37.733,66.166-62.892
		c25.904-36.25,53.111-71.569,81.549-105.866"/>
	<path clip-path="url(#XMLID_4_)" fill="none" stroke="#8E3C7E" stroke-miterlimit="10" d="M113.515,646.553
		c2.783-2.467,5.566-4.933,8.348-7.4c30.253-26.817,60.664-53.799,86.017-85.289c44.347-55.084,73.11-123.71,128.208-168.04
		c20.02-16.107,42.806-28.357,65.445-40.51c35.488-19.05,70.975-38.101,106.463-57.151"/>
	<path clip-path="url(#XMLID_4_)" fill="none" stroke="#8E3C7E" stroke-miterlimit="10" d="M483.929,280.879
		c-13.292,9.303-30.001,13.212-42.357,23.728c-5.737,4.882-10.28,10.986-14.833,16.987
		c-83.917,110.586-188.036,203.876-283.9,304.282"/>
	<path clip-path="url(#XMLID_4_)" fill="none" stroke="#8E3C7E" stroke-miterlimit="10" d="M241.424,663.029
		c-1.162-17.05,5.097-33.658,11.7-49.42c10.165-24.266,21.402-48.082,33.669-71.357c10.387-19.708,21.536-39.065,34.539-57.154
		c22.32-31.05,49.823-57.987,77.984-83.858c30.518-28.035,61.992-55.028,94.351-80.916"/>
</g>
<path fill="#6F1E51" d="M353.484,414.514c-4.422,2.631-9.133,5.591-11.03,10.373c-2.208,5.564,0.105,11.916,3.352,16.946
	c3.247,5.029,7.471,9.516,9.645,15.093c1.49,3.822,2.155,8.333,5.386,10.862c3.245,2.539,7.834,2.087,11.914,1.509
	c3.896-0.552,8.044-1.219,10.961-3.86c2.495-2.26,3.667-5.599,4.662-8.815c2.633-8.516,4.697-17.417,3.798-26.286
	C389.64,405.372,371.479,403.807,353.484,414.514z"/>
</svg>
