<?xml version="1.0" encoding="utf-8"?>
<!-- Generator: Adobe Illustrator 19.2.1, SVG Export Plug-In . SVG Version: 6.00 Build 0)  -->
<svg version="1.1" id="Layer_1" xmlns="http://www.w3.org/2000/svg" xmlns:xlink="http://www.w3.org/1999/xlink" x="0px" y="0px"
	 viewBox="0 0 612 792" enable-background="new 0 0 612 792" xml:space="preserve">
<path fill="#BF113F" d="M482.258,489.448c-2.357-13.533-7.056-25.904-15.084-37.359c-10.306-14.705-23.73-24.164-41.012-28.042
	c-15.007-3.367-29.38-0.473-43.153,5.957c-2.828,1.343-6.172,1.811-8.06,4.749c-19.443,14.762-31.296,34.102-35.144,58.27
	c-0.463,1.304-0.254,2.714-0.63,4.032c0.153,5.225-1.372,10.445-0.04,15.673c0.501,1.716,0.044,3.559,0.7,5.254
	c1.218,4.952,0.831,10.248,3.204,14.952c0.769,3.561,1.027,7.316,3.849,10.094c1.104,1.977,2.208,3.954,3.311,5.931h0
	c0.591,1.015,1.182,2.03,1.773,3.046h0c2.268,4.855,5.385,9.118,9.072,12.983c1.015,1.61,1.99,3.261,3.95,3.92
	c2.086,1.271,2.404,4.298,5.014,5.049l0,0c7.703,7.172,16.815,11.68,26.948,14.259c1.667,1.772,4.171,0.707,6.043,1.785
	c0.667,0,1.333,0,2,0c2.667,0,5.333,0,8,0c0.667,0,1.333,0,2,0c2.574-0.888,5.308-0.58,7.937-1.062
	c4.121-0.713,7.96-2.181,11.779-3.89c10.048-4.497,18.343-11.256,25.743-19.251c1.957-2.146,3.493-4.63,5.441-6.779
	c7.973-10.718,12.96-22.774,15.999-35.704c0.182-2.138,0.25-4.294,1.102-6.313c0-7.333,0-14.667,0-22c0-0.667,0-1.333,0-2
	c0-1,0-2,0-3C482.744,489.818,482.297,489.669,482.258,489.448z"/>
<path fill="#9B154B" d="M430.993,554.989c-5.061,1.288-9.919,3.105-15.35,3.106c-15.491,0.001-22.135-9.563-24.742-23.636
	c-2.268-12.24-0.302-24.153,2.389-35.837c2.205-9.573,6.394-18.889,15.242-24.396c6.56-4.083,14.25-3.227,21.208-1.003
	c9.109,2.912,15.572,9.495,20.269,17.775c3.67,4.71,4.895,10.333,5.983,16.009l-0.001-0.002c1.043,8.252,0.177,16.265-3.002,23.988
	c-2.328,3.67-4.657,7.34-6.985,11.009c-3.751,2.538-5.751,7.019-9.997,9.008c-0.003,0.328-0.008,0.655-0.015,0.983
	C434.096,552.611,431.885,552.699,430.993,554.989z"/>
<g>
	<path fill="#BF113F" d="M368.25,330.12c-0.417-14.779-3.389-28.998-7.393-43.099c0.146-0.815-0.221-1.442-0.741-2.012
		c-3.136-6.968-6.273-13.936-9.409-20.904c0.184-1.464-0.85-2.237-1.749-3.088c-2.047-3.195-4.093-6.39-6.14-9.586
		c-0.818-3.343-2.609-5.931-5.781-7.447c-0.331-0.374-0.663-0.748-0.994-1.123c-1.154-3.094-2.844-5.7-6.196-6.79
		c-11.637-11.219-24.783-20.145-39.821-26.194c-1.157-2.115-3.51-0.904-5.094-1.83l0.026,0.013
		c-2.307-0.408-4.615-0.816-6.922-1.225c-0.518-0.686-1.228-0.768-2.006-0.635c-0.974-0.161-1.948-0.323-2.922-0.484
		c-1.587-1.065-3.371-0.748-5.113-0.727c0,0,0,0,0,0c-0.662-0.341-1.324-0.681-1.986-1.022c-1.987-0.046-3.974-0.093-5.961-0.139
		c-1.583,0.059-3.167,0.117-4.75,0.176c-1.199,0.008-2.398-0.005-3.592-0.164c-1.495-0.708-3.278,0.215-4.706-0.841
		c-0.667,0-1.333,0-2,0c-3.147,2.89-7.623,0.913-10.988,3.001v0h0c-6.988,0.925-13.777,2.529-20.059,5.866
		c-1.545,0.388-3.062,0.834-4.259,1.973c-0.572,0.051-1.144,0.102-1.716,0.153c-0.231,0.28-0.637,0.403-0.844,0.705
		c-0.082-0.014-0.165-0.023-0.251-0.02c-1.248-0.219-2.095,0.484-2.906,1.271l-0.043,0.016c-0.711,0.787-2.047,0.565-2.638,1.54
		c-1.009-0.231-1.637,0.586-2.302,1.301c-0.164,0.275-0.402,0.377-0.714,0.306c-0.737,0.288-1.148,0.815-1.243,1.573
		c-0.122-0.058-0.242-0.112-0.374-0.187c-2.123-0.192-3.68,0.626-4.593,2.588c-2.617,0.493-4.22,2.396-5.873,4.23l0.024,0.007
		c-1.281-0.147-1.737,0.785-2.212,1.692c-0.375,0.311-0.751,0.622-1.126,0.933c-2.57,0.499-4.403,2.166-5.987,4.051
		c-3.753,4.467-9.236,7.418-11.54,13.151c-3.196,4.267-6.392,8.534-9.589,12.801c-0.997,0.456-1.455,1.291-1.633,2.323
		c-0.628,0.922-1.256,1.844-1.884,2.765c-0.428,0.652-0.855,1.304-1.283,1.956c-1.028,0.786,0.034,2.232-0.956,3.03
		c0.004,0.315-0.042,0.624-0.136,0.925l0,0c-0.683,0.69-1.367,1.379-2.05,2.069c-1.036,1.838-2.346,3.537-2.846,5.645
		c-2.052,5.444-4.103,10.888-6.155,16.332c-1.019,5.972-3.759,11.559-3.968,17.713c-0.206,0.783-0.412,1.567-0.617,2.35l0,0
		c-0.962,2.927-0.271,6.267-2.238,8.943c0,2,0,4,0,6c0,6,0,12,0,18c0,1,0,2,0,3s0,2,0,3c2.516,3.641,0.215,8.213,2.305,11.937
		c-0.623,3.477,1.258,6.505,2.099,9.622c2.054,7.613,3.512,15.503,7.72,22.397c0.071,0.679,0.142,1.357,0.212,2.036l0,0
		c0.199,0.429,0.398,0.859,0.598,1.288c0.748,1.559,1.397,3.162,2.127,4.729c5.65,9.174,10.452,18.894,17.53,27.146
		c1.459,2.215,3.063,4.303,5.181,5.945v0c0.784,1.206,1.568,2.411,2.352,3.617c0.512,1.38,1.129,2.666,2.75,3.046
		c0.343-0.023,0.663-0.016,0.964,0.017c0.843,1.016,1.687,2.031,2.53,3.047c0.489,0.213,0.978,0.426,1.468,0.639c0,0,0,0,0,0
		c3.729,6.381,10.633,8.71,16.317,12.518c4.672,3.13,9.886,5.451,14.859,8.131c1.348,0.575,2.309,2.141,4.094,1.601
		c0.301,0.121,0.602,0.241,0.903,0.362c1.452,1.268,3.194,1.677,5.064,1.701c6.364,1.039,12.582,2.822,19.069,3.27
		c12.549,0.867,24.78-0.809,36.862-4.029c2.198,0.798,3.364-1.138,4.981-1.881c0.326-0.083,0.651-0.166,0.977-0.249
		c2.554,0.286,4.668-0.415,6.073-2.706c4.339-2.386,8.678-4.773,13.016-7.159c0.962-0.658,2.499-0.352,2.996-1.788
		c5.826-4.9,12.193-9.181,17.419-14.762c5.39-5.755,11.69-10.8,14.881-18.348c0.553-0.477,1.107-0.955,1.66-1.432v0h0
		c1.511-0.733,1.233-2.537,2.164-3.617c0.323-0.271,0.646-0.543,0.969-0.814c0,0,0,0,0,0c0,0,0,0,0,0
		c2.056-3.083,4.112-6.166,6.167-9.248c1.798-1.231,2.029-3.271,2.641-5.115c2.162-2.019,2.361-4.975,3.49-7.476
		C364.24,376.719,368.925,354.019,368.25,330.12z M139.014,317.454c0-0.048,0.002-0.096,0.002-0.145
		c-0.383,0.023-0.144-0.155,0.116-0.188C139.091,317.232,139.051,317.343,139.014,317.454z M230.159,208.864
		c0.009,0.041,0.03,0.093,0.041,0.136c-0.066,0-0.133,0-0.199,0C230.05,208.948,230.107,208.912,230.159,208.864z"/>
	<path fill="#9B154B" d="M265.999,378.999c-3,3.334-6,6.668-9,10.002c-2.556,2.666-6.142,3.786-9.001,5.997l0,0.001
		c-1.132,1.069-2.981,0.702-3.999,1.999c-5.325,0.742-10.514,2.562-16.001,2.015c-2.67,1.434-5.334,1.468-7.992-0.031
		c-9.226-3.761-18.546-7.276-25.957-14.415c-1.957-1.885-3.114-4.728-6.04-5.571c-0.784-2.939-3.836-4.736-4.02-7.977
		c-3.586-1.476-3.057-5.513-4.988-8.019c-1.521-2.573-2.149-5.592-3.996-8.002c-2.5-8.6-3.633-17.502-3.801-26.335
		c-0.218-11.422,1.675-22.672,7.54-32.862c0.881-1.53,1.509-3.206,2.253-4.815c2.074-4.972,4.937-9.396,9.007-12.983l-0.001,0.001
		c3.35-4.831,8.24-7.841,13.004-11c7.388-4.165,15.186-7.663,23.389-9.428c8.429-1.813,17.105-1.004,25.32,2.159
		c4.738,1.824,9.064,4.46,13.28,7.268c1.995,2.671,4.405,5.03,6.001,8c1.629,3.154,3.569,6.189,4.834,9.483
		c5.874,15.304,6.095,31.184,4.421,47.223c-0.735,7.044-1.269,14.095-3.164,20.987c-1.75,6.362-4.114,12.441-7.081,18.31
		C269.015,373.843,267.559,376.447,265.999,378.999z"/>
</g>
</svg>
