<?xml version="1.0" encoding="utf-8"?>
<!-- Generator: Adobe Illustrator 19.2.1, SVG Export Plug-In . SVG Version: 6.00 Build 0)  -->
<svg version="1.1" id="Layer_1" xmlns="http://www.w3.org/2000/svg" xmlns:xlink="http://www.w3.org/1999/xlink" x="0px" y="0px"
	 viewBox="0 0 497.3 572.7" enable-background="new 0 0 497.3 572.7" xml:space="preserve">
<g id="lissos">
	<path fill="#493A8F" d="M495.8,294.6c0-40.2,0-40.2-10.1-87.1c0-6.7,0-13.4,0-23.5c-3.4-20.1-13.4-40.2-26.8-63.7
		c-23.5-40.2-50.3-70.4-83.8-90.5c-10.1-6.7-16.8-10.1-26.8-13.4c-20.1,3.4-140.7-33.5-134-6.7c-13.4,3.4-23.5,6.7-36.9,10.1
		c-26.8,10.1-50.3,20.1-70.4,33.5c-10.1,6.7-16.8,13.4-26.8,20.1L67,83.5c-6.7,6.7-13.4,13.4-20.1,13.4h-3.4
		c-10.1,3.4-20.1,3.4-30.2,16.8c-26.8,30.2-6.7,70.4,3.4,93.8c3.4,3.4,3.4,10.1,6.7,13.4c3.4,6.7,3.4,10.1,3.4,20.1
		c0,6.7-3.4,16.8-6.7,30.2c6.7,83.8-33.5,258,140.7,254.6c3.4,3.4,10.1,3.4,16.8,10.1c6.7,6.7,13.4,13.4,16.8,20.1
		c16.8,6.7,30.2,10.1,46.9,13.4s33.5,3.4,46.9,3.4c13.4,0,23.5,0,33.5,0c10.1,0,26.8,0,40.2-6.7c16.8-6.7,26.8-13.4,36.9-23.5
		c26.8-20.1,46.9-46.9,67-80.4c13.4-20.1,20.1-40.2,23.5-60.3c3.4-6.7,3.4-16.8,3.4-23.5c0-26.8,0-26.8,3.4-60.3
		C499.2,311.4,495.8,301.3,495.8,294.6z"/>
	<path fill="#AD76B1" d="M56.9,214.2c13.4,43.6,0,87.1,0,130.7c0,23.5,3.4,46.9,10.1,70.4c3.4,10.1,6.7,20.1,13.4,30.2
		c6.7,6.7,13.4,13.4,23.5,16.8c23.5,13.4,46.9,30.2,67,43.6c13.4,6.7,26.8,16.8,40.2,23.5c36.9,13.4,77.1,13.4,113.9,13.4
		c10.1,0,20.1,0,30.2-3.4c10.1-3.4,20.1-10.1,26.8-16.8c23.5-20.1,43.6-43.6,57-70.4c10.1-16.8,16.8-33.5,20.1-50.3
		c6.7-26.8,6.7-53.6,3.4-83.8c0-23.5-3.4-46.9-3.4-70.4c0-16.8-3.4-36.9-6.7-53.6c-3.4-20.1-13.4-36.9-23.5-57
		c-16.8-30.2-40.2-60.3-70.4-77.1c-50.3-30.2-117.3-26.8-174.2-6.7c-20.1,6.7-43.6,16.8-60.3,30.2c-10.1,6.7-20.1,13.4-30.2,23.5
		s-23.5,20.1-33.5,26.8c-6.7,3.4-20.1,3.4-23.5,10.1C23.4,153.9,50.2,197.5,56.9,214.2z"/>
	<path fill="#493A8F" d="M190.9,177.4c3.4,0,3.4,0,3.4,0s0-3.4,3.4-3.4c3.4-3.4,6.7-3.4,10.1,0c3.4,3.4,6.7,3.4,10.1,6.7
		c6.7,0,10.1-3.4,13.4-6.7c6.7-10.1,10.1-23.5,6.7-36.9c0-3.4,0-3.4-3.4-6.7c-3.4-10.1-23.5-23.5-33.5-26.8
		c-10.1-3.4-13.4,6.7-20.1,16.8C174.2,137.2,157.4,174,190.9,177.4z"/>
	<path fill="#493A8F" d="M167.5,348.2c3.4,10.1,13.4,13.4,20.1,6.7c0-3.4,3.4-6.7,3.4-10.1c0-3.4,3.4-6.7,6.7-3.4c0,0,0,0,3.4,3.4
		c6.7,13.4,10.1,30.2,13.4,43.6c3.4,16.8,10.1,30.2,20.1,36.9h3.4c0,0,3.4,0,3.4-3.4c10.1-10.1,20.1-20.1,30.2-30.2l3.4-3.4
		c0-3.4,0-3.4,0-6.7c-3.4-13.4-20.1-13.4-20.1-26.8c0-3.4,0-6.7,3.4-10.1c3.4-10.1,6.7-20.1,10.1-30.2c0-3.4,3.4-6.7,0-10.1
		c0-6.7-10.1-6.7-13.4-6.7c-16.8,0-30.2-16.8-43.6-20.1c-16.8-3.4-33.5,10.1-50.3,26.8c6.7-6.7,6.7,16.8,6.7,16.8
		C167.5,331.5,164.1,338.2,167.5,348.2z"/>
	<path fill="#493A8F" d="M325,264.5c-3.4,6.7-3.4,10.1-3.4,16.8c0,6.7,3.4,16.8,6.7,23.5c3.4,6.7,3.4,10.1,10.1,13.4
		c3.4,3.4,6.7,3.4,6.7,3.4c3.4,3.4,10.1,10.1,13.4,10.1c10.1,3.4,16.8-3.4,26.8-10.1c3.4-3.4,10.1-10.1,13.4-16.8
		c6.7-16.8-10.1-36.9-3.4-57c3.4-6.7,6.7-13.4,3.4-20.1c0-3.4-3.4-3.4-3.4-3.4c-10.1-6.7-20.1-16.8-30.2-23.5
		C338.4,217.6,331.7,241,325,264.5z"/>
	<path fill="#493A8F" d="M87.1,438.7c0,3.4,0,3.4,0,3.4c0,3.4,3.4,3.4,6.7,3.4c13.4,3.4,26.8-3.4,36.9-16.8c0-3.4,3.4-3.4,3.4-6.7
		c0-3.4-3.4-6.7-6.7-10.1c-3.4-3.4-6.7-3.4-10.1-6.7c-6.7-10.1,3.4-26.8-3.4-36.9c0-3.4-3.4-3.4-6.7-6.7c-3.4-3.4-6.7-6.7-13.4-6.7
		c0,0-3.4-3.4-3.4,0c-3.4,0-3.4,6.7-3.4,10.1c0,6.7-6.7,10.1-6.7,16.8C77,395.1,87.1,425.3,87.1,438.7z"/>
</g>
</svg>
