<svg id="Layer_1" data-name="Layer 1" xmlns="http://www.w3.org/2000/svg" viewBox="0 0 283.95 188.73"><defs><style>.cls-1{fill:#0f5659;}.cls-2{fill:#a1e2e0;}.cls-3{fill:#22a6b3;}.cls-4{fill:#6fd1a0;}.cls-5{fill:#8fd8d5;}.cls-6{fill:#7ed6df;}.cls-7{fill:#2d98da;}.cls-8{fill:#d91ef4;}.cls-9{fill:#897bef;}.cls-10{fill:#785eea;}.cls-11{fill:#744def;}.cls-12{fill:#703bf2;}.cls-13{fill:#6b25f2;}.cls-14{fill:#d279f7;}</style></defs><title>logo</title><path class="cls-1" d="M1.18,132.57a3.66,3.66,0,0,1,2.31-.94q1.52-.15,7.52,0,6.2,0.2,8,.49a15.71,15.71,0,0,1,4.48,1.67A13.45,13.45,0,0,1,26.9,136a12.53,12.53,0,0,1,2.11,3.2,14.81,14.81,0,0,1,1.72,8.61,16.12,16.12,0,0,1-3.39,8.41,8.53,8.53,0,0,0-1.67,2.46q0,0.39,2.85,3.15A16,16,0,0,1,32.75,173a15.5,15.5,0,0,1-3.25,9.2,14.48,14.48,0,0,1-7.57,5.75q-2.56.79-11.46,0.79t-9.69-.79Q0,187.16,0,160.5T1.18,132.57ZM20,141A8.85,8.85,0,0,0,17.46,139a8.76,8.76,0,0,0-3.1-.39,11.28,11.28,0,0,0-4.82,1,2.78,2.78,0,0,0-1.62,1.62,34.78,34.78,0,0,0-.25,5.66q0,5.81,1,7.28t4.87,1.38a10.13,10.13,0,0,0,4.72-1.28A7.9,7.9,0,0,0,21.44,151a10,10,0,0,0,1.08-4.72,6,6,0,0,0-.49-2.7A12.1,12.1,0,0,0,20,141Zm-0.69,23.21A13.24,13.24,0,0,0,13,163Q9,163,8.36,164.24T7.67,172.5a46.81,46.81,0,0,0,.25,6,5.25,5.25,0,0,0,1,2.51,2.83,2.83,0,0,0,1.62,1.18,18.65,18.65,0,0,0,3.79-.39,14.89,14.89,0,0,0,6.1-2.16,8.46,8.46,0,0,0,3.54-8A8.55,8.55,0,0,0,19.28,164.24Z"/><path class="cls-1" d="M41.73,136.78a3.29,3.29,0,0,0-2.5,1.07,3.36,3.36,0,0,0-1,2.43,3.41,3.41,0,0,0,3.5,3.5,3.53,3.53,0,0,0,3.5-3.5A3.67,3.67,0,0,0,41.73,136.78Z"/><path class="cls-1" d="M39.29,150.36H36.86a3.87,3.87,0,0,0-2.5,1.6,4,4,0,0,0-1,2.69,3.71,3.71,0,0,0,1,2.63,3.46,3.46,0,0,0,2.5,1.06,1.15,1.15,0,0,1,.89.45l-0.05.09a1,1,0,0,1,.28.91V179.3a1.14,1.14,0,0,1-.32,1,1.1,1.1,0,0,1-.86.38,3.22,3.22,0,0,0-2.47,1.07,3.34,3.34,0,0,0-1,2.43,3.07,3.07,0,0,0,1,2.35,3.31,3.31,0,0,0,2.51.84h2.44a6.65,6.65,0,0,0,4.55-1.53,5.87,5.87,0,0,0,2.13-4.1V157.35a7.38,7.38,0,0,0-2.13-4.7A7.2,7.2,0,0,0,39.29,150.36Z"/><path class="cls-1" d="M72.59,150.36H53.08c-1.66,0-2.67,1.25-3.86,2.43S48,156,48,157.61V182a5,5,0,0,0,1.28,4,4.79,4.79,0,0,0,3.82,1.38H72.59A5,5,0,0,0,78,182V157.61c0-1.6-.32-3.66-1.48-4.83S74.19,150.36,72.59,150.36ZM72,160v19.51a2,2,0,0,1-.67,1.22,2,2,0,0,1-1.15.59H55.51a1.71,1.71,0,0,1-1.08-.59,1.92,1.92,0,0,1-.46-1.22V160a1.69,1.69,0,0,1,.49-1.12,1.51,1.51,0,0,1,1-.56H70.15a1.31,1.31,0,0,1,.89.56l0.3,0.15A1.57,1.57,0,0,1,72,160Z"/><path class="cls-1" d="M94.14,132.57a3.66,3.66,0,0,1,2.31-.94q1.52-.15,7.52,0,6.2,0.2,8,.49a15.71,15.71,0,0,1,4.48,1.67,13.45,13.45,0,0,1,3.39,2.21,12.53,12.53,0,0,1,2.11,3.2,14.81,14.81,0,0,1,1.72,8.61,16.12,16.12,0,0,1-3.39,8.41,8.53,8.53,0,0,0-1.67,2.46q0,0.39,2.85,3.15A16,16,0,0,1,125.71,173a15.5,15.5,0,0,1-3.25,9.2,14.48,14.48,0,0,1-7.57,5.75q-2.56.79-11.46,0.79t-9.69-.79Q93,187.16,93,160.5T94.14,132.57ZM112.93,141a8.85,8.85,0,0,0-2.51-2.07,8.76,8.76,0,0,0-3.1-.39,11.28,11.28,0,0,0-4.82,1,2.78,2.78,0,0,0-1.62,1.62,34.78,34.78,0,0,0-.25,5.66q0,5.81,1,7.28t4.87,1.38a10.13,10.13,0,0,0,4.72-1.28A7.9,7.9,0,0,0,114.4,151a10,10,0,0,0,1.08-4.72,6,6,0,0,0-.49-2.7A12.1,12.1,0,0,0,112.93,141Zm-0.69,23.21a13.24,13.24,0,0,0-6.29-1.28q-3.93,0-4.62,1.28t-0.69,8.26a46.81,46.81,0,0,0,.25,6,5.25,5.25,0,0,0,1,2.51,2.83,2.83,0,0,0,1.62,1.18,18.65,18.65,0,0,0,3.79-.39,14.89,14.89,0,0,0,6.1-2.16,8.46,8.46,0,0,0,3.54-8A8.55,8.55,0,0,0,112.24,164.24Z"/><path class="cls-1" d="M154.92,158.82a0.79,0.79,0,0,1,.73-0.41,3.06,3.06,0,0,0,2.27-1,3.28,3.28,0,0,0,1.05-2.54,4.5,4.5,0,0,0-1.1-3c-0.65-.7-1.52-1.6-2.46-1.6H153c-1.66,0-3.12,1.12-4.31,2.3a7.21,7.21,0,0,0-1.7,4.68v22a2,2,0,0,1-.41,1.35,1.64,1.64,0,0,1-.89.72h-9.76a2.4,2.4,0,0,1-1.28-.72,2.49,2.49,0,0,1-.65-1.35V159.79a1.67,1.67,0,0,1,.69-1,1.5,1.5,0,0,1,1.11-.41,3.49,3.49,0,0,0,2.46-1,3.36,3.36,0,0,0,1.15-2.54,4.46,4.46,0,0,0-1.05-3c-0.65-.7-1.47-1.6-2.41-1.6h-2.44c-1.66,0-2.87,1.12-4.06,2.3a7,7,0,0,0-1.44,4.68v24.39a5.44,5.44,0,0,0,1.48,4.12,5.32,5.32,0,0,0,4,1.51h14.64a3.21,3.21,0,0,0,2.39-.8s0-.09,0-0.09a3.35,3.35,0,0,0,2.48.89h2.44a3.21,3.21,0,0,0,2.39-.8,3.24,3.24,0,0,0,0-4.85,3.22,3.22,0,0,0-2.43-1.05c-0.43,0-.28-0.11-0.54-0.37s0.09-.57.09-1V159.79C155,159.41,154.63,159.12,154.92,158.82Z"/><path class="cls-1" d="M185.68,151.36H171a3.3,3.3,0,0,0-2.48,1,3.23,3.23,0,0,0-2.4-1h-2.44a3.55,3.55,0,0,0-2.5,1.34,3.67,3.67,0,0,0-1,2.56,3.56,3.56,0,0,0,1,2.57,3.43,3.43,0,0,0,2.5,1,1.14,1.14,0,0,1,.89.43l0.51,0.09a1.87,1.87,0,0,1,.85.9v19.51a1.91,1.91,0,0,1-.88,1,1.75,1.75,0,0,1-1.14.38,3.53,3.53,0,0,0-2.61,1.07,3.41,3.41,0,0,0-1.05,2.43,2.55,2.55,0,0,0,1,2.1c0.66,0.66,1.48.6,2.47,0.6h2.44a5.41,5.41,0,0,0,4.11-1.28,4.91,4.91,0,0,0,1.69-3.86v-22a2,2,0,0,1,.48-1.23,1.63,1.63,0,0,1,1-.68h9.76a1.49,1.49,0,0,1,.89.68l-0.25.21a1.25,1.25,0,0,1,.09,1v19.51a1.08,1.08,0,0,1-.13,1,0.91,0.91,0,0,1-.77.38,3.12,3.12,0,0,0-2.42,1.07,3.32,3.32,0,0,0-1,2.43,2.59,2.59,0,0,0,1,2.1c0.66,0.66,1.52.6,2.52,0.6h2.44a6,6,0,0,0,4.36-1.28,5.15,5.15,0,0,0,1.94-3.86V157.83a6.53,6.53,0,0,0-1.94-4.45A6.43,6.43,0,0,0,185.68,151.36Z"/><path class="cls-1" d="M225,156.87V143.2a7.14,7.14,0,0,0-2.09-4.63,7,7,0,0,0-4.51-2.21h-2.44a3.78,3.78,0,0,0-2.5,1.52,3.9,3.9,0,0,0-1,2.65,3.67,3.67,0,0,0,1,2.61,3.46,3.46,0,0,0,2.5,1.05,1.15,1.15,0,0,1,.89.44l0.41,0.09a1.64,1.64,0,0,1,.74.9v9.76a1.38,1.38,0,0,1-.78.8,2,2,0,0,1-1.26.17h-9.76a1.07,1.07,0,0,1-.92-0.17,0.86,0.86,0,0,1-.29-0.8V143.2a6.88,6.88,0,0,0-1.85-4.63,6.44,6.44,0,0,0-4.27-2.21h-2.44a3.77,3.77,0,0,0-2.5,1.52,3.9,3.9,0,0,0-1,2.65,3.67,3.67,0,0,0,1,2.61,3.45,3.45,0,0,0,2.5,1.05,1.15,1.15,0,0,1,.89.44l0.16,0.09a1.24,1.24,0,0,1,.5.9v12.2a3.41,3.41,0,0,0,1,2.48,3.36,3.36,0,0,0-1,2.4v17.07a1.57,1.57,0,0,1-1.51,1.38,3.55,3.55,0,0,0-3.53,3.5,2.57,2.57,0,0,0,1,2.1c0.66,0.66,1.5.6,2.5,0.6h2.44a5.76,5.76,0,0,0,4.27-1.28,5.05,5.05,0,0,0,1.85-3.86V165.15a1.67,1.67,0,0,1,.33-1.17,1.26,1.26,0,0,1,.88-0.62h14.64a1.39,1.39,0,0,1,.89.62l0.47,0.18a2,2,0,0,1,.8,1v14.64a1.82,1.82,0,0,1-.84,1,1.69,1.69,0,0,1-1.12.38,3.51,3.51,0,0,0-2.6,1.07,3.41,3.41,0,0,0-1,2.43,2.55,2.55,0,0,0,1,2.1c0.66,0.66,1.48.6,2.48,0.6h2.44c1.6,0,3.39-.16,4.57-1.28s2.15-2.2,2.15-3.86V162.71a5.8,5.8,0,0,0-1.82-4.18A6.61,6.61,0,0,0,225,156.87Z"/><path class="cls-1" d="M253.32,150.36H238.68a7.42,7.42,0,0,0-4.66,2.38,7.79,7.79,0,0,0-2,4.76v9.76a3.41,3.41,0,0,0,1,2.48,3.36,3.36,0,0,0-1,2.4v9.76c0,1.65.94,2.84,2.09,4a6.73,6.73,0,0,0,4.62,1.43h14.64a5.36,5.36,0,0,0,4-1.45,5.18,5.18,0,0,0,1.62-4v-2.44a3.42,3.42,0,0,0-3.29-3.5,3.22,3.22,0,0,0-2.47,1.07,3.34,3.34,0,0,0-1,2.43,1.81,1.81,0,0,1-.44,1.27,1.55,1.55,0,0,1-.92.64h-9.76a1.35,1.35,0,0,1-.89-0.64,2,2,0,0,1-.26-1.27v-4.88a2.26,2.26,0,0,1,.3-1.39,1.57,1.57,0,0,1,.85-0.83h12.2a5.22,5.22,0,0,0,4-1.26,4.8,4.8,0,0,0,1.62-3.84v-9.76a7.06,7.06,0,0,0-1.62-4.78C256.19,151.56,254.92,150.36,253.32,150.36ZM253,159.95v4.88c0,0.41-.49.29-0.81,0.58s-0.91,0-1.29,0h-9.76c-0.43,0-.63.3-0.89,0a0.5,0.5,0,0,1-.26-0.58v-4.88a1.38,1.38,0,0,1,.3-1.07,1.08,1.08,0,0,1,.85-0.51h9.76a1.24,1.24,0,0,1,.89.51L252.2,159A1.78,1.78,0,0,1,253,159.95Z"/><path class="cls-1" d="M282.88,153c-0.65-.7-1.22-2-2.15-2l-9.59-.58a3.29,3.29,0,0,0-2.48,1,3.24,3.24,0,0,0-2.4-1h-2.44a3.88,3.88,0,0,0-2.5,1.6,4,4,0,0,0-1,2.69,3.72,3.72,0,0,0,1,2.63,3.46,3.46,0,0,0,2.5,1.06,1.16,1.16,0,0,1,.89.45l0.47,0.09a1.79,1.79,0,0,1,.8.91V179.3a1.3,1.3,0,0,1-.56,1,4.35,4.35,0,0,0-.41.41c-0.66.76-1,.38-1.59,1.07a3.41,3.41,0,0,0-1,2.43,3,3,0,0,0,1,2.34,3.24,3.24,0,0,0,2.48.84h0.44a6.7,6.7,0,0,0,4.57-1.53,5.89,5.89,0,0,0,2.15-4.1v-22a1.14,1.14,0,0,1,0-1c0.26-.29.16-0.43,0.58-0.43h6.88c0.94,0,1.77.68,2.39,0.06s1.11-.79,1.11-1.79S283.58,153.61,282.88,153Z"/><rect class="cls-2" x="132.56" y="88.99" width="28.73" height="2.61" transform="matrix(0.86, -0.5, 0.5, 0.86, -25.48, 86.15)"/><rect class="cls-3" x="130.82" y="79.09" width="20.9" height="2.94" transform="translate(-21.35 81.98) rotate(-30.19)"/><rect class="cls-4" x="90.33" y="14.23" width="33.96" height="2.94" transform="matrix(0.86, -0.5, 0.5, 0.86, 6.66, 56.1)"/><rect class="cls-3" x="95.91" y="20.5" width="31.02" height="2.61" transform="translate(4.15 59) rotate(-30.19)"/><rect class="cls-5" x="112.03" y="33.65" width="17.3" height="2.94" transform="translate(-1.29 65.46) rotate(-30.19)"/><rect class="cls-6" x="126.58" y="59.08" width="18.94" height="2.94" transform="translate(-12 76.64) rotate(-30.19)"/><rect class="cls-4" x="112.86" y="42.1" width="24.16" height="2.61" transform="translate(-4.88 68.72) rotate(-30.19)"/><rect class="cls-3" x="118.86" y="52.3" width="25.14" height="2.61" transform="matrix(0.86, -0.5, 0.5, 0.86, -9.13, 73.38)"/><path class="cls-7" d="M111.33,41q2-.57,4-1.11a25.24,25.24,0,0,0,.51,7.81,25.59,25.59,0,0,0,10.56,15.41c3.94,2.65,8.76,4.28,13.43,5.86,7,2.38,14.32,4.84,19.16,10.85a31.62,31.62,0,0,1,5.8,10.65l-3.85,2.24c-1.17-3.49-2.41-7.2-5-10.43-4.12-5.13-10.55-7.3-17.36-9.6-4.91-1.66-10-3.38-14.37-6.32A29.55,29.55,0,0,1,112,48.58,29,29,0,0,1,111.33,41Z"/><path class="cls-1" d="M131.59,74.81a45.76,45.76,0,0,1,5.26-7.25c2.92-3.51,5.67-6.82,6.23-10.85,0.52-3.7-.87-7.86-4.24-12.7-6.11-8.78-14.46-13.93-22.32-13.78a39.14,39.14,0,0,0-6.55.88,42.42,42.42,0,0,1-7.25,1c-5.71.1-11.72-8.63-14-12.87l3.45-1.85c1.69,3.16,7.09,10.54,11,10.47a31.69,31.69,0,0,0,6-.55,42.68,42.68,0,0,1,7.21-1c9.18-.18,18.75,5.6,25.61,15.46,4,5.69,5.57,10.75,4.91,15.48-0.72,5.14-4,9-7.1,12.82A42.24,42.24,0,0,0,135,76.68c-4.55,8.38-.21,21.42,8,26.47l-3.83,2.23C129.35,99.39,126.1,84.93,131.59,74.81Z"/><path class="cls-7" d="M115.32,27.26c0.76-1.29,1.61-2.53,2.44-3.73,2-2.94,4-5.73,4.24-8.87,0.27-2.88-2.92-9-5.06-12.69l3.39-2c2,3.39,6,10.68,5.57,15-0.38,4.16-2.68,7.53-4.91,10.76-0.83,1.19-1.61,2.32-2.29,3.48a26.34,26.34,0,0,0-3.4,10.85c-1.34.36-2.66,0.63-4,1A29.88,29.88,0,0,1,115.32,27.26Z"/><path class="cls-5" d="M143.76,101L124,66.72V44.36h1.16c0.62,0,.84.38,0.84-0.24V43.71c0-.62-0.22-2.35-0.84-2.35H107.64c-0.62,0-.66,1.73-0.66,2.35v0.42c0,0.62,0,.24.66,0.24H109V66.72L89.1,101c-5.44,9.43,1.22,21.33,12.11,21.33h30.36A14.21,14.21,0,0,0,143.76,101Z"/><path class="cls-8" d="M130.58,84.55a1.33,1.33,0,0,0-1-.67c-1.09-.09-2.17-0.36-3.27-0.39-3.56-.09-2.47.72-6.06,0.32s-5.62-1.16-10.32-1c-1.86.06-3.87,0.39-5.76,0.38a1.38,1.38,0,0,0-1.21.68l-6.9,12-3.3,5.71a11.51,11.51,0,0,0,10,17.27h27.72a11.51,11.51,0,0,0,10-17.27Z"/><circle class="cls-5" cx="110.56" cy="106.5" r="1.36"/><circle class="cls-5" cx="119.89" cy="100.79" r="0.68"/><circle class="cls-5" cx="111.65" cy="97.84" r="1.09"/><circle class="cls-5" cx="124.67" cy="108.18" r="0.48"/><path class="cls-1" d="M131.27,64.27a33.78,33.78,0,0,0-2.64,9.46L127,82.88c-1.18,6.68-2.36,13.49-1.5,20.22,0.82,6.43,5.5,14.81,10.11,19.36s12.68,4.25,19.14,3.81,12.29-3.81,17.67-7.39c2.38-1.59,4.89-3.46,5.65-6.22,0.67-2.45-.2-5.12.45-7.58,1.08-4.1,5.87-6.18,7.57-10.07,2-4.66-1-9.79-2.76-14.54-2.12-5.6-2.58-11.66-3.74-17.53s-3.38-8.26-7.89-12.2c-6.66-5.81-13.15-6.71-19.4-2.28S134.79,57.29,131.27,64.27Z"/><path class="cls-4" d="M134.2,66.9a29.82,29.82,0,0,0-2.33,8.35l-1.42,8.07c-1,5.9-2.08,11.9-1.33,17.85,0.72,5.68,4.85,13.07,8.93,17.09s11.19,3.75,16.9,3.37,10.85-3.36,15.6-6.53c2.1-1.4,4.32-3.05,5-5.49,0.59-2.16-.18-4.52.39-6.69,0.95-3.62,5.18-5.46,6.68-8.89,1.8-4.11-.85-8.64-2.44-12.84-1.87-4.94-2.27-10.29-3.3-15.48s-3-6.87-7-10.34C164,50.24,158.29,49,152.77,52.93S137.3,60.73,134.2,66.9Z"/><path class="cls-8" d="M166.8,68.42c-0.89-2.33-3-5.72-5.8-5.63a24.29,24.29,0,0,0-7.22,1,8.21,8.21,0,0,0-5.24,4.74,9.85,9.85,0,0,0-.12,4.91,14.34,14.34,0,0,0,3.85,8c2.19,2.07,5.62,3,8.35,1.73a11.46,11.46,0,0,0,3.83-3.52c1.54-2,3-4.13,3.23-6.61A10.86,10.86,0,0,0,166.8,68.42Z"/><path class="cls-2" d="M150.57,64.09a7,7,0,0,0-1.37,1c-1.52,1.53-1.64,4.1-3.26,5.53a0.44,0.44,0,0,1-.29.14c-0.26,0-.3-0.38-0.25-0.64A13.19,13.19,0,0,1,146.9,66a0.94,0.94,0,0,0,.17-0.87,0.61,0.61,0,0,0-.76-0.21,1.69,1.69,0,0,0-.64.56c-1.63,2-3,4.53-2.72,7.13a0.19,0.19,0,0,1,0,.16,0.17,0.17,0,0,1-.1,0,1.21,1.21,0,0,1-1.18-.71,3.1,3.1,0,0,1-.24-1.44,7.42,7.42,0,0,1,.3-2.23,9.63,9.63,0,0,1,1.57-2.68l2.48-3.35A11.31,11.31,0,0,1,149,59.14a1.23,1.23,0,0,1,1.51,0,1.21,1.21,0,0,1-.12,1.37,5.06,5.06,0,0,1-1.58,1.61,4.66,4.66,0,0,0-1.18.85,1,1,0,0,0,0,1.32l0.07,0c0.16,0.06.28-.15,0.35-0.31a1.93,1.93,0,0,1,1.07-.9c0.44-.18.91-0.29,1.34-0.5a10.19,10.19,0,0,0,1.56-1.1,4.82,4.82,0,0,1,4.51-.91,0.37,0.37,0,0,1,.17.11,0.34,0.34,0,0,1,0,.28,1.27,1.27,0,0,1-1,.89c-0.22,0-.43,0-0.65,0a3.94,3.94,0,0,0-.89.35A29.14,29.14,0,0,0,150.57,64.09Z"/><path class="cls-2" d="M155.35,56a2.53,2.53,0,0,0-1,.34,0.86,0.86,0,0,0-.38,1,1.05,1.05,0,0,0,.68.55c1.43,0.51,3-.12,4.51-0.11a9.1,9.1,0,0,1,3.37.86,1.67,1.67,0,0,1,.64.4,0.59,0.59,0,0,1,.09.7,0.82,0.82,0,0,1-.78.21c-0.65-.07-1.28-0.25-1.92-0.33a3,3,0,0,0-1.89.29,0.3,0.3,0,0,0-.15.15,0.29,0.29,0,0,0,0,.15,1.6,1.6,0,0,0,1.45,1.23,6.82,6.82,0,0,0,1-.12,5.74,5.74,0,0,1,2.48.49,3.65,3.65,0,0,1,1.27.55,7.57,7.57,0,0,1,2.28,3.1,13,13,0,0,1,1.26,3.2,1,1,0,0,0,.2.57,0.67,0.67,0,0,0,.91-0.11,2,2,0,0,0,.05-2.19,11.35,11.35,0,0,0-4.73-5.72,0.54,0.54,0,0,1-.2-0.34,0.84,0.84,0,0,1,0-.37l0.23-1.05L168,63a7.64,7.64,0,0,1,1,1.24,7.4,7.4,0,0,1,.77,2.25,0.29,0.29,0,0,0,.52.2h0a1.73,1.73,0,0,0,.33-2.46l-3.95-4.33A22.74,22.74,0,0,0,164.52,58c-1.43-1.18-3.27-1.51-5-2.19C158.14,55.25,156.79,55.78,155.35,56Z"/><path class="cls-2" d="M149.47,83.08a0.7,0.7,0,0,1,.92-1A11.68,11.68,0,0,1,152,83c0.59,0.38,1.15.82,1.75,1.2a9.53,9.53,0,0,0,5.52,1.5,8.08,8.08,0,0,0,5.22-2.25,12.69,12.69,0,0,0,3-6,0.47,0.47,0,0,1,.9,0,3.3,3.3,0,0,1,0,1.43,10.24,10.24,0,0,1-4,6.39,1.68,1.68,0,0,0,.86.75,17.4,17.4,0,0,0,5.18-11.44,4.56,4.56,0,0,0,0-1.34,0.39,0.39,0,0,1,.57-0.42,2.92,2.92,0,0,1,1.41,1.53c0.18,1.58-.9,3-1.09,4.54A12.25,12.25,0,0,1,168,85.51a19.27,19.27,0,0,1-6,4.33c-0.78.38-1.58,0.72-2.38,1.06-0.58.25-1.44,0.4-1.7-.17a3.67,3.67,0,0,1,2-1.89l3.69-2.07a1.1,1.1,0,0,0-1.26-.75,4.7,4.7,0,0,0-1.49.63,6.74,6.74,0,0,1-6.13,0L154,88.32a9.09,9.09,0,0,0,2.11,1.31c0.65,0.36.75,1.15,0.05,1.39l-0.26.07c-0.61.11-.91-0.49-1.5-0.68a12.21,12.21,0,0,1-5-3.11,20.16,20.16,0,0,1-1.78-2.1c-0.84-1.12-1.78-2.53-2.62-3.66-0.41-.55-0.81-1.37-0.32-1.85a2,2,0,0,1,1.78.86,12.64,12.64,0,0,1,1,1.82,14.46,14.46,0,0,0,4.91,5.27,0.54,0.54,0,0,0,.51.11,0.53,0.53,0,0,0,.19-0.23l0.55-1C152.43,85.62,150.2,84.62,149.47,83.08Z"/><rect class="cls-9" x="156.19" y="94.8" width="0.46" height="11.12" transform="translate(209.38 -77.79) rotate(73.87)"/><rect class="cls-10" x="156.13" y="94.43" width="0.46" height="11.12" transform="translate(208.98 -78) rotate(73.87)"/><rect class="cls-10" x="156.33" y="95.12" width="0.46" height="11.12" transform="translate(209.78 -77.69) rotate(73.87)"/><rect class="cls-11" x="156.08" y="94.06" width="0.46" height="11.12" transform="translate(208.59 -78.21) rotate(73.87)"/><rect class="cls-11" x="156.47" y="95.42" width="0.46" height="11.12" transform="translate(210.18 -77.61) rotate(73.87)"/><rect class="cls-12" x="156.12" y="95.14" width="0.46" height="11.12" transform="matrix(0.28, 0.96, -0.96, 0.28, 209.65, -77.48)"/><rect class="cls-12" x="155.95" y="94.52" width="0.46" height="11.12" transform="translate(208.93 -77.75) rotate(73.87)"/><rect class="cls-13" x="155.76" y="94.9" width="0.46" height="11.12" transform="translate(209.16 -77.29) rotate(73.87)"/><rect class="cls-9" x="146.81" y="90.97" width="0.5" height="12.16" transform="translate(208.08 262.34) rotate(-143.69)"/><rect class="cls-10" x="147.11" y="91.25" width="0.5" height="12.16" transform="translate(208.46 263.02) rotate(-143.69)"/><rect class="cls-10" x="146.48" y="90.78" width="0.5" height="12.16" transform="translate(207.6 261.81) rotate(-143.69)"/><rect class="cls-11" x="147.4" y="91.53" width="0.5" height="12.16" transform="translate(208.81 263.71) rotate(-143.69)"/><rect class="cls-11" x="146.15" y="90.62" width="0.5" height="12.16" transform="translate(207.11 261.32) rotate(-143.69)"/><rect class="cls-12" x="146.64" y="90.63" width="0.5" height="12.16" transform="translate(207.99 261.63) rotate(-143.69)"/><rect class="cls-12" x="147.21" y="91.05" width="0.5" height="12.16" transform="translate(208.76 262.72) rotate(-143.69)"/><rect class="cls-13" x="147.12" y="90.59" width="0.5" height="12.16" transform="translate(208.87 261.84) rotate(-143.69)"/><rect class="cls-8" x="140.19" y="106.01" width="0.56" height="10.09" transform="translate(-14.91 22.04) rotate(-8.52)"/><rect class="cls-8" x="138.81" y="106.17" width="0.56" height="10.09" transform="translate(-22.34 36.01) rotate(-13.66)"/><path class="cls-14" d="M145.66,71.06a0.58,0.58,0,0,0-.28-0.62,0.84,0.84,0,0,0-1.14,1.23L144,72l0.25,0.18,0.29-.18A1.72,1.72,0,0,0,145.66,71.06Z"/><path class="cls-14" d="M141.18,70.46a1.24,1.24,0,0,0,.73-0.85,0.42,0.42,0,0,0-.2-0.38,0.92,0.92,0,0,0-1.29.14,0.8,0.8,0,0,0,0,1l0.2-.28,0.42,0.3Z"/><path class="cls-14" d="M142.54,65.56a0.89,0.89,0,0,0-1.27.14,0.8,0.8,0,0,0,.05,1l-0.16.23,0.39,0.28,0.3-.22a1.91,1.91,0,0,0,.9-1.08A0.42,0.42,0,0,0,142.54,65.56Z"/><path class="cls-14" d="M143.26,66.13l0.3-.23a1.72,1.72,0,0,0,.86-1,0.47,0.47,0,0,0-.17-0.42,0.79,0.79,0,0,0-1.17.2c-0.19.27-.55,0.43,0.15,1.09l-0.17.23Z"/><path class="cls-14" d="M145.2,62.1l0.27,0.22,0.18-.05a1.36,1.36,0,0,0,1-.8,0.65,0.65,0,0,0-.32-0.64,0.6,0.6,0,0,0-.64,0,1.14,1.14,0,0,0-.38.34A0.8,0.8,0,0,0,145.2,62.1Z"/><path class="cls-14" d="M147.81,59.39l0.45,0.33,0.17-.06a1.26,1.26,0,0,0,1-.76,0.68,0.68,0,0,0-.31-0.67,0.87,0.87,0,0,0-1.25.14,2.64,2.64,0,0,0,0,1Z"/><path class="cls-14" d="M149.88,59.37a0.63,0.63,0,0,0,.09.52l0.27,0.22,0.18-.05a1.36,1.36,0,0,0,1-.8,0.61,0.61,0,0,0,0-.22,0.54,0.54,0,0,0,0-.1,0.44,0.44,0,0,0-.18-0.4,0.8,0.8,0,0,0-1.19.2A0.68,0.68,0,0,0,149.88,59.37Z"/><path class="cls-14" d="M145.62,62.48a2.82,2.82,0,0,0-.11.91l-0.11.15,0.72,0.52,0.25-.2a1.82,1.82,0,0,0,.86-1.07,0.62,0.62,0,0,0-.29-0.44A1,1,0,0,0,145.62,62.48Z"/><path class="cls-14" d="M143.08,68l0.11-.15h0A0.75,0.75,0,0,0,144,68a0.74,0.74,0,0,0,.48-0.64,0.85,0.85,0,0,0-.36-0.8,0.78,0.78,0,0,0-.81-0.12,1,1,0,0,0-.56.76A0.84,0.84,0,0,0,143.08,68Z"/><path class="cls-14" d="M142.89,70.11a0.73,0.73,0,0,0-1.11.26c-0.19.27-.49,0.49,0.21,1.15l0.2-.27,0.06,0,0.12,0a1.25,1.25,0,0,0,.74-0.85A0.4,0.4,0,0,0,142.89,70.11Z"/><path class="cls-14" d="M145.64,69.62l0.21-.11a1.43,1.43,0,0,0,1-.83,0.66,0.66,0,0,0-.31-0.66,0.81,0.81,0,0,0-1.19.18,2.71,2.71,0,0,0,.05,1l-0.11.15Z"/><path class="cls-14" d="M146.77,65.72l0.51,0.37,0.18-.07a1.39,1.39,0,0,0,1-.81,0.66,0.66,0,0,0-.32-0.65,0.91,0.91,0,0,0-1.29.13,2.72,2.72,0,0,0,0,1Z"/><path class="cls-14" d="M151.12,63.5a0.58,0.58,0,0,0-.28-0.62,0.84,0.84,0,0,0-1.14,1.23l-0.09.12,0.25,0.18,0.22-.08A1.47,1.47,0,0,0,151.12,63.5Z"/><path class="cls-14" d="M152.7,62.64h0.08a0.78,0.78,0,0,0,.93-0.67,0.88,0.88,0,0,0-.71-1l-0.06.37V60.94a0.77,0.77,0,0,0-.75.26,0.91,0.91,0,0,0-.14.89,0.85,0.85,0,0,0,.3.4A0.88,0.88,0,0,0,152.7,62.64Z"/><path class="cls-14" d="M156.29,60.3a0.51,0.51,0,0,0-.22-0.43,0.85,0.85,0,0,0-1.23.17,2.74,2.74,0,0,0,0,1l-0.24.33,0.45,0.33,0.32-.29A2,2,0,0,0,156.29,60.3Z"/><path class="cls-14" d="M153.59,60.62l0.26-.17a1.64,1.64,0,0,0,.84-1,0.44,0.44,0,0,0-.18-0.41,0.76,0.76,0,0,0-1.14.23c-0.19.27-.52,0.46,0.18,1.13l-0.09.12Z"/><path class="cls-14" d="M159.89,59.74a0.8,0.8,0,0,0-1.18.2c-0.19.27-.62,0.39,0.08,1.05l-0.14.2L159,61.44l0.27-.22a1.85,1.85,0,0,0,.87-1.08A0.48,0.48,0,0,0,159.89,59.74Z"/><path class="cls-14" d="M167.56,63.19a0.72,0.72,0,0,0-.35-0.67,0.86,0.86,0,0,0-1.24.16,2.73,2.73,0,0,0,0,1l-0.28.38,0.52,0.37,0.28-.24A1.81,1.81,0,0,0,167.56,63.19Z"/><path class="cls-14" d="M168.25,64.85a0.83,0.83,0,0,0-.81-0.11,0.88,0.88,0,0,0-.52.71,0.78,0.78,0,0,0,.37.73l0.18-.24h0a0.69,0.69,0,0,0,.69.25,0.62,0.62,0,0,0,.44-0.59A0.82,0.82,0,0,0,168.25,64.85Z"/><path class="cls-14" d="M170.9,67.55l-0.32.44,0.32,0.23,0.32-.25a1.79,1.79,0,0,0,1.11-1,0.64,0.64,0,0,0-.29-0.66,0.83,0.83,0,0,0-1.21.17C170.64,66.79,170.2,66.89,170.9,67.55Z"/><path class="cls-14" d="M169,70l-0.19.27,0.34,0.24,0.3-.25a1.74,1.74,0,0,0,.85-1,0.52,0.52,0,0,0-.19-0.44,0.8,0.8,0,0,0-1.19.18C168.74,69.25,168.32,69.36,169,70Z"/><path class="cls-14" d="M168.28,62.86l-0.06.09,0.25,0.18,0.2-.07a1.4,1.4,0,0,0,1-.82,0.63,0.63,0,0,0-.31-0.64,0.8,0.8,0,0,0-1.18.2C168,62.06,167.58,62.19,168.28,62.86Z"/><path class="cls-14" d="M166.75,60.9l0.09-.13,0.4,0.29,0.12,0a1.26,1.26,0,0,0,1-.75,0.63,0.63,0,0,0-.32-0.62,0.88,0.88,0,0,0-1.26.16A0.78,0.78,0,0,0,166.75,60.9Z"/><path class="cls-14" d="M164.52,59.09l0.63,0.46,0.14,0a1.39,1.39,0,0,0,1-.82,0.72,0.72,0,0,0-.36-0.65,0.93,0.93,0,0,0-1.3.14,2.89,2.89,0,0,0-.11.93h0Z"/><path class="cls-14" d="M153.47,58.08l0.23-.32,0,0,0.06,0.14a1,1,0,0,0,.9-0.63,0.57,0.57,0,0,0-.29-0.61,0.75,0.75,0,0,0-1.13.25C153.08,57.2,152.77,57.42,153.47,58.08Z"/><path class="cls-14" d="M156.67,58.55l0.2-.27,0.39,0.29,0.06,0.1a1,1,0,0,0,.89-0.66,0.65,0.65,0,0,0-.32-0.64,0.86,0.86,0,0,0-1.24.17A2.77,2.77,0,0,0,156.67,58.55Z"/><path class="cls-14" d="M159.4,56.9l-0.07.1,0.6,0.43,0.2-.09a1.32,1.32,0,0,0,1-.78,0.66,0.66,0,0,0-.3-0.67,1,1,0,0,0-1.33.08A0.65,0.65,0,0,0,159.4,56.9Z"/><path class="cls-14" d="M155.49,56.1l-0.28.39,0.54,0.39,0.3-.23a1.72,1.72,0,0,0,1.09-.94,0.66,0.66,0,0,0-.31-0.67,0.93,0.93,0,0,0-1.3.11A2.65,2.65,0,0,0,155.49,56.1Z"/><path class="cls-14" d="M162.14,58.67l0.78,0.57,0.16-.07a1.37,1.37,0,0,0,1-.82,0.73,0.73,0,0,0-.35-0.67,1,1,0,0,0-1.36.08,3,3,0,0,0-.18.87Z"/><path class="cls-14" d="M160.67,60.45a0.73,0.73,0,0,0,0,1l-0.16.22L161,62l0.24-.14a1.6,1.6,0,0,0,1.06-.89,0.67,0.67,0,0,0-.33-0.65A0.89,0.89,0,0,0,160.67,60.45Z"/><path class="cls-14" d="M169,74.41l0.27,0.22,0.18-.05a1.36,1.36,0,0,0,1-.8,0.65,0.65,0,0,0-.32-0.64,0.6,0.6,0,0,0-.64,0,1.14,1.14,0,0,0-.38.34A0.8,0.8,0,0,0,169,74.41Z"/><path class="cls-14" d="M168.69,76a0.75,0.75,0,0,0,0,1l0.07-.09,0.43,0.31,0.13,0a1.25,1.25,0,0,0,1-.75,0.68,0.68,0,0,0-.34-0.65A0.88,0.88,0,0,0,168.69,76Z"/><path class="cls-14" d="M168.47,78.86l0.27,0.22,0.18-.05a1.36,1.36,0,0,0,1-.8,0.65,0.65,0,0,0-.32-0.64,0.6,0.6,0,0,0-.64,0,1.14,1.14,0,0,0-.38.34A0.8,0.8,0,0,0,168.47,78.86Z"/><path class="cls-14" d="M167.77,80.44a1.14,1.14,0,0,0-.38.34,0.8,0.8,0,0,0-.1,1L167.62,82l0.21-.14a1.53,1.53,0,0,0,.8-1A0.57,0.57,0,0,0,167.77,80.44Z"/><path class="cls-14" d="M166.34,83.84a1.36,1.36,0,0,0,1-.8A0.65,0.65,0,0,0,167,82.4a0.6,0.6,0,0,0-.64,0,1.14,1.14,0,0,0-.38.34,0.8,0.8,0,0,0-.1,1l0.27,0.22Z"/><path class="cls-14" d="M163.88,85.84l0.33,0.26,0.21-.14a1.53,1.53,0,0,0,.8-1,0.57,0.57,0,0,0-.86-0.45,1.14,1.14,0,0,0-.38.34A0.8,0.8,0,0,0,163.88,85.84Z"/><path class="cls-14" d="M161.7,88.29L162,88.51l0.25-.17a1.68,1.68,0,0,0,.84-1,0.47,0.47,0,0,0-.21-0.41,0.82,0.82,0,0,0-1.2.2c-0.19.27-.61,0.4,0.09,1.07Z"/><path class="cls-14" d="M152.95,87.32a0.9,0.9,0,0,0-1.27.14,2.75,2.75,0,0,0-.07.94l-0.12.17L152.06,89l0.21-.13a1.41,1.41,0,0,0,1-.83A0.73,0.73,0,0,0,152.95,87.32Z"/><path class="cls-14" d="M145.26,81.14a0.8,0.8,0,0,0-1.18.2c-0.19.27-.62,0.39,0.08,1.05l0.14-.2,0.33,0.24,0.13,0a1.22,1.22,0,0,0,.71-0.85A0.5,0.5,0,0,0,145.26,81.14Z"/><path class="cls-14" d="M144.21,74a0.79,0.79,0,0,0-1.18.21c-0.19.27-.55,0.44,0.15,1.11l0,0,0.13,0.09h0.17a1.27,1.27,0,0,0,1-.74A0.58,0.58,0,0,0,144.21,74Z"/><path class="cls-14" d="M147.92,81.21a0.6,0.6,0,0,0-.64,0,1.14,1.14,0,0,0-.38.34,0.8,0.8,0,0,0-.1,1l0.27,0.22,0.18-.05a1.36,1.36,0,0,0,1-.8A0.65,0.65,0,0,0,147.92,81.21Z"/><path class="cls-14" d="M148.18,83.09c-0.19.27-.67,0.36,0,1l0.13-.17,0.42,0.31,0.14,0a1.36,1.36,0,0,0,.75-0.91,0.47,0.47,0,0,0-.22-0.4A0.88,0.88,0,0,0,148.18,83.09Z"/><path class="cls-14" d="M146.82,79a0.8,0.8,0,0,0-1.18.2c-0.19.27-.62,0.39,0.08,1.05l0,0L146,80.5l0.21-.13a1.61,1.61,0,0,0,.82-1A0.47,0.47,0,0,0,146.82,79Z"/><path class="cls-14" d="M148.65,81a0.69,0.69,0,0,0-.06,1l0.09-.13,0.55,0.39,0.12,0a1.12,1.12,0,0,0,.92-0.7,0.73,0.73,0,0,0-.34-0.68A0.9,0.9,0,0,0,148.65,81Z"/><path class="cls-14" d="M151.91,82.47a1,1,0,0,0-1.33.1,2.87,2.87,0,0,0-.13.9l-0.11.15,0.7,0.51,0.2-.12a1.58,1.58,0,0,0,1-.9A0.72,0.72,0,0,0,151.91,82.47Z"/><path class="cls-14" d="M155.14,84.28a0.9,0.9,0,0,0-1.27.14,2.75,2.75,0,0,0-.07.94l-0.08.11,0.58,0.42,0.19-.1a1.39,1.39,0,0,0,1-.82A0.72,0.72,0,0,0,155.14,84.28Z"/><path class="cls-14" d="M155,87l0.51,0.37,0.12,0a1.23,1.23,0,0,0,1-.74,0.62,0.62,0,0,0-.32-0.62,1,1,0,0,0-1.32.11,0.72,0.72,0,0,0,0,1Z"/><path class="cls-14" d="M161.34,84.44a0.65,0.65,0,0,0-.32-0.64,0.6,0.6,0,0,0-.64,0,1.14,1.14,0,0,0-.38.34,0.8,0.8,0,0,0-.1,1l0.27,0.22,0.18-.05A1.36,1.36,0,0,0,161.34,84.44Z"/><path class="cls-14" d="M163.19,83.92a0.6,0.6,0,0,0-.64,0,1.14,1.14,0,0,0-.38.34,0.8,0.8,0,0,0-.1,1l0.27,0.22,0.18-.05a1.36,1.36,0,0,0,1-.8A0.65,0.65,0,0,0,163.19,83.92Z"/><path class="cls-14" d="M158.29,86.67l0.33,0.26,0.21-.14a1.53,1.53,0,0,0,.8-1,0.57,0.57,0,0,0-.86-0.45,1.14,1.14,0,0,0-.38.34A0.8,0.8,0,0,0,158.29,86.67Z"/><path class="cls-14" d="M164.9,82.67a0.62,0.62,0,0,0-.3-0.63,0.8,0.8,0,0,0-1.18.21c-0.19.27-.59,0.41,0.11,1.07l0.09-.12,0.22,0.16,0.12,0A1.17,1.17,0,0,0,164.9,82.67Z"/><path class="cls-14" d="M166.46,81.07a0.7,0.7,0,0,0-.34-0.66,0.88,0.88,0,0,0-1.25.15,2.73,2.73,0,0,0,0,1l-0.09.12L165.26,82l0.19-.1A1.45,1.45,0,0,0,166.46,81.07Z"/><path class="cls-14" d="M168.1,78.79a0.7,0.7,0,0,0-.34-0.66,0.88,0.88,0,0,0-1.25.15,2.73,2.73,0,0,0,0,1l0.23-.32,0.52,0.38,0,0.12A1,1,0,0,0,168.1,78.79Z"/><path class="cls-14" d="M165.63,85.93l0.27,0.22,0.18-.05a1.36,1.36,0,0,0,1-.8,0.65,0.65,0,0,0-.32-0.64,0.6,0.6,0,0,0-.64,0,1.14,1.14,0,0,0-.38.34A0.8,0.8,0,0,0,165.63,85.93Z"/><path class="cls-14" d="M169.37,83.45a0.94,0.94,0,0,0-1.31.11,2.77,2.77,0,0,0-.09.93l0,0L168.55,85l0.17-.06a1.4,1.4,0,0,0,1-.83A0.69,0.69,0,0,0,169.37,83.45Z"/><path class="cls-14" d="M169.44,81.35a0.81,0.81,0,0,0,.06,1l0.12-.17,0.31,0.22L170,82.5a1.12,1.12,0,0,0,.93-0.69,0.63,0.63,0,0,0-.31-0.64A0.84,0.84,0,0,0,169.44,81.35Z"/><path class="cls-14" d="M170.51,78.83c-0.19.27-.53,0.45,0.17,1.12l0,0.06,0.1,0.07,0.19-.06a1.47,1.47,0,0,0,1-.84,0.51,0.51,0,0,0-.27-0.58A0.8,0.8,0,0,0,170.51,78.83Z"/><path class="cls-14" d="M171.09,76.9a2.75,2.75,0,0,0-.07.94l0,0.05,0.58,0.42,0.17-.07a1.29,1.29,0,0,0,1-.78,0.7,0.7,0,0,0-.32-0.67A0.9,0.9,0,0,0,171.09,76.9Z"/><path class="cls-14" d="M170.73,74.8l-0.09.12,0.52,0.37,0.25-.18a1.66,1.66,0,0,0,.84-1,0.47,0.47,0,0,0-.2-0.41,0.93,0.93,0,0,0-1.3.12A0.73,0.73,0,0,0,170.73,74.8Z"/><path class="cls-14" d="M170.89,71.21l0.52,0.37h0.11a1.16,1.16,0,0,0,.92-0.72,0.7,0.7,0,0,0-.34-0.67,0.87,0.87,0,0,0-1.25.15,2.71,2.71,0,0,0,0,1Z"/><path class="cls-14" d="M160.06,91.13l0.33,0.26,0.21-.14a1.53,1.53,0,0,0,.8-1,0.57,0.57,0,0,0-.86-0.45,1.14,1.14,0,0,0-.38.34A0.8,0.8,0,0,0,160.06,91.13Z"/><path class="cls-14" d="M164.33,87.92A0.92,0.92,0,0,0,163,88,2.75,2.75,0,0,0,163,89l-0.1.14,0.58,0.42,0.2-.11a1.52,1.52,0,0,0,1-.87A0.69,0.69,0,0,0,164.33,87.92Z"/><path class="cls-14" d="M166.64,86.75a0.85,0.85,0,0,0-1.23.17,0.81,0.81,0,0,0,.06,1l0,0.07,0.31,0.22,0.19-.06a1.52,1.52,0,0,0,1-.85A0.59,0.59,0,0,0,166.64,86.75Z"/><path class="cls-14" d="M153.94,89.71a1.05,1.05,0,0,0-1.39,0,3.1,3.1,0,0,0-.19.86l-0.16.23L153,91.44l0.23-.16a1.51,1.51,0,0,0,1-.87A0.72,0.72,0,0,0,153.94,89.71Z"/><path class="cls-14" d="M150.93,87.58a0.87,0.87,0,0,0-1.25.15,2.74,2.74,0,0,0-.05,1l-0.14.19L150,89.28l0.22-.14a1.46,1.46,0,0,0,1-.85A0.73,0.73,0,0,0,150.93,87.58Z"/><path class="cls-14" d="M149,86a0.6,0.6,0,0,0-.64,0,1.14,1.14,0,0,0-.38.34,0.8,0.8,0,0,0-.1,1l0.27,0.22,0.18-.05a1.36,1.36,0,0,0,1-.8A0.65,0.65,0,0,0,149,86Z"/><path class="cls-14" d="M146.51,86.74l0.26-.24a1.68,1.68,0,0,0,.82-1,0.6,0.6,0,0,0-.24-0.47A1,1,0,0,0,146,85a3.09,3.09,0,0,0-.2.84l-0.15.21Z"/><path class="cls-14" d="M146,78.09l0.25-.19a1.6,1.6,0,0,0,.81-1,0.52,0.52,0,0,0-.21-0.44,0.77,0.77,0,0,0-1.16.21c-0.19.27-.6,0.39,0.1,1.06l-0.1.14Z"/><path class="cls-14" d="M142.95,76.43a0.6,0.6,0,0,0-.64,0,1.14,1.14,0,0,0-.38.34,0.8,0.8,0,0,0-.1,1l0.27,0.22,0.18-.05a1.36,1.36,0,0,0,1-.8A0.65,0.65,0,0,0,142.95,76.43Z"/><path class="cls-14" d="M141.27,89.65a0.9,0.9,0,0,0-1.27.14,2.77,2.77,0,0,0-.09.93l0,0.06,0.6,0.44,0.17-.08a1.42,1.42,0,0,0,1-.84A0.73,0.73,0,0,0,141.27,89.65Z"/><path class="cls-14" d="M156.4,104.71a0.78,0.78,0,0,0-1.16.22c-0.19.27-.56,0.43,0.14,1.09l0.24-.33,0.22,0.16,0.09,0.05a1.14,1.14,0,0,0,.7-0.82A0.43,0.43,0,0,0,156.4,104.71Z"/><path class="cls-14" d="M144.21,114a0.93,0.93,0,0,0-1.3.12,0.73,0.73,0,0,0,0,1l0.17-.24,0.52,0.37h0.12a1.26,1.26,0,0,0,.73-0.87A0.44,0.44,0,0,0,144.21,114Z"/><path class="cls-14" d="M168.6,109.54a0.65,0.65,0,0,0-.32-0.64,0.6,0.6,0,0,0-.64,0,1.14,1.14,0,0,0-.38.34,0.8,0.8,0,0,0-.1,1l0.27,0.22,0.18-.05A1.36,1.36,0,0,0,168.6,109.54Z"/><path class="cls-14" d="M169.24,88.66a1,1,0,0,0-1.34.09,2.83,2.83,0,0,0-.12.91l0,0,0.67,0.48,0.17-.06a1.49,1.49,0,0,0,1-.86A0.68,0.68,0,0,0,169.24,88.66Z"/><path class="cls-14" d="M134.84,80.47a0.89,0.89,0,0,0-1.27.14,2.73,2.73,0,0,0,0,1l0-.06,0.54,0.39,0.17-.09a1.51,1.51,0,0,0,.79-1A0.48,0.48,0,0,0,134.84,80.47Z"/><path class="cls-7" d="M135.74,99.16a2.72,2.72,0,0,1-2.31.79,2.79,2.79,0,0,1-2-1.3,3.81,3.81,0,0,1-.83-1.69,3.68,3.68,0,0,1-.05-1.22l0.71-6.07c0.25-2.08,1.66-3.57,3.73-3.33a2.61,2.61,0,0,1,2.15,1.06,4.6,4.6,0,0,1,.69,3.15l-0.71,6.07A3.8,3.8,0,0,1,135.74,99.16Z"/><path class="cls-7" d="M151.73,115.05a2.72,2.72,0,0,1-1.68-1.78,2.79,2.79,0,0,1,.37-2.32,3.81,3.81,0,0,1,1.19-1.45,3.68,3.68,0,0,1,1.08-.55l5.82-1.87c2-.64,3.93,0,4.57,2a2.61,2.61,0,0,1-.07,2.4,4.6,4.6,0,0,1-2.58,1.94l-5.82,1.87A3.8,3.8,0,0,1,151.73,115.05Z"/><path class="cls-7" d="M173.76,99.3a2.72,2.72,0,0,1-2.45,0,2.79,2.79,0,0,1-1.42-1.87,3.81,3.81,0,0,1-.22-1.87,3.68,3.68,0,0,1,.35-1.17l2.66-5.5c0.92-1.88,2.74-2.82,4.61-1.92A2.61,2.61,0,0,1,179,88.68a4.6,4.6,0,0,1-.38,3.2l-2.66,5.5A3.8,3.8,0,0,1,173.76,99.3Z"/></svg>