<?xml version="1.0" encoding="utf-8"?>
<!-- Generator: Adobe Illustrator 19.2.1, SVG Export Plug-In . SVG Version: 6.00 Build 0)  -->
<svg version="1.1" id="Layer_1" xmlns="http://www.w3.org/2000/svg" xmlns:xlink="http://www.w3.org/1999/xlink" x="0px" y="0px"
	 viewBox="0 0 235.4 188.7" style="enable-background:new 0 0 235.4 188.7;" xml:space="preserve">
<style type="text/css">
	.st0{fill:#A1E2E0;}
	.st1{fill:#22A6B3;}
	.st2{fill:#6FD1A0;}
	.st3{fill:#8FD8D5;}
	.st4{fill:#7ED6DF;}
	.st5{fill:#2D98DA;}
	.st6{fill:#0F5659;}
	.st7{fill:#D91EF4;}
	.st8{fill:#897BEF;}
	.st9{fill:#785EEA;}
	.st10{fill:#744DEF;}
	.st11{fill:#703BF2;}
	.st12{fill:#6B25F2;}
	.st13{fill:#D279F7;}
	.st14{fill:#57BC87;}
	.st15{fill:#1C83B7;}
	.st16{fill:#187C7C;}
</style>
<title>logo</title>
<g>
	<g>
		<g>
			
				<rect x="112.4" y="89" transform="matrix(0.8645 -0.5026 0.5026 0.8645 -28.2137 75.9209)" class="st0" width="28.6" height="2.6"/>
			
				<rect x="111.5" y="79.1" transform="matrix(0.8644 -0.5029 0.5029 0.8644 -23.9614 72.2676)" class="st1" width="20.9" height="2.9"/>
			
				<rect x="70.6" y="14.5" transform="matrix(0.8645 -0.5026 0.5026 0.8645 3.8419 46.1534)" class="st2" width="33.8" height="2.9"/>
			<rect x="76.6" y="20.5" transform="matrix(0.8644 -0.5029 0.5029 0.8644 1.5342 49.2864)" class="st1" width="31" height="2.6"/>
			
				<rect x="92.7" y="33.7" transform="matrix(0.8644 -0.5029 0.5029 0.8644 -3.9295 55.752)" class="st3" width="17.3" height="2.9"/>
			
				<rect x="107.3" y="59.1" transform="matrix(0.8644 -0.5029 0.5029 0.8644 -14.6074 66.9429)" class="st4" width="18.9" height="2.9"/>
			
				<rect x="93.6" y="42.1" transform="matrix(0.8644 -0.5029 0.5029 0.8644 -7.4763 59.065)" class="st2" width="24.2" height="2.6"/>
			
				<rect x="98.9" y="52.5" transform="matrix(0.8645 -0.5026 0.5026 0.8645 -11.9472 63.2959)" class="st1" width="25" height="2.6"/>
			<path class="st5" d="M92,41c1.3-0.4,2.7-0.8,4-1.1c-0.2,2.6-0.1,5.2,0.5,7.8c1.5,6.3,5.2,11.8,10.6,15.4
				c3.9,2.7,8.8,4.3,13.4,5.9c7,2.4,14.3,4.8,19.2,10.8c2.6,3.1,4.6,6.8,5.8,10.7l-3.9,2.2c-1.2-3.5-2.4-7.2-5-10.4
				c-4.1-5.1-10.6-7.3-17.4-9.6c-4.9-1.7-10-3.4-14.4-6.3c-6.2-4.2-10.5-10.5-12.2-17.8C92.1,46.1,91.9,43.5,92,41z"/>
			<path class="st6" d="M112.3,74.8c1.5-2.6,3.3-5,5.3-7.3c2.9-3.5,5.7-6.8,6.2-10.8c0.5-3.7-0.9-7.9-4.2-12.7
				c-6.1-8.8-14.5-13.9-22.3-13.8c-2.2,0.1-4.4,0.4-6.6,0.9c-2.4,0.5-4.8,0.9-7.3,1c-5.7,0.1-11.7-8.6-14-12.9l3.4-1.9
				c1.7,3.2,7.1,10.5,11,10.5c2,0,4-0.2,6-0.5c2.4-0.5,4.8-0.9,7.2-1c9.2-0.2,18.8,5.6,25.6,15.5c4,5.7,5.6,10.8,4.9,15.5
				c-0.7,5.1-4,9-7.1,12.8c-1.8,2-3.4,4.3-4.8,6.6c-4.6,8.4-0.2,21.4,8,26.5l-3.8,2.2C110.1,99.4,106.8,84.9,112.3,74.8z"/>
			<path class="st5" d="M96,27.3c0.8-1.3,1.6-2.5,2.4-3.7c2-2.9,4-5.7,4.2-8.9c0.3-2.9-2.9-9-5.1-12.7l3.4-2c2,3.4,6,10.7,5.6,15
				c-0.4,4.2-2.7,7.5-4.9,10.8c-0.8,1.2-1.6,2.3-2.3,3.5c-1.9,3.3-3.1,7-3.4,10.9c-1.3,0.4-2.7,0.6-4,1C92.2,36.2,93.6,31.5,96,27.3
				z"/>
		</g>
		<g>
			<path class="st3" d="M124.5,101l-19.8-34.3V44.4h1.2c0.6,0,0.8,0.4,0.8-0.2v-0.4c0-0.6-0.2-2.3-0.8-2.3H88.4
				c-0.6,0-0.7,1.7-0.7,2.3v0.4c0,0.6,0,0.2,0.7,0.2h1.4v22.4l-20,34.2c-5.4,9.4,1.2,21.3,12.1,21.3h30.4
				c7.8-0.1,14.2-6.5,14.1-14.3C126.4,105.5,125.7,103.1,124.5,101z"/>
			<path class="st7" d="M111.3,84.6c-0.2-0.4-0.6-0.6-1-0.7c-1.1-0.1-2.2-0.4-3.3-0.4c-3.6-0.1-2.5,0.7-6.1,0.3s-5.6-1.2-10.3-1
				c-1.9,0.1-3.9,0.4-5.8,0.4c-0.5,0-1,0.3-1.2,0.7l-6.9,12l-3.3,5.7c-3.2,5.5-1.3,12.5,4.2,15.7c1.8,1,3.8,1.6,5.8,1.5h27.7
				c6.4,0,11.5-5.1,11.5-11.5c0-2-0.5-4-1.5-5.8L111.3,84.6z"/>
		</g>
		<circle class="st3" cx="91.3" cy="106.5" r="1.4"/>
		<circle class="st3" cx="100.6" cy="100.8" r="0.7"/>
		<circle class="st3" cx="92.4" cy="97.8" r="1.1"/>
		<circle class="st3" cx="105.4" cy="108.2" r="0.5"/>
		<g>
			<path class="st6" d="M104.4,64.2c-1.3,3-2.2,6.2-2.6,9.5l-1.6,9.2c-1.2,6.7-2.4,13.5-1.5,20.2c0.8,6.4,5.5,14.8,10.1,19.4
				s12.7,4.3,19.1,3.8s12.3-3.8,17.7-7.4c2.4-1.6,4.9-3.5,5.6-6.2c0.7-2.4-0.2-5.1,0.4-7.6c1.1-4.1,5.9-6.2,7.6-10.1
				c2-4.7-1-9.8-2.8-14.5c-2.1-5.6-2.6-11.7-3.7-17.5s-3.4-8.3-7.9-12.2c-6.7-5.8-13.1-6.7-19.4-2.3S107.9,57.2,104.4,64.2z"/>
			<path class="st2" d="M107.3,66.8c-1.2,2.7-2,5.5-2.3,8.3l-1.4,8.1c-1,5.9-2.1,11.9-1.3,17.8c0.7,5.7,4.9,13.1,8.9,17.1
				s11.2,3.8,16.9,3.4s10.9-3.4,15.6-6.5c2.1-1.4,4.3-3.1,5-5.5c0.6-2.2-0.2-4.5,0.4-6.7c0.9-3.6,5.2-5.5,6.7-8.9
				c1.8-4.1-0.9-8.6-2.4-12.8c-1.9-4.9-2.3-10.3-3.3-15.5s-3-6.9-7-10.3c-5.9-5.1-11.6-6.4-17.1-2.4S110.4,60.6,107.3,66.8z"/>
			<path class="st7" d="M139.9,68.3c-0.9-2.3-3-5.7-5.8-5.6c-2.4,0-4.9,0.3-7.2,1c-2.4,0.7-4.3,2.5-5.2,4.7
				c-0.5,1.6-0.5,3.3-0.1,4.9c0.4,3,1.8,5.8,3.9,8c2.2,2.1,5.6,3,8.4,1.7c1.5-0.9,2.8-2.1,3.8-3.5c1.5-2,3-4.1,3.2-6.6
				C140.8,71.4,140.5,69.8,139.9,68.3z"/>
			<path class="st0" d="M123.7,64c-0.5,0.3-1,0.6-1.4,1c-1.5,1.5-1.6,4.1-3.3,5.5c-0.1,0.1-0.2,0.1-0.3,0.1c-0.3,0-0.3-0.4-0.3-0.6
				c0.3-1.4,0.8-2.8,1.5-4.1c0.2-0.2,0.3-0.6,0.2-0.9c-0.2-0.2-0.5-0.3-0.8-0.2c-0.3,0.1-0.5,0.3-0.6,0.6c-1.6,2-3,4.5-2.7,7.1
				c0,0.1,0,0.1,0,0.2h-0.1c-0.5,0-1-0.3-1.2-0.7c-0.2-0.5-0.3-0.9-0.2-1.4c0-0.8,0.1-1.5,0.3-2.2c0.4-1,0.9-1.9,1.6-2.7l2.5-3.3
				c0.8-1.3,1.9-2.4,3.2-3.2c0.4-0.3,1.1-0.3,1.5,0c0.2,0.4,0.2,1-0.1,1.4c-0.4,0.6-0.9,1.2-1.6,1.6c-0.4,0.2-0.8,0.5-1.2,0.8
				c-0.3,0.4-0.3,0.9,0,1.3h0.1c0.2,0.1,0.3-0.2,0.4-0.3c0.2-0.4,0.6-0.7,1.1-0.9c0.4-0.2,0.9-0.3,1.3-0.5c0.6-0.3,1.1-0.7,1.6-1.1
				c1.3-1,2.9-1.4,4.5-0.9c0.1,0,0.1,0.1,0.2,0.1c0,0.1,0,0.2,0,0.3c-0.1,0.5-0.5,0.8-1,0.9c-0.2,0-0.4,0-0.6,0
				c-0.3,0.1-0.6,0.2-0.9,0.3C126,62.6,124.8,63.3,123.7,64z"/>
			
				<rect x="123.9" y="100" transform="matrix(0.9606 -0.2778 0.2778 0.9606 -22.7507 39.9211)" class="st8" width="11.1" height="0.5"/>
			
				<rect x="123.8" y="99.7" transform="matrix(0.9606 -0.2778 0.2778 0.9606 -22.673 39.8813)" class="st9" width="11.1" height="0.5"/>
			
				<rect x="124" y="100.3" transform="matrix(0.9606 -0.2778 0.2778 0.9606 -22.8299 39.9598)" class="st9" width="11.1" height="0.5"/>
			
				<rect x="123.8" y="99.3" transform="matrix(0.9606 -0.2778 0.2778 0.9606 -22.5607 39.8662)" class="st10" width="11.1" height="0.5"/>
			
				<rect x="124.1" y="100.6" transform="matrix(0.9606 -0.2778 0.2778 0.9606 -22.9098 39.9984)" class="st10" width="11.1" height="0.5"/>
			<rect x="124.3" y="100.5" transform="matrix(0.96 -0.28 0.28 0.96 -23.0178 40.3742)" class="st11" width="11.1" height="0.5"/>
			
				<rect x="123.6" y="99.8" transform="matrix(0.9606 -0.2778 0.2778 0.9606 -22.7087 39.8294)" class="st11" width="11.1" height="0.5"/>
			
				<rect x="123.4" y="100.1" transform="matrix(0.9606 -0.2778 0.2778 0.9606 -22.7984 39.7846)" class="st12" width="11.1" height="0.5"/>
			
				<rect x="114.1" y="96.7" transform="matrix(0.5922 -0.8058 0.8058 0.5922 -29.0864 136.3562)" class="st8" width="12.2" height="0.5"/>
			
				<rect x="114.4" y="97" transform="matrix(0.5922 -0.8058 0.8058 0.5922 -29.2116 136.7368)" class="st9" width="12.2" height="0.5"/>
			
				<rect x="113.6" y="96.5" transform="matrix(0.5922 -0.8058 0.8058 0.5922 -29.1395 135.93)" class="st9" width="12.2" height="0.5"/>
			
				<rect x="114.6" y="97.2" transform="matrix(0.5922 -0.8058 0.8058 0.5922 -29.3041 137.0193)" class="st10" width="12.2" height="0.5"/>
			
				<rect x="113.4" y="96.4" transform="matrix(0.5922 -0.8058 0.8058 0.5922 -29.1755 135.6975)" class="st10" width="12.2" height="0.5"/>
			
				<rect x="113.9" y="96.4" transform="matrix(0.5922 -0.8058 0.8058 0.5922 -28.9636 136.0929)" class="st11" width="12.2" height="0.5"/>
			
				<rect x="114.5" y="96.8" transform="matrix(0.5922 -0.8058 0.8058 0.5922 -29.0101 136.7343)" class="st11" width="12.2" height="0.5"/>
			
				<rect x="114.4" y="96.3" transform="matrix(0.5922 -0.8058 0.8058 0.5922 -28.6501 136.4166)" class="st12" width="12.2" height="0.5"/>
			
				<rect x="113.3" y="105.9" transform="matrix(0.989 -0.1482 0.1482 0.989 -15.1884 18.0537)" class="st7" width="0.6" height="10.1"/>
			
				<rect x="111.9" y="106.1" transform="matrix(0.9717 -0.2362 0.2362 0.9717 -23.0796 29.6356)" class="st7" width="0.6" height="10.1"/>
			<path class="st5" d="M108.8,99.1c-0.6,0.6-1.5,0.9-2.3,0.8s-1.6-0.6-2-1.3c-0.4-0.5-0.7-1.1-0.8-1.7c-0.1-0.4-0.1-0.8-0.1-1.2
				l0.7-6.1c0.3-2.1,1.7-3.6,3.7-3.3c0.8,0,1.6,0.4,2.1,1.1c0.6,0.9,0.8,2.1,0.7,3.2l-0.7,6.1C110.1,97.5,109.6,98.4,108.8,99.1z"/>
			<path class="st5" d="M124.8,115c-0.8-0.3-1.4-1-1.7-1.8c-0.2-0.8-0.1-1.6,0.4-2.3c0.3-0.6,0.7-1.1,1.2-1.4
				c0.3-0.2,0.7-0.4,1.1-0.6l5.8-1.9c2-0.6,3.9,0,4.6,2c0.4,0.8,0.3,1.7-0.1,2.4c-0.6,0.9-1.5,1.6-2.6,1.9l-5.8,1.9
				C126.8,115.5,125.7,115.4,124.8,115z"/>
			<path class="st5" d="M146.9,99.2c-0.8,0.4-1.7,0.4-2.4,0s-1.2-1.1-1.4-1.9c-0.2-0.6-0.3-1.2-0.2-1.9c0.1-0.4,0.2-0.8,0.4-1.2
				l2.7-5.5c0.9-1.9,2.7-2.8,4.6-1.9c0.8,0.3,1.5,0.9,1.7,1.7c0.3,1.1,0.1,2.2-0.4,3.2l-2.7,5.5C148.6,98.2,147.8,98.9,146.9,99.2z"
				/>
			<path class="st0" d="M129.2,57c-0.4,0-0.7,0.2-1,0.3c-0.3,0.2-0.5,0.6-0.4,1c0.1,0.3,0.4,0.5,0.7,0.5c1.4,0.5,3-0.1,4.5-0.1
				c1.2,0.1,2.3,0.4,3.4,0.9c0.2,0.1,0.5,0.2,0.6,0.4c0.2,0.2,0.2,0.5,0.1,0.7c-0.2,0.2-0.5,0.3-0.8,0.2c-0.6-0.1-1.3-0.3-1.9-0.3
				c-0.6-0.1-1.3,0-1.9,0.3c-0.1,0-0.1,0.1-0.1,0.2c0,0,0,0.1,0,0.2c0.2,0.7,0.7,1.2,1.4,1.2c0.3,0,0.7-0.1,1-0.1
				c0.9,0,1.7,0.1,2.5,0.5c0.5,0.1,0.9,0.3,1.3,0.5c1,0.8,1.8,1.9,2.3,3.1c0.6,1,1,2.1,1.3,3.2c0,0.2,0.1,0.4,0.2,0.6
				c0.3,0.2,0.7,0.2,0.9-0.1c0.5-0.7,0.5-1.5,0.1-2.2c-0.9-2.4-2.6-4.4-4.7-5.7c-0.1-0.1-0.2-0.2-0.2-0.3s0-0.2,0-0.4l0.2-1l3.1,3.4
				c0.4,0.4,0.7,0.8,1,1.2c0.4,0.7,0.6,1.5,0.8,2.3c0,0.2,0.1,0.3,0.3,0.3c0.1,0,0.2,0,0.3-0.1l0,0c0.8-0.6,0.9-1.7,0.4-2.4l0,0
				l-3.9-4.3c-0.7-0.7-1.4-1.3-2.2-1.9c-1.4-1.2-3.3-1.5-5-2.2C131.9,56.3,130.6,56.8,129.2,57z"/>
			<path class="st0" d="M123.3,84.1c-0.2-0.3-0.1-0.8,0.2-1c0.2-0.1,0.5-0.2,0.7,0c0.6,0.3,1.1,0.6,1.6,0.9c0.6,0.4,1.1,0.8,1.8,1.2
				c1.6,1.1,3.6,1.6,5.5,1.5c2-0.1,3.8-0.9,5.2-2.3c1.5-1.7,2.6-3.8,3-6c0.1-0.2,0.3-0.4,0.6-0.3c0.2,0,0.3,0.2,0.3,0.3
				c0.1,0.5,0.1,1,0,1.4c-0.5,2.6-1.9,4.8-4,6.4c0.2,0.3,0.5,0.6,0.9,0.8c3.1-3,4.9-7.1,5.2-11.4c0.1-0.4,0.1-0.9,0-1.3
				c0-0.2,0.1-0.4,0.3-0.5c0.1,0,0.2,0,0.3,0c0.6,0.3,1.1,0.9,1.4,1.5c0.2,1.6-0.9,3-1.1,4.5c-0.4,2.5-1.6,4.8-3.3,6.6
				c-1.7,1.8-3.7,3.3-6,4.3c-0.8,0.4-1.6,0.7-2.4,1.1c-0.6,0.3-1.4,0.4-1.7-0.2c0.4-0.9,1.1-1.5,2-1.9l3.7-2.1
				c-0.2-0.5-0.7-0.9-1.3-0.8c-0.5,0.1-1,0.3-1.5,0.6c-1.9,1-4.2,1-6.1,0l-0.7,1.7c0.6,0.5,1.4,1,2.1,1.3c0.6,0.4,0.8,1.2,0.1,1.4
				l-0.3,0.1c-0.6,0.1-0.9-0.5-1.5-0.7c-1.9-0.6-3.6-1.7-5-3.1c-0.6-0.7-1.2-1.4-1.8-2.1c-0.8-1.1-1.8-2.5-2.6-3.7
				c-0.4-0.6-0.8-1.4-0.3-1.8c0.7,0,1.4,0.3,1.8,0.9c0.4,0.6,0.7,1.2,1,1.8c1.2,2.1,2.9,4,4.9,5.3c0.1,0.1,0.3,0.2,0.5,0.1
				c0.1-0.1,0.1-0.1,0.2-0.2l0.6-1C126.2,86.6,124,85.6,123.3,84.1z"/>
			<path class="st13" d="M118.8,71c0.1-0.2-0.1-0.5-0.3-0.6c-0.4-0.3-0.9-0.2-1.2,0.1c-0.3,0.3-0.3,0.8,0,1.1l-0.2,0.3l0.3,0.2
				l0.3-0.2C118.1,71.8,118.5,71.4,118.8,71z"/>
			<path class="st13" d="M114.3,70.4c0.4-0.2,0.6-0.5,0.7-0.8c0-0.2-0.1-0.3-0.2-0.4c-0.4-0.3-1-0.3-1.3,0.1c-0.2,0.3-0.2,0.7,0,1
				l0.2-0.3l0.4,0.3L114.3,70.4z"/>
			<path class="st13" d="M115.6,65.5c-0.4-0.3-0.9-0.3-1.3,0.1l0,0c-0.2,0.3-0.2,0.7,0.1,1l-0.2,0.2l0.4,0.3l0.3-0.2
				c0.4-0.2,0.7-0.6,0.9-1.1C115.8,65.7,115.8,65.5,115.6,65.5z"/>
			<path class="st13" d="M116.4,66l0.3-0.2c0.4-0.2,0.7-0.6,0.9-1c0-0.2,0-0.3-0.2-0.4c-0.3-0.3-0.8-0.2-1.1,0.1c0,0,0,0.1-0.1,0.1
				c-0.2,0.3-0.6,0.4,0.1,1.1l-0.2,0.2L116.4,66z"/>
			<path class="st13" d="M118.3,62l0.3,0.2h0.2c0.4-0.1,0.8-0.4,1-0.8c0-0.3-0.1-0.5-0.3-0.6s-0.4-0.1-0.6,0
				c-0.2,0.1-0.3,0.2-0.4,0.3C118.2,61.3,118.1,61.7,118.3,62z"/>
			<path class="st13" d="M120.9,59.3l0.4,0.3l0.2-0.1c0.4-0.1,0.8-0.3,1-0.8c0-0.3-0.1-0.5-0.3-0.7c-0.4-0.3-0.9-0.3-1.2,0.1l0,0
				C120.9,58.6,120.9,58.9,120.9,59.3L120.9,59.3z"/>
			<path class="st13" d="M123,59.3c0,0.2,0,0.4,0.1,0.5l0.3,0.2h0.2c0.4-0.1,0.8-0.4,1-0.8c0-0.1,0-0.1,0-0.2v-0.1
				c0-0.2-0.1-0.3-0.2-0.4c-0.3-0.3-0.8-0.2-1.1,0.1c0,0,0,0.1-0.1,0.1C123,58.8,122.9,59,123,59.3z"/>
			<path class="st13" d="M118.7,62.4c-0.1,0.3-0.1,0.6-0.1,0.9l-0.1,0.2l0.7,0.5l0.3-0.2c0.4-0.2,0.7-0.6,0.9-1.1
				c0-0.2-0.1-0.3-0.3-0.4C119.6,62,119.1,62,118.7,62.4z"/>
			<path class="st13" d="M116.2,67.9l0.1-0.2l0,0c0.2,0.2,0.5,0.3,0.8,0.2c0.3-0.1,0.5-0.4,0.5-0.6c0-0.3-0.1-0.6-0.4-0.8
				c-0.2-0.2-0.5-0.2-0.8-0.1s-0.5,0.4-0.6,0.8C115.8,67.4,115.9,67.7,116.2,67.9z"/>
			<path class="st13" d="M116,70c-0.3-0.2-0.8-0.2-1,0.1l-0.1,0.1c-0.2,0.3-0.5,0.5,0.2,1.2l0.2-0.3h0.1h0.1
				c0.4-0.1,0.6-0.5,0.7-0.8C116.2,70.2,116.1,70.1,116,70z"/>
			<path class="st13" d="M118.7,69.5l0.2-0.1c0.4-0.1,0.8-0.4,1-0.8c0-0.3-0.1-0.5-0.3-0.7c-0.3-0.3-0.9-0.2-1.1,0.1
				c0,0,0,0-0.1,0.1c0,0.3,0,0.7,0.1,1l-0.1,0.2L118.7,69.5z"/>
			<path class="st13" d="M119.9,65.6l0.5,0.4l0.2-0.1c0.4-0.1,0.8-0.4,1-0.8c0-0.3-0.1-0.5-0.3-0.7c-0.4-0.3-1-0.3-1.3,0.1l0,0
				C119.9,64.9,119.9,65.3,119.9,65.6L119.9,65.6z"/>
			<path class="st13" d="M124.2,63.4c0.1-0.2-0.1-0.5-0.3-0.6c-0.4-0.3-0.9-0.2-1.2,0.1s-0.3,0.8,0,1.1l-0.1,0.1l0.3,0.2l0.2-0.1
				C123.6,64.1,124,63.8,124.2,63.4z"/>
			<path class="st13" d="M125.8,62.5L125.8,62.5c0.5,0.1,0.9-0.2,1-0.6c0,0,0,0,0-0.1c0.1-0.5-0.2-0.9-0.7-1l-0.1,0.4v-0.4
				c-0.3-0.1-0.6,0-0.8,0.3s-0.3,0.6-0.1,0.9c0.1,0.2,0.2,0.3,0.3,0.4C125.6,62.5,125.7,62.5,125.8,62.5z"/>
			<path class="st13" d="M129.4,60.2c0-0.2-0.1-0.3-0.2-0.4c-0.4-0.3-0.9-0.2-1.2,0.1l0,0c-0.1,0.3-0.1,0.7,0,1l-0.2,0.3l0.4,0.3
				l0.3-0.3C128.9,61.1,129.2,60.7,129.4,60.2z"/>
			<path class="st13" d="M126.7,60.5l0.3-0.2c0.4-0.2,0.7-0.6,0.8-1c0-0.2,0-0.3-0.2-0.4c-0.3-0.3-0.8-0.2-1.1,0.1l-0.1,0.1
				c-0.2,0.3-0.5,0.5,0.2,1.1l-0.1,0.1L126.7,60.5z"/>
			<path class="st13" d="M133,59.6c-0.3-0.3-0.8-0.2-1.1,0.1c0,0,0,0.1-0.1,0.1c-0.2,0.3-0.6,0.4,0.1,1l-0.1,0.2l0.3,0.2l0.3-0.2
				c0.4-0.2,0.7-0.6,0.9-1.1C133.2,59.9,133.1,59.7,133,59.6z"/>
			<path class="st13" d="M140.7,63.1c0-0.3-0.1-0.5-0.4-0.7c-0.4-0.3-0.9-0.2-1.2,0.1l0,0c-0.1,0.3-0.1,0.7,0,1l-0.3,0.4l0.5,0.4
				l0.3-0.2C140.1,63.9,140.5,63.6,140.7,63.1z"/>
			<path class="st13" d="M141.4,64.7c-0.2-0.2-0.5-0.2-0.8-0.1s-0.5,0.4-0.5,0.7c0,0.3,0.1,0.6,0.4,0.7l0.2-0.2l0,0
				c0.2,0.2,0.4,0.3,0.7,0.3c0.3-0.1,0.4-0.3,0.4-0.6C141.7,65.2,141.6,64.9,141.4,64.7z"/>
			<path class="st13" d="M144,67.5l-0.3,0.4l0.3,0.2l0.3-0.3c0.5-0.2,0.9-0.5,1.1-1c0-0.3-0.1-0.5-0.3-0.7c-0.4-0.3-0.9-0.2-1.2,0.1
				c0,0,0,0,0,0.1C143.7,66.7,143.3,66.8,144,67.5z"/>
			<path class="st13" d="M142.1,69.9l-0.2,0.3l0.3,0.2l0.3-0.3c0.4-0.2,0.7-0.6,0.9-1c0-0.2-0.1-0.3-0.2-0.4
				c-0.3-0.3-0.8-0.2-1.1,0.1c0,0,0,0.1-0.1,0.1C141.8,69.2,141.4,69.3,142.1,69.9z"/>
			<path class="st13" d="M141.4,62.8L141.4,62.8l0.2,0.3l0.2-0.1c0.4-0.1,0.8-0.4,1-0.8c0-0.3-0.1-0.5-0.3-0.6
				c-0.3-0.3-0.8-0.2-1.1,0.1c0,0,0,0.1-0.1,0.1C141.1,62,140.7,62.1,141.4,62.8z"/>
			<path class="st13" d="M139.9,60.8l0.1-0.1l0.4,0.3h0.1c0.4-0.1,0.8-0.3,1-0.8c0-0.3-0.1-0.5-0.3-0.6c-0.4-0.3-0.9-0.2-1.2,0.1
				l0,0C139.6,60,139.6,60.5,139.9,60.8z"/>
			<path class="st13" d="M137.6,59l0.6,0.5h0.1c0.4-0.1,0.8-0.4,1-0.8c0-0.3-0.1-0.5-0.4-0.7c-0.4-0.3-1-0.3-1.3,0.1
				C137.6,58.4,137.6,58.7,137.6,59L137.6,59L137.6,59z"/>
			<path class="st13" d="M126.6,58l0.2-0.3l0,0l0.1,0.1c0.4,0,0.8-0.3,0.9-0.6c0-0.2-0.1-0.5-0.3-0.6c-0.3-0.3-0.8-0.2-1.1,0.1
				l-0.1,0.1C126.2,57.1,125.9,57.3,126.6,58z"/>
			<path class="st13" d="M129.8,58.4l0.2-0.3l0.4,0.3l0.1,0.1c0.4,0,0.8-0.3,0.9-0.7c0-0.3-0.1-0.5-0.3-0.6
				c-0.4-0.3-0.9-0.2-1.2,0.1l0,0C129.7,57.8,129.7,58.1,129.8,58.4z"/>
			<path class="st13" d="M132.5,56.8L132.5,56.8l0.5,0.5l0.2-0.1c0.4-0.1,0.8-0.4,1-0.8c0-0.3-0.1-0.5-0.3-0.7
				c-0.4-0.3-1-0.3-1.3,0.1C132.3,56.1,132.3,56.5,132.5,56.8L132.5,56.8z"/>
			<path class="st13" d="M128.6,56l-0.3,0.4l0.5,0.4l0.3-0.2c0.5-0.1,0.9-0.5,1.1-0.9c0-0.3-0.1-0.5-0.3-0.7c-0.4-0.3-1-0.3-1.3,0.1
				C128.6,55.4,128.5,55.7,128.6,56z"/>
			<path class="st13" d="M135.2,58.6l0.8,0.6l0.2-0.1c0.4-0.1,0.8-0.4,1-0.8c0-0.3-0.1-0.5-0.4-0.7c-0.4-0.3-1-0.3-1.4,0.1
				C135.4,57.9,135.3,58.2,135.2,58.6L135.2,58.6z"/>
			<path class="st13" d="M133.8,60.4c-0.3,0.3-0.3,0.7,0,1l-0.2,0.2l0.5,0.3l0.2-0.1c0.5-0.1,0.9-0.4,1.1-0.9c0-0.3-0.1-0.5-0.3-0.7
				C134.7,59.9,134.1,59.9,133.8,60.4C133.8,60.3,133.8,60.3,133.8,60.4z"/>
			<path class="st13" d="M142.1,74.3l0.3,0.2l0.2-0.1c0.4-0.1,0.8-0.4,1-0.8c0-0.3-0.1-0.5-0.3-0.6s-0.4-0.1-0.6,0
				c-0.2,0.1-0.3,0.2-0.4,0.3C142,73.6,141.9,74,142.1,74.3z"/>
			<path class="st13" d="M141.8,75.9c-0.3,0.3-0.3,0.7,0,1l0.1-0.1l0.4,0.3h0.1c0.4-0.1,0.8-0.3,1-0.8c0-0.3-0.1-0.5-0.3-0.7
				C142.7,75.4,142.2,75.5,141.8,75.9L141.8,75.9z"/>
			<path class="st13" d="M141.6,78.8l0.3,0.2l0.2-0.1c0.4-0.1,0.8-0.4,1-0.8c0-0.3-0.1-0.5-0.3-0.6s-0.4-0.1-0.6,0
				c-0.2,0.1-0.3,0.2-0.4,0.3C141.4,78.1,141.4,78.5,141.6,78.8z"/>
			<path class="st13" d="M140.9,80.3c-0.2,0.1-0.3,0.2-0.4,0.3c-0.3,0.3-0.3,0.7-0.1,1l0.3,0.2l0.2-0.1c0.4-0.2,0.7-0.6,0.8-1
				c0-0.3-0.3-0.5-0.6-0.5C141,80.3,140.9,80.3,140.9,80.3z"/>
			<path class="st13" d="M139.4,83.7c0.4-0.1,0.8-0.4,1-0.8c0-0.3-0.1-0.5-0.3-0.6s-0.4-0.1-0.6,0c-0.2,0.1-0.3,0.2-0.4,0.3
				c-0.3,0.3-0.3,0.7-0.1,1l0.3,0.2L139.4,83.7z"/>
			<path class="st13" d="M137,85.7l0.3,0.3l0.2-0.1c0.4-0.2,0.7-0.6,0.8-1c0-0.3-0.3-0.6-0.6-0.5c-0.1,0-0.2,0-0.3,0.1
				c-0.2,0.1-0.3,0.2-0.4,0.3C136.8,85,136.8,85.4,137,85.7z"/>
			<path class="st13" d="M134.8,88.2l0.3,0.2l0.3-0.2c0.4-0.2,0.7-0.6,0.8-1c0-0.2-0.1-0.3-0.2-0.4c-0.4-0.3-0.9-0.2-1.2,0.1
				c0,0,0,0,0,0.1C134.6,87.3,134.2,87.4,134.8,88.2L134.8,88.2z"/>
			<path class="st13" d="M126,87.2c-0.4-0.3-1-0.3-1.3,0.1l0,0c-0.1,0.3-0.1,0.6-0.1,0.9l-0.1,0.2l0.6,0.4l0.2-0.1
				c0.4-0.1,0.8-0.4,1-0.8C126.4,87.7,126.3,87.4,126,87.2z"/>
			<path class="st13" d="M118.4,81c-0.3-0.3-0.8-0.2-1.1,0.1c0,0,0,0.1-0.1,0.1c-0.2,0.3-0.6,0.4,0.1,1.1l0.1-0.2l0.3,0.2h0.1
				c0.4-0.2,0.6-0.5,0.7-0.8C118.6,81.3,118.5,81.1,118.4,81z"/>
			<path class="st13" d="M117.3,73.9c-0.3-0.3-0.8-0.2-1.1,0.1c0,0,0,0.1-0.1,0.1c-0.2,0.3-0.6,0.4,0.1,1.1l0,0l0.1,0.1h0.2
				c0.4-0.1,0.8-0.3,1-0.7C117.7,74.3,117.5,74,117.3,73.9z"/>
			<path class="st13" d="M121,81.1c-0.2-0.1-0.4-0.1-0.6,0c-0.2,0.1-0.3,0.2-0.4,0.3c-0.3,0.3-0.3,0.7-0.1,1l0.3,0.2l0.2-0.1
				c0.4-0.1,0.8-0.4,1-0.8C121.4,81.5,121.3,81.2,121,81.1z"/>
			<path class="st13" d="M121.3,83c-0.2,0.3-0.7,0.4,0,1l0.1-0.2l0.4,0.3h0.1c0.4-0.2,0.7-0.5,0.8-0.9c0-0.2-0.1-0.3-0.2-0.4
				C122.1,82.5,121.6,82.6,121.3,83z"/>
			<path class="st13" d="M119.9,78.9c-0.3-0.3-0.8-0.2-1.1,0.1c0,0,0,0.1-0.1,0.1c-0.2,0.3-0.6,0.4,0.1,1.1l0,0l0.3,0.3l0.2-0.1
				c0.4-0.2,0.7-0.6,0.8-1C120.1,79.1,120,79,119.9,78.9z"/>
			<path class="st13" d="M121.7,80.9c-0.3,0.2-0.3,0.7-0.1,1l0,0l0.1-0.1l0.6,0.4h0.1c0.4,0,0.8-0.3,0.9-0.7c0-0.3-0.1-0.5-0.3-0.7
				C122.7,80.5,122.1,80.5,121.7,80.9C121.8,80.9,121.8,80.9,121.7,80.9z"/>
			<path class="st13" d="M125,82.4c-0.4-0.3-1-0.3-1.3,0.1c-0.1,0.3-0.1,0.6-0.1,0.9l-0.1,0.2l0.7,0.5l0.2-0.1
				c0.5-0.1,0.8-0.5,1-0.9C125.4,82.8,125.2,82.5,125,82.4z"/>
			<path class="st13" d="M128.2,84.2c-0.4-0.3-1-0.3-1.3,0.1l0,0c-0.1,0.3-0.1,0.6-0.1,0.9l-0.1,0.1l0.6,0.4l0.2-0.1
				c0.4-0.1,0.8-0.4,1-0.8C128.6,84.6,128.5,84.3,128.2,84.2z"/>
			<path class="st13" d="M128.1,86.9l0.5,0.4h0.1c0.4,0,0.8-0.3,1-0.7c0-0.3-0.1-0.5-0.3-0.6c-0.4-0.3-1-0.3-1.3,0.1
				c-0.3,0.3-0.3,0.7,0,1V86.9z"/>
			<path class="st13" d="M134.4,84.3c0-0.3-0.1-0.5-0.3-0.6s-0.4-0.1-0.6,0c-0.2,0.1-0.3,0.2-0.4,0.3c-0.3,0.3-0.3,0.7-0.1,1
				l0.3,0.2l0.2-0.1C133.9,85.1,134.3,84.8,134.4,84.3z"/>
			<path class="st13" d="M136.3,83.8c-0.2-0.1-0.4-0.1-0.6,0c-0.2,0.1-0.3,0.2-0.4,0.3c-0.3,0.3-0.3,0.7-0.1,1l0.3,0.2l0.2-0.1
				c0.4-0.1,0.8-0.4,1-0.8C136.7,84.2,136.5,84,136.3,83.8z"/>
			<path class="st13" d="M131.4,86.6l0.3,0.3l0.2-0.1c0.4-0.2,0.7-0.6,0.8-1c0-0.3-0.3-0.6-0.6-0.5c-0.1,0-0.2,0-0.3,0.1
				c-0.2,0.1-0.3,0.2-0.4,0.3C131.2,85.8,131.2,86.3,131.4,86.6z"/>
			<path class="st13" d="M138,82.6c0-0.3-0.1-0.5-0.3-0.6c-0.3-0.3-0.8-0.2-1.1,0.1c0,0,0,0.1-0.1,0.1c-0.2,0.3-0.6,0.4,0.1,1.1
				l0.1-0.1l0.2,0.2h0.1C137.5,83.2,137.8,83,138,82.6z"/>
			<path class="st13" d="M139.6,81c0-0.3-0.1-0.5-0.3-0.7c-0.4-0.3-0.9-0.2-1.2,0.1l0,0c-0.1,0.3-0.1,0.7,0,1l-0.1,0.1l0.5,0.3
				l0.2-0.1C139,81.7,139.4,81.4,139.6,81z"/>
			<path class="st13" d="M141.2,78.7c0-0.3-0.1-0.5-0.3-0.7c-0.4-0.3-0.9-0.2-1.2,0.1l0,0c-0.1,0.3-0.1,0.7,0,1l0.2-0.3l0.5,0.4v0.1
				C140.7,79.3,141.1,79.1,141.2,78.7z"/>
			<path class="st13" d="M138.7,85.8L139,86l0.2-0.1c0.4-0.1,0.8-0.4,1-0.8c0-0.3-0.1-0.5-0.3-0.6s-0.4-0.1-0.6,0
				c-0.2,0.1-0.3,0.2-0.4,0.3C138.6,85.2,138.6,85.5,138.7,85.8z"/>
			<path class="st13" d="M142.5,83.3c-0.4-0.3-1-0.3-1.3,0.1c-0.1,0.3-0.1,0.6-0.1,0.9l0,0l0.6,0.5l0.2-0.1c0.4-0.1,0.8-0.4,1-0.8
				C142.8,83.7,142.7,83.5,142.5,83.3z"/>
			<path class="st13" d="M142.5,81.2c-0.2,0.3-0.2,0.7,0.1,1l0.1-0.2l0.3,0.2l0.1,0.1c0.4,0,0.8-0.3,0.9-0.7c0-0.3-0.1-0.5-0.3-0.6
				C143.3,80.8,142.8,80.9,142.5,81.2L142.5,81.2z"/>
			<path class="st13" d="M143.6,78.7c-0.2,0.3-0.5,0.4,0.2,1.1v0.1l0.1,0.1l0.2-0.1c0.4-0.1,0.8-0.4,1-0.8c0.1-0.2-0.1-0.5-0.3-0.6
				C144.5,78.2,144,78.3,143.6,78.7C143.7,78.7,143.6,78.7,143.6,78.7z"/>
			<path class="st13" d="M144.2,76.8c-0.1,0.3-0.1,0.6-0.1,0.9v0.1l0.6,0.4l0.2-0.1c0.4-0.1,0.8-0.4,1-0.8c0-0.3-0.1-0.5-0.3-0.7
				c-0.4-0.3-0.9-0.3-1.3,0C144.2,76.7,144.2,76.8,144.2,76.8z"/>
			<path class="st13" d="M143.8,74.7l-0.1,0.1l0.5,0.4l0.3-0.2c0.4-0.2,0.7-0.6,0.8-1c0-0.2-0.1-0.3-0.2-0.4c-0.4-0.3-1-0.3-1.3,0.1
				C143.6,74,143.6,74.4,143.8,74.7z"/>
			<path class="st13" d="M144,71.1l0.5,0.4h0.1c0.4-0.1,0.8-0.3,0.9-0.7c0-0.3-0.1-0.5-0.3-0.7c-0.4-0.3-0.9-0.3-1.2,0.1l0,0
				c-0.1,0.3-0.1,0.7,0,1V71.1z"/>
			<path class="st13" d="M133.2,91l0.3,0.3l0.2-0.1c0.4-0.2,0.7-0.6,0.8-1c0-0.3-0.3-0.6-0.6-0.5c-0.1,0-0.2,0-0.3,0.1
				c-0.2,0.1-0.3,0.2-0.4,0.3C133,90.3,133,90.7,133.2,91z"/>
			<path class="st13" d="M137.4,87.8c-0.4-0.3-1-0.3-1.3,0l0,0c-0.1,0.3-0.1,0.7,0,1l-0.1,0.1l0.6,0.4l0.2-0.1
				c0.4-0.1,0.8-0.4,1-0.9C137.8,88.2,137.7,88,137.4,87.8z"/>
			<path class="st13" d="M139.7,86.7c-0.4-0.3-0.9-0.2-1.2,0.1l0,0c-0.2,0.3-0.2,0.7,0.1,1v0.1l0.3,0.2l0.2-0.1
				c0.4-0.1,0.8-0.4,1-0.8C140.1,87,139.9,86.8,139.7,86.7z"/>
			<path class="st13" d="M127,89.6c-0.4-0.4-1-0.4-1.4,0c-0.1,0.3-0.2,0.6-0.2,0.9l-0.2,0.2l0.8,0.6l0.2-0.2c0.4-0.1,0.8-0.4,1-0.9
				C127.4,90,127.3,89.8,127,89.6z"/>
			<path class="st13" d="M124,87.5c-0.4-0.3-0.9-0.3-1.2,0.1l0,0c-0.1,0.3-0.1,0.7-0.1,1l-0.1,0.2l0.5,0.4l0.2-0.1
				c0.4-0.1,0.8-0.4,1-0.8C124.4,87.9,124.3,87.6,124,87.5z"/>
			<path class="st13" d="M122.1,85.9c-0.2-0.1-0.4-0.1-0.6,0c-0.2,0.1-0.3,0.2-0.4,0.3c-0.3,0.3-0.3,0.7-0.1,1l0.3,0.2l0.2-0.1
				c0.4-0.1,0.8-0.4,1-0.8C122.5,86.3,122.4,86,122.1,85.9z"/>
			<path class="st13" d="M119.6,86.6l0.3-0.2c0.4-0.2,0.7-0.6,0.8-1c0-0.2-0.1-0.4-0.2-0.5c-0.4-0.4-1-0.4-1.3,0
				c-0.1,0.3-0.2,0.6-0.2,0.8l-0.1,0.2L119.6,86.6z"/>
			<path class="st13" d="M119.1,78l0.3-0.2c0.4-0.2,0.7-0.6,0.8-1c0-0.2-0.1-0.3-0.2-0.4c-0.3-0.3-0.8-0.2-1.1,0.1l-0.1,0.1
				c-0.2,0.3-0.6,0.4,0.1,1.1l-0.1,0.1L119.1,78z"/>
			<path class="st13" d="M116,76.3c-0.2-0.1-0.4-0.1-0.6,0c-0.2,0.1-0.3,0.2-0.4,0.3c-0.3,0.3-0.3,0.7-0.1,1l0.3,0.2l0.2-0.1
				c0.4-0.1,0.8-0.4,1-0.8C116.4,76.8,116.3,76.5,116,76.3z"/>
			<path class="st13" d="M114.4,89.6c-0.4-0.3-1-0.3-1.3,0.1l0,0c-0.1,0.3-0.1,0.6-0.1,0.9v0.1l0.6,0.4l0.2-0.1
				c0.4-0.1,0.8-0.4,1-0.8C114.8,89.9,114.6,89.7,114.4,89.6z"/>
			<path class="st13" d="M129.5,104.6c-0.3-0.3-0.8-0.2-1.1,0.1c0,0,0,0.1-0.1,0.1c-0.2,0.3-0.6,0.4,0.1,1.1l0.2-0.3l0.2,0.2
				l0.1,0.1c0.4-0.1,0.6-0.4,0.7-0.8C129.7,104.8,129.6,104.7,129.5,104.6z"/>
			<path class="st13" d="M117.3,113.9c-0.4-0.3-1-0.3-1.3,0.1c-0.3,0.3-0.3,0.7,0,1l0.2-0.2l0.5,0.4h0.1c0.4-0.2,0.6-0.5,0.7-0.9
				C117.5,114.1,117.5,114,117.3,113.9z"/>
			<path class="st13" d="M141.7,109.4c0-0.3-0.1-0.5-0.3-0.6s-0.4-0.1-0.6,0c-0.2,0.1-0.3,0.2-0.4,0.3c-0.3,0.3-0.3,0.7-0.1,1
				l0.3,0.2l0.2-0.1C141.2,110.2,141.5,109.9,141.7,109.4z"/>
			<path class="st13" d="M142.3,88.6c-0.4-0.3-1-0.3-1.3,0.1c-0.1,0.3-0.1,0.6-0.1,0.9l0,0l0.7,0.5l0.2-0.1c0.4-0.1,0.8-0.4,1-0.9
				C142.7,88.9,142.6,88.7,142.3,88.6z"/>
			<path class="st13" d="M107.9,80.4c-0.4-0.3-0.9-0.3-1.3,0.1l0,0c-0.1,0.3-0.1,0.7,0,1v-0.1l0.5,0.4l0.2-0.1
				c0.4-0.2,0.7-0.6,0.8-1C108.2,80.6,108.1,80.5,107.9,80.4z"/>
		</g>
	</g>
	<g>
		<g>
			<polygon class="st11" points="195.4,109.1 188.4,109.3 184.7,109.4 188.2,106.9 188.2,106.9 195.4,106.7 			"/>
			<path class="st14" d="M193.7,114.6l-5.6,0.1l-3.9-2.4l0,0l3.7-0.1l6.9-0.3v0.7C195,113.8,194.7,114.6,193.7,114.6z"/>
			<path class="st1" d="M191,120.8l-4.3,0.1l-3.9-2.4l0,0l3.7-0.1l6.1-0.1v0.7C192.9,120,192.1,120.8,191,120.8z"/>
			<polygon class="st1" points="196.5,185 188.5,185.1 184.8,185.2 188.4,182.7 188.4,182.7 196.5,182.6 			"/>
			<polygon class="st11" points="175.5,185.5 181.2,185.2 184.9,182.9 184.9,182.9 181.2,182.9 175.4,183 			"/>
			<polygon class="st1" points="173,109.7 181.1,109.4 184.8,106.9 184.8,106.9 181.1,107 173,107.3 			"/>
			<polygon class="st7" points="173.1,115.1 180.8,115 184.7,114.8 180.8,112.4 180.8,112.4 173.1,112.7 			"/>
			<polygon class="st11" points="174.7,121.2 179.6,121.1 183.3,120.9 179.6,118.7 179.6,118.7 174.6,118.8 			"/>
			<path class="st1" d="M177.3,167.7c-0.1-1.3,0.9-2.4,2.3-2.5l2.5-0.1l3.7-0.1l-3.7,2.5l0,0L177.3,167.7L177.3,167.7z"/>
			<path class="st11" d="M192.2,164.9l-2.8,0.1l-3.7,2.5l0,0l3.7-0.1l5.2-0.1l-0.8-0.7C193.8,165.7,193.3,164.9,192.2,164.9z"/>
			<polygon class="st11" points="196.6,176.5 190.9,176.6 187,176.6 190.9,179 190.9,179 196.6,178.9 			"/>
			<polygon class="st1" points="175.5,176.9 183.6,176.7 187.4,179 187.4,179 183.7,179.1 175.6,179.4 			"/>
			<polygon class="st7" points="175.4,170.8 183.1,170.6 186.9,170.5 183.2,173 183.2,173 175.5,173.2 			"/>
			<path class="st14" d="M194,170.4l-3.6,0.1l-3.7,2.5l0,0l3.7-0.1l5.4-0.1l0.7-0.7C196.5,171.2,194.9,170.4,194,170.4z"/>
			<polygon class="st7" points="191.8,133.2 188,133.3 185.3,133.4 189,130.9 189,130.9 190.9,130.8 			"/>
			<polygon class="st14" points="176,133.6 181.9,133.4 185.6,130.9 185.6,130.9 181.9,131 177.7,131.2 			"/>
			<polygon class="st14" points="173.8,139.1 179.1,139 182.9,138.9 179.1,136.5 179.1,136.5 174,136.6 			"/>
			<path class="st7" d="M192.6,138.6l-6.2,0.1l-3.9-2.4l0,0l3.7-0.1l8.1-0.3v0.7C194.4,137.8,193.6,138.6,192.6,138.6z"/>
			<polygon class="st1" points="173.6,142.3 182.3,142.2 186,142.1 182.3,144.6 182.3,144.6 173.9,144.7 			"/>
			<path class="st11" d="M193.7,141.9l-4.1,0.1l-3.7,2.5l0,0l3.7-0.1l5-0.1l-0.8-0.7C193.8,142.6,194.6,141.9,193.7,141.9z"/>
			<polygon class="st11" points="176.5,153.2 181.2,153.1 184.9,153 181.3,155.5 181.3,155.5 178.3,155.6 			"/>
			<path class="st1" d="M192.8,152.8l-4.4,0.1l-3.7,2.5l0,0l3.7-0.1l3.3-0.1l0.9-1.7C192.8,152.6,193.8,152.8,192.8,152.8z"/>
			<polygon class="st7" points="174.3,147.8 178.8,147.7 182.7,147.7 178.9,150.2 178.9,150.2 175.9,150.2 			"/>
			<path class="st14" d="M192.4,147.4l-6.2,0.1l-3.7,2.5l0,0l3.7-0.1l8.1-0.3V149C194.2,148.2,193.4,147.4,192.4,147.4z"/>
			<path class="st15" d="M197.3,175.4c-0.1-0.9-0.1-1.7-0.3-2.7c-0.4-5.2-3.3-11.2-8.9-13.2c-0.5-0.3-1.2-0.4-1.7-0.5
				c-0.8-0.3-1.6-0.4-2.3-0.8c-0.9-0.5-1.7-1.3-2.5-2.3c-1.7-1.9-3.5-3.6-4.5-5.8c-0.9-1.9-1.5-4-1.6-6.8c-0.3-3.1,0.1-8.8,3.5-12.2
				c-0.7-0.5-1.3-1.2-2-1.9c-4,4.1-4.4,10.8-4.1,14.3c0.3,3.2,0.8,5.7,1.9,7.8c1.2,2.5,3.2,4.5,4.9,6.5c0.9,0.9,1.9,2,3.3,2.8
				c0.9,0.5,2,0.8,2.9,1.1c0.5,0.1,1.1,0.3,1.5,0.4c4.5,1.6,6.8,6.6,7.2,10.9c0.1,0.9,0.1,1.9,0.3,2.8c0.4,4,0.7,7.4,0.1,12l2.7,0.3
				C197.9,183.1,197.5,179.4,197.3,175.4z"/>
			<g>
				<path class="st6" d="M176,187.6l-2.8-0.1l0.4-8.1c0.1-3.5,0.4-6.9,1.3-10.4c1.2-4,3.6-7,6.5-8.6c0.9-0.5,1.9-0.8,2.7-1.2
					c0.9-0.4,1.7-0.7,2.5-1.1c4.3-2.5,5.3-8.4,5.6-11.7c0.3-3.5,0-6.9-0.5-10.2c-0.4-1.9-0.9-4.4-2.5-6c-1.6-1.7-4.3-2.5-6.8-3.3
					l-0.7-0.3c-3.1-0.9-6.5-2.4-8.2-5.4c-1.3-2.3-1.6-4.9-1.7-7.3c0-0.5-0.1-1.2-0.1-1.7c-0.1-2.1-0.3-4.3,0-6.2h2.8
					c-0.1,1.7-0.1,4.1,0,6.1c0,0.7,0.1,1.2,0.1,1.9c0.1,2,0.4,4.3,1.3,6.1c1.2,2.3,4.1,3.3,6.6,4.1l0.7,0.3c2.8,0.8,5.8,1.9,8,4.1
					c2,2.1,2.8,5,3.2,7.3c0.7,3.6,0.9,7.3,0.7,10.9c-0.5,6.6-2.9,11.6-6.9,13.9c-0.9,0.5-1.9,0.9-2.8,1.3c-0.8,0.3-1.6,0.7-2.4,1.1
					c-2.4,1.3-4.3,3.9-5.2,7c-0.9,3.1-1.1,6.4-1.3,9.6L176,187.6z"/>
			</g>
			<path class="st15" d="M178.7,131.3c0.1-0.1,0.3-0.3,0.5-0.5l0,0c0.1-0.1,0.1-0.1,0.3-0.3c0.9-0.8,2.1-1.5,3.5-2.1
				c0.4-0.3,0.9-0.4,1.3-0.7c4-2.3,7.2-5.2,9.2-8.5c2-3.2,2.8-8.6,2.3-13.7l-3.1,0.1c0.5,4.4,0,9.4-1.6,12.2
				c-1.7,2.9-4.5,5.6-8.1,7.6c-0.4,0.3-0.8,0.4-1.2,0.7c-1.2,0.7-2.5,1.3-3.7,2.3l0,0c-0.1,0-0.1,0.1-0.3,0.1
				c-0.4,0.3-0.7,0.5-0.9,0.9C177.3,130.1,178,130.8,178.7,131.3z"/>
		</g>
		<g>
			<path class="st16" d="M0,137h31.7v8.6H8.6v12.6h20.5v8.6H8.6v12.6h23.1v8.6H0V137z"/>
			<path class="st16" d="M38.5,175.5v-20.9h8.6v20.7c0,3.9,2.5,5.7,5.8,5.7s5.8-1.9,5.8-5.7v-20.7h8.6v20.9c0,8-5.3,13.2-14.5,13.2
				S38.5,183.5,38.5,175.5z"/>
			<path class="st16" d="M93.9,169.2l13.4,18.7h-11l-12.2-18.1v18.1h-8.6V137h8.6v31.6l12.2-14.1h11L93.9,169.2z"/>
			<path class="st16" d="M108,170.8c0-9.7,7.4-17.4,16.5-17.4c4.8,0,8.4,1.7,10.9,4.5v-3.7h8.6v33.3h-8l-0.3-4.3
				c-2.5,3.1-6.2,4.9-11.3,4.9C115.4,188.2,108,180.5,108,170.8z M135.6,170.8c0-5.3-4.1-9.6-9.4-9.6s-9.6,4.3-9.6,9.6
				c0,5.3,4.1,9.6,9.6,9.6C131.4,180.3,135.6,176.1,135.6,170.8z"/>
			<path class="st16" d="M161.5,173v14.7H153v-33.3h8.5v4.6c2-3.3,4.8-5.3,9-5.3c0.4,0,0.8,0,1.2,0v8.4
				C166.6,161.2,161.5,163.3,161.5,173z"/>
			<path class="st16" d="M199.4,170.8c0-9.7,7.4-17.4,16.5-17.4c4.8,0,8.4,1.7,10.9,4.5v-3.7h8.6v33.3h-8l-0.3-4.3
				c-2.5,3.1-6.2,4.9-11.3,4.9C206.8,188.2,199.4,180.5,199.4,170.8z M227,170.8c0-5.3-4.1-9.6-9.4-9.6s-9.6,4.3-9.6,9.6
				c0,5.3,4.1,9.6,9.6,9.6C222.8,180.3,227,176.1,227,170.8z"/>
		</g>
	</g>
</g>
</svg>
