<?xml version="1.0" encoding="utf-8"?>
<!-- Generator: Adobe Illustrator 19.2.1, SVG Export Plug-In . SVG Version: 6.00 Build 0)  -->
<svg version="1.1" id="Layer_1" xmlns="http://www.w3.org/2000/svg" xmlns:xlink="http://www.w3.org/1999/xlink" x="0px" y="0px"
	 viewBox="0 0 284 188.7" style="enable-background:new 0 0 284 188.7;" xml:space="preserve">
<style type="text/css">
	.st0{fill:#0F5659;}
	.st1{fill:#A1E2E0;}
	.st2{fill:#22A6B3;}
	.st3{fill:#6FD1A0;}
	.st4{fill:#8FD8D5;}
	.st5{fill:#7ED6DF;}
	.st6{fill:#2D98DA;}
	.st7{fill:#D91EF4;}
	.st8{fill:#897BEF;}
	.st9{fill:#785EEA;}
	.st10{fill:#744DEF;}
	.st11{fill:#703BF2;}
	.st12{fill:#6B25F2;}
	.st13{fill:#D279F7;}
</style>
<title>logo</title>
<path class="st0" d="M1.2,132.6c0.6-0.6,1.5-0.9,2.3-0.9c1-0.1,3.5-0.1,7.5,0c4.1,0.1,6.8,0.3,8,0.5c1.6,0.3,3.1,0.9,4.5,1.7
	c1.2,0.6,2.4,1.3,3.4,2.2c0.9,1,1.6,2,2.1,3.2c1.4,2.6,2,5.6,1.7,8.6c-0.3,3.1-1.5,6-3.4,8.4c-0.7,0.7-1.3,1.5-1.7,2.5
	c0,0.3,1,1.3,2.9,3.1c2.8,3,4.3,7,4.2,11.2c-0.1,3.3-1.2,6.6-3.3,9.2c-1.8,2.7-4.5,4.7-7.6,5.8c-1.7,0.5-5.5,0.8-11.5,0.8
	s-9.2-0.3-9.7-0.8c-0.5-0.5-0.8-9.7-0.8-27.4S0.4,133.4,1.2,132.6z M20,141c-0.7-0.8-1.6-1.5-2.5-2c-1-0.3-2.1-0.4-3.1-0.4
	c-1.7,0-3.3,0.3-4.8,1c-0.7,0.3-1.3,0.9-1.6,1.6c-0.2,1.9-0.3,3.8-0.3,5.7c0,3.9,0.3,6.3,1,7.3c0.7,1,2.3,1.4,4.9,1.4
	c1.7,0,3.3-0.5,4.7-1.3c1.4-0.8,2.5-1.9,3.2-3.3c0.7-1.5,1.1-3.1,1.1-4.7c0-0.9-0.1-1.8-0.5-2.7C21.5,142.6,20.8,141.8,20,141z
	 M19.3,164.2c-2-0.9-4.1-1.3-6.3-1.2c-2.7,0-4.2,0.4-4.6,1.2c-0.4,0.8-0.7,3.6-0.7,8.3c0,2,0,4,0.3,6c0.1,0.9,0.5,1.8,1,2.5
	c0.4,0.6,1,1,1.6,1.2c1.3,0,2.5-0.1,3.8-0.4c2.2-0.3,4.2-1,6.1-2.2c2.6-1.8,3.9-4.9,3.5-8C23.9,168.5,22.1,165.7,19.3,164.2
	L19.3,164.2z"/>
<path class="st0" d="M41.7,136.8c-0.9,0-1.9,0.4-2.5,1.1c-0.6,0.6-1,1.5-1,2.4c-0.1,1.9,1.4,3.4,3.3,3.5c0.1,0,0.1,0,0.2,0
	c1.9,0,3.5-1.6,3.5-3.5C45.1,138.4,43.6,136.9,41.7,136.8z"/>
<path class="st0" d="M39.3,150.4h-2.4c-1,0.2-1.9,0.8-2.5,1.6c-0.7,0.7-1,1.7-1,2.7c0,1,0.3,1.9,1,2.6c0.7,0.7,1.6,1.1,2.5,1.1
	c0.3,0,0.7,0.2,0.9,0.4l0,0.1c0.2,0.2,0.3,0.6,0.3,0.9v19.5c0.1,0.4-0.1,0.7-0.3,1c-0.2,0.2-0.5,0.4-0.9,0.4c-0.9,0-1.8,0.4-2.5,1.1
	c-0.7,0.6-1,1.5-1,2.4c0,0.9,0.3,1.7,1,2.4c0.7,0.6,1.6,0.9,2.5,0.8h2.4c1.7,0.1,3.3-0.5,4.5-1.5c1.2-1,2-2.5,2.1-4.1v-24.4
	c-0.1-1.8-0.9-3.4-2.1-4.7C42.6,151.4,41,150.5,39.3,150.4z"/>
<path class="st0" d="M72.6,150.4H53.1c-1.7,0-2.7,1.3-3.9,2.4S48,156,48,157.6V182c-0.2,1.5,0.3,2.9,1.3,4c1,1,2.4,1.5,3.8,1.4h19.5
	c2.8,0.2,5.2-1.8,5.4-4.6c0-0.3,0-0.5,0-0.8v-24.4c0-1.6-0.3-3.7-1.5-4.8S74.2,150.4,72.6,150.4z M72,160v19.5
	c-0.1,0.5-0.3,0.9-0.7,1.2c-0.3,0.3-0.7,0.5-1.2,0.6H55.5c-0.4-0.1-0.8-0.3-1.1-0.6c-0.3-0.3-0.5-0.8-0.5-1.2V160
	c0-0.4,0.2-0.8,0.5-1.1c0.2-0.3,0.6-0.5,1-0.6h14.7c0.4,0.1,0.7,0.3,0.9,0.6l0.3,0.1C71.7,159.3,71.9,159.6,72,160z"/>
<path class="st0" d="M94.1,132.6c0.6-0.6,1.5-0.9,2.3-0.9c1-0.1,3.5-0.1,7.5,0c4.1,0.1,6.8,0.3,8,0.5c1.6,0.3,3.1,0.9,4.5,1.7
	c1.2,0.6,2.4,1.3,3.4,2.2c0.9,1,1.6,2,2.1,3.2c1.4,2.6,2,5.6,1.7,8.6c-0.3,3.1-1.5,6-3.4,8.4c-0.7,0.7-1.3,1.5-1.7,2.5
	c0,0.3,0.9,1.3,2.8,3.1c2.8,3,4.3,7,4.3,11.2c-0.1,3.3-1.2,6.6-3.3,9.2c-1.8,2.7-4.5,4.7-7.6,5.8c-1.7,0.5-5.5,0.8-11.5,0.8
	s-9.2-0.3-9.7-0.8c-0.5-0.5-0.7-9.7-0.7-27.4S93.4,133.4,94.1,132.6z M112.9,141c-0.7-0.8-1.6-1.5-2.5-2.1c-1-0.3-2.1-0.4-3.1-0.4
	c-1.7,0-3.3,0.3-4.8,1c-0.7,0.3-1.3,0.9-1.6,1.6c-0.2,1.9-0.3,3.8-0.3,5.7c0,3.9,0.3,6.3,1,7.3c0.7,1,2.3,1.4,4.9,1.4
	c1.7,0,3.3-0.5,4.7-1.3c1.3-0.7,2.5-1.8,3.2-3.2c0.7-1.5,1.1-3.1,1.1-4.7c0-0.9-0.1-1.8-0.5-2.7C114.4,142.6,113.7,141.8,112.9,141z
	 M112.2,164.2c-2-0.9-4.1-1.4-6.3-1.3c-2.6,0-4.2,0.4-4.6,1.3c-0.5,0.9-0.7,3.6-0.7,8.3c0,2,0,4,0.3,6c0.1,0.9,0.5,1.8,1,2.5
	c0.4,0.6,1,1,1.6,1.2c1.3,0,2.5-0.1,3.8-0.4c2.2-0.3,4.2-1,6.1-2.2c2.6-1.8,3.9-4.9,3.5-8C116.8,168.5,115,165.6,112.2,164.2
	L112.2,164.2z"/>
<path class="st0" d="M154.9,158.8c0.1-0.3,0.4-0.4,0.7-0.4c0.9,0,1.7-0.4,2.3-1c0.7-0.7,1.1-1.6,1.1-2.5c0-1.1-0.4-2.2-1.1-3
	c-0.6-0.7-1.5-1.6-2.5-1.6H153c-1.7,0-3.1,1.1-4.3,2.3c-1.1,1.3-1.7,3-1.7,4.7v22c0,0.5-0.1,1-0.4,1.4c-0.2,0.3-0.5,0.6-0.9,0.7
	h-9.8c-0.5-0.1-0.9-0.4-1.3-0.7c-0.4-0.4-0.6-0.8-0.6-1.4v-19.5c0.1-0.4,0.3-0.8,0.7-1c0.3-0.3,0.7-0.4,1.1-0.4c0.9,0,1.8-0.4,2.5-1
	c0.7-0.6,1.2-1.6,1.1-2.5c0-1.1-0.3-2.2-1.1-3c-0.6-0.7-1.5-1.6-2.4-1.6h-2.4c-1.7,0-2.9,1.1-4.1,2.3c-1,1.3-1.5,3-1.4,4.7v24.4
	c-0.1,1.5,0.4,3,1.5,4.1c1.1,1,2.5,1.6,4,1.5h14.6c0.9,0.1,1.7-0.2,2.4-0.8v-0.1c0.7,0.6,1.6,0.9,2.5,0.9h2.4
	c0.9,0.1,1.7-0.2,2.4-0.8c1.3-1.2,1.5-3.2,0.3-4.6c-0.1-0.1-0.2-0.2-0.3-0.3c-0.6-0.7-1.5-1.1-2.4-1.1c-0.4,0-0.3-0.1-0.5-0.4
	s0.1-0.6,0.1-1v-19.4C155,159.4,154.6,159.1,154.9,158.8z"/>
<path class="st0" d="M185.7,151.4H171c-0.9,0-1.8,0.3-2.5,1c-0.6-0.7-1.5-1-2.4-1h-2.4c-1,0.1-1.9,0.6-2.5,1.3c-0.7,0.7-1,1.6-1,2.6
	c0,1,0.3,1.9,1,2.6c0.7,0.7,1.6,1,2.5,1c0.3,0,0.7,0.2,0.9,0.4l0.5,0.1c0.4,0.2,0.7,0.5,0.9,0.9v19.5c-0.2,0.4-0.5,0.8-0.9,1
	c-0.3,0.3-0.7,0.4-1.1,0.4c-1,0-1.9,0.4-2.6,1.1c-0.7,0.6-1,1.5-1.1,2.4c0,0.8,0.3,1.6,1,2.1c0.7,0.7,1.5,0.6,2.5,0.6h2.4
	c1.5,0.2,3-0.3,4.1-1.3c1.1-1,1.7-2.4,1.7-3.9v-22c0-0.5,0.2-0.9,0.5-1.2c0.2-0.3,0.6-0.6,1-0.7h9.8c0.4,0.1,0.7,0.3,0.9,0.7
	l-0.3,0.2c0.2,0.3,0.2,0.7,0.1,1v19.5c0.1,0.3,0.1,0.7-0.1,1c-0.2,0.2-0.5,0.4-0.8,0.4c-0.9,0-1.8,0.4-2.4,1.1c-0.7,0.6-1,1.5-1,2.4
	c0,0.8,0.4,1.6,1,2.1c0.7,0.7,1.5,0.6,2.5,0.6h2.4c1.6,0.2,3.1-0.3,4.4-1.3c1.2-0.9,1.9-2.4,1.9-3.9v-24.3c-0.1-1.7-0.7-3.3-1.9-4.4
	C188.8,152.2,187.3,151.5,185.7,151.4z"/>
<path class="st0" d="M225,156.9v-13.7c-0.1-1.7-0.8-3.4-2.1-4.6c-1.2-1.3-2.8-2.1-4.5-2.2H216c-1,0.2-1.9,0.7-2.5,1.5
	c-0.7,0.7-1,1.7-1,2.6c0,1,0.3,1.9,1,2.6c0.7,0.7,1.6,1.1,2.5,1.1c0.3,0,0.7,0.2,0.9,0.4l0.4,0.1c0.3,0.2,0.6,0.5,0.7,0.9v9.8
	c-0.1,0.4-0.4,0.7-0.8,0.8c-0.4,0.2-0.8,0.3-1.3,0.2h-9.8c-0.3,0.1-0.7,0-0.9-0.2c-0.2-0.2-0.3-0.5-0.3-0.8v-12.2
	c0-1.7-0.7-3.4-1.9-4.6c-1.1-1.3-2.6-2.1-4.3-2.2h-2.4c-1,0.1-1.9,0.7-2.5,1.5c-0.7,0.7-1,1.7-1,2.6c0,1,0.3,1.9,1,2.6
	c0.7,0.7,1.6,1.1,2.5,1.1c0.3,0,0.7,0.2,0.9,0.4l0.2,0.1c0.3,0.2,0.5,0.5,0.5,0.9v12.2c0,0.9,0.3,1.8,1,2.5c-0.6,0.6-1,1.5-1,2.4
	v17.1c-0.1,0.8-0.7,1.4-1.5,1.4c-1.9,0-3.5,1.6-3.5,3.5c0,0.8,0.4,1.6,1,2.1c0.7,0.7,1.5,0.6,2.5,0.6h2.4c1.5,0.2,3.1-0.3,4.3-1.3
	c1.2-0.9,1.8-2.4,1.9-3.9v-17.1c0-0.4,0.1-0.8,0.3-1.2c0.2-0.3,0.5-0.6,0.9-0.6h14.6c0.4,0.1,0.7,0.3,0.9,0.6l0.5,0.2
	c0.4,0.2,0.7,0.6,0.8,1v14.6c-0.1,0.4-0.4,0.8-0.8,1c-0.3,0.3-0.7,0.4-1.1,0.4c-1,0-1.9,0.4-2.6,1.1c-0.6,0.6-1,1.5-1,2.4
	c0,0.8,0.3,1.6,1,2.1c0.7,0.7,1.5,0.6,2.5,0.6h2.4c1.6,0,3.4-0.2,4.6-1.3s2.1-2.2,2.1-3.9v-19.5c0-1.6-0.7-3.1-1.8-4.2
	C227.4,157.7,226.2,157.1,225,156.9z"/>
<path class="st0" d="M253.3,150.4h-14.6c-1.8,0.2-3.4,1-4.7,2.4c-1.2,1.3-1.9,3-2,4.8v9.8c0,0.9,0.3,1.8,1,2.5c-0.6,0.6-1,1.5-1,2.4
	v9.8c0,1.6,0.9,2.8,2.1,4c1.3,1,3,1.5,4.6,1.4h14.6c1.5,0.1,2.9-0.4,4-1.4c1.1-1,1.7-2.5,1.6-4v-2.4c0-1.9-1.4-3.4-3.3-3.5
	c-0.9,0-1.8,0.4-2.5,1.1c-0.7,0.6-1,1.5-1,2.4c0,0.5-0.1,0.9-0.4,1.3c-0.2,0.3-0.5,0.5-0.9,0.6h-9.8c-0.4-0.1-0.7-0.3-0.9-0.6
	c-0.2-0.4-0.3-0.8-0.3-1.3v-4.9c-0.1-0.5,0.1-1,0.3-1.4c0.2-0.4,0.5-0.7,0.9-0.8h12.2c1.5,0.2,2.9-0.3,4-1.3c1.1-1,1.7-2.4,1.6-3.8
	v-9.8c0.1-1.7-0.5-3.4-1.6-4.8C256.2,151.6,254.9,150.4,253.3,150.4z M253,159.9v4.9c0,0.4-0.5,0.3-0.8,0.6s-0.9,0-1.3,0h-9.8
	c-0.4,0-0.6,0.3-0.9,0c-0.2-0.1-0.3-0.3-0.3-0.6v-4.9c-0.1-0.4,0.1-0.8,0.3-1.1c0.2-0.3,0.5-0.5,0.9-0.5h9.8c0.4,0,0.7,0.2,0.9,0.5
	l0.4,0.1C252.6,159.2,252.9,159.5,253,159.9z"/>
<path class="st0" d="M282.9,153c-0.6-0.7-1.2-2-2.1-2l-9.6-0.6c-0.9,0-1.8,0.3-2.5,1c-0.6-0.7-1.5-1-2.4-1h-2.4
	c-1,0.2-1.9,0.8-2.5,1.6c-0.7,0.7-1,1.7-1,2.7c0,1,0.3,1.9,1,2.6c0.7,0.7,1.6,1.1,2.5,1.1c0.3,0,0.7,0.2,0.9,0.4l0.5,0.1
	c0.4,0.2,0.6,0.5,0.8,0.9v19.4c0,0.4-0.2,0.8-0.6,1c-0.1,0.1-0.3,0.3-0.4,0.4c-0.7,0.8-1,0.4-1.6,1.1c-0.6,0.6-1,1.5-1,2.4
	c0,0.9,0.3,1.7,1,2.3c0.7,0.6,1.6,0.9,2.5,0.8h0.4c1.7,0.1,3.3-0.5,4.6-1.5c1.2-1,2-2.5,2.1-4.1v-22c-0.2-0.3-0.2-0.7,0-1
	c0.3-0.3,0.2-0.4,0.6-0.4h6.9c0.9,0,1.8,0.7,2.4,0.1s1.1-0.8,1.1-1.8S283.6,153.6,282.9,153z"/>
<rect x="131.7" y="89" transform="matrix(0.8645 -0.5026 0.5026 0.8645 -25.6223 85.6347)" class="st1" width="28.6" height="2.6"/>
<rect x="130.8" y="79.1" transform="matrix(0.8644 -0.5029 0.5029 0.8644 -21.3561 81.9688)" class="st2" width="20.9" height="2.9"/>
<rect x="89.9" y="14.5" transform="matrix(0.8645 -0.5026 0.5026 0.8645 6.4549 55.8389)" class="st3" width="33.8" height="2.9"/>
<rect x="95.9" y="20.5" transform="matrix(0.8644 -0.5029 0.5029 0.8644 4.1416 58.9902)" class="st2" width="31" height="2.6"/>
<rect x="112" y="33.7" transform="matrix(0.8644 -0.5029 0.5029 0.8644 -1.2969 65.4522)" class="st4" width="17.3" height="2.9"/>
<rect x="126.6" y="59.1" transform="matrix(0.8644 -0.5029 0.5029 0.8644 -12.0018 76.6274)" class="st5" width="18.9" height="2.9"/>
<rect x="112.9" y="42.1" transform="matrix(0.8644 -0.5029 0.5029 0.8644 -4.8825 68.7166)" class="st3" width="24.2" height="2.6"/>
<rect x="118.2" y="52.5" transform="matrix(0.8645 -0.5026 0.5026 0.8645 -9.3143 72.9785)" class="st2" width="25" height="2.6"/>
<path class="st6" d="M111.3,41c1.3-0.4,2.7-0.8,4-1.1c-0.2,2.6-0.1,5.2,0.5,7.8c1.5,6.3,5.2,11.8,10.6,15.4
	c3.9,2.7,8.8,4.3,13.4,5.9c7,2.4,14.3,4.8,19.2,10.8c2.6,3.1,4.6,6.8,5.8,10.7l-3.9,2.2c-1.2-3.5-2.4-7.2-5-10.4
	c-4.1-5.1-10.6-7.3-17.4-9.6c-4.9-1.7-10-3.4-14.4-6.3c-6.2-4.2-10.5-10.5-12.2-17.8C111.4,46.1,111.2,43.5,111.3,41z"/>
<path class="st0" d="M131.6,74.8c1.5-2.6,3.3-5,5.3-7.3c2.9-3.5,5.7-6.8,6.2-10.8c0.5-3.7-0.9-7.9-4.2-12.7
	c-6.1-8.8-14.5-13.9-22.3-13.8c-2.2,0.1-4.4,0.4-6.6,0.9c-2.4,0.5-4.8,0.9-7.3,1c-5.7,0.1-11.7-8.6-14-12.9l3.4-1.9
	c1.7,3.2,7.1,10.5,11,10.5c2,0,4-0.2,6-0.5c2.4-0.5,4.8-0.9,7.2-1c9.2-0.2,18.8,5.6,25.6,15.5c4,5.7,5.6,10.8,4.9,15.5
	c-0.7,5.1-4,9-7.1,12.8c-1.8,2-3.4,4.3-4.8,6.6c-4.6,8.4-0.2,21.4,8,26.5l-3.8,2.2C129.4,99.4,126.1,84.9,131.6,74.8z"/>
<path class="st6" d="M115.3,27.3c0.8-1.3,1.6-2.5,2.4-3.7c2-2.9,4-5.7,4.2-8.9c0.3-2.9-2.9-9-5.1-12.7l3.4-2c2,3.4,6,10.7,5.6,15
	c-0.4,4.2-2.7,7.5-4.9,10.8c-0.8,1.2-1.6,2.3-2.3,3.5c-1.9,3.3-3.1,7-3.4,10.9c-1.3,0.4-2.7,0.6-4,1
	C111.5,36.2,112.9,31.5,115.3,27.3z"/>
<path class="st4" d="M143.8,101L124,66.7V44.4h1.2c0.6,0,0.8,0.4,0.8-0.2v-0.4c0-0.6-0.2-2.3-0.8-2.3h-17.5c-0.6,0-0.7,1.7-0.7,2.3
	v0.4c0,0.6,0,0.2,0.7,0.2h1.4v22.4L89.1,101c-5.4,9.4,1.2,21.3,12.1,21.3h30.4c7.8-0.1,14.2-6.5,14.1-14.3
	C145.7,105.5,145,103.1,143.8,101z"/>
<path class="st7" d="M130.6,84.6c-0.2-0.4-0.6-0.6-1-0.7c-1.1-0.1-2.2-0.4-3.3-0.4c-3.6-0.1-2.5,0.7-6.1,0.3s-5.6-1.2-10.3-1
	c-1.9,0.1-3.9,0.4-5.8,0.4c-0.5,0-1,0.3-1.2,0.7l-6.9,12l-3.3,5.7c-3.2,5.5-1.3,12.5,4.2,15.7c1.8,1,3.8,1.6,5.8,1.5h27.7
	c6.4,0,11.5-5.1,11.5-11.5c0-2-0.5-4-1.5-5.8L130.6,84.6z"/>
<circle class="st4" cx="110.6" cy="106.5" r="1.4"/>
<circle class="st4" cx="119.9" cy="100.8" r="0.7"/>
<circle class="st4" cx="111.7" cy="97.8" r="1.1"/>
<circle class="st4" cx="124.7" cy="108.2" r="0.5"/>
<path class="st0" d="M131.3,64.3c-1.3,3-2.2,6.2-2.6,9.5l-1.6,9.2c-1.2,6.7-2.4,13.5-1.5,20.2c0.8,6.4,5.5,14.8,10.1,19.4
	s12.7,4.3,19.1,3.8s12.3-3.8,17.7-7.4c2.4-1.6,4.9-3.5,5.6-6.2c0.7-2.4-0.2-5.1,0.4-7.6c1.1-4.1,5.9-6.2,7.6-10.1
	c2-4.7-1-9.8-2.8-14.5c-2.1-5.6-2.6-11.7-3.7-17.5s-3.4-8.3-7.9-12.2c-6.7-5.8-13.1-6.7-19.4-2.3S134.8,57.3,131.3,64.3z"/>
<path class="st3" d="M134.2,66.9c-1.2,2.7-2,5.5-2.3,8.3l-1.4,8.1c-1,5.9-2.1,11.9-1.3,17.8c0.7,5.7,4.9,13.1,8.9,17.1
	s11.2,3.8,16.9,3.4s10.9-3.4,15.6-6.5c2.1-1.4,4.3-3.1,5-5.5c0.6-2.2-0.2-4.5,0.4-6.7c0.9-3.6,5.2-5.5,6.7-8.9
	c1.8-4.1-0.9-8.6-2.4-12.8c-1.9-4.9-2.3-10.3-3.3-15.5s-3-6.9-7-10.3c-5.9-5.1-11.6-6.4-17.1-2.4S137.3,60.7,134.2,66.9z"/>
<path class="st7" d="M166.8,68.4c-0.9-2.3-3-5.7-5.8-5.6c-2.4,0-4.9,0.3-7.2,1c-2.4,0.7-4.3,2.5-5.2,4.7c-0.5,1.6-0.5,3.3-0.1,4.9
	c0.4,3,1.8,5.8,3.9,8c2.2,2.1,5.6,3,8.4,1.7c1.5-0.9,2.8-2.1,3.8-3.5c1.5-2,3-4.1,3.2-6.6C167.7,71.5,167.4,69.9,166.8,68.4z"/>
<path class="st1" d="M150.6,64.1c-0.5,0.3-1,0.6-1.4,1c-1.5,1.5-1.6,4.1-3.3,5.5c-0.1,0.1-0.2,0.1-0.3,0.1c-0.3,0-0.3-0.4-0.3-0.6
	c0.3-1.4,0.8-2.8,1.5-4.1c0.2-0.2,0.3-0.6,0.2-0.9c-0.2-0.2-0.5-0.3-0.8-0.2c-0.3,0.1-0.5,0.3-0.6,0.6c-1.6,2-3,4.5-2.7,7.1
	c0,0.1,0,0.1,0,0.2c0,0-0.1,0-0.1,0c-0.5,0-1-0.3-1.2-0.7c-0.2-0.5-0.3-0.9-0.2-1.4c0-0.8,0.1-1.5,0.3-2.2c0.4-1,0.9-1.9,1.6-2.7
	l2.5-3.3c0.8-1.3,1.9-2.4,3.2-3.2c0.4-0.3,1.1-0.3,1.5,0c0.2,0.4,0.2,1-0.1,1.4c-0.4,0.6-0.9,1.2-1.6,1.6c-0.4,0.2-0.8,0.5-1.2,0.8
	c-0.3,0.4-0.3,0.9,0,1.3h0.1c0.2,0.1,0.3-0.2,0.4-0.3c0.2-0.4,0.6-0.7,1.1-0.9c0.4-0.2,0.9-0.3,1.3-0.5c0.6-0.3,1.1-0.7,1.6-1.1
	c1.3-1,2.9-1.4,4.5-0.9c0.1,0,0.1,0.1,0.2,0.1c0,0.1,0,0.2,0,0.3c-0.1,0.5-0.5,0.8-1,0.9c-0.2,0-0.4,0-0.6,0
	c-0.3,0.1-0.6,0.2-0.9,0.3C152.9,62.7,151.7,63.4,150.6,64.1z"/>
<path class="st1" d="M155.4,56c-0.4,0-0.7,0.2-1,0.3c-0.3,0.2-0.5,0.6-0.4,1c0.1,0.3,0.4,0.5,0.7,0.5c1.4,0.5,3-0.1,4.5-0.1
	c1.2,0.1,2.3,0.4,3.4,0.9c0.2,0.1,0.5,0.2,0.6,0.4c0.2,0.2,0.2,0.5,0.1,0.7c-0.2,0.2-0.5,0.3-0.8,0.2c-0.6-0.1-1.3-0.3-1.9-0.3
	c-0.6-0.1-1.3,0-1.9,0.3c-0.1,0-0.1,0.1-0.1,0.2c0,0,0,0.1,0,0.2c0.2,0.7,0.7,1.2,1.4,1.2c0.3,0,0.7-0.1,1-0.1
	c0.9,0,1.7,0.1,2.5,0.5c0.5,0.1,0.9,0.3,1.3,0.5c1,0.8,1.8,1.9,2.3,3.1c0.6,1,1,2.1,1.3,3.2c0,0.2,0.1,0.4,0.2,0.6
	c0.3,0.2,0.7,0.2,0.9-0.1c0.5-0.7,0.5-1.5,0.1-2.2c-0.9-2.4-2.6-4.4-4.7-5.7c-0.1-0.1-0.2-0.2-0.2-0.3c0-0.1,0-0.2,0-0.4l0.2-1
	L168,63c0.4,0.4,0.7,0.8,1,1.2c0.4,0.7,0.6,1.5,0.8,2.3c0,0.2,0.1,0.3,0.3,0.3c0.1,0,0.2,0,0.3-0.1l0,0c0.8-0.6,0.9-1.7,0.4-2.4
	c0,0,0,0,0,0l-3.9-4.3c-0.7-0.7-1.4-1.3-2.2-1.9c-1.4-1.2-3.3-1.5-5-2.2C158.1,55.3,156.8,55.8,155.4,56z"/>
<path class="st1" d="M149.5,83.1c-0.2-0.3-0.1-0.8,0.2-1c0.2-0.1,0.5-0.2,0.7,0c0.6,0.3,1.1,0.6,1.6,0.9c0.6,0.4,1.1,0.8,1.8,1.2
	c1.6,1.1,3.6,1.6,5.5,1.5c2-0.1,3.8-0.9,5.2-2.3c1.5-1.7,2.6-3.8,3-6c0.1-0.2,0.3-0.4,0.6-0.3c0.2,0,0.3,0.2,0.3,0.3
	c0.1,0.5,0.1,1,0,1.4c-0.5,2.6-1.9,4.8-4,6.4c0.2,0.3,0.5,0.6,0.9,0.8c3.1-3,4.9-7.1,5.2-11.4c0.1-0.4,0.1-0.9,0-1.3
	c0-0.2,0.1-0.4,0.3-0.5c0.1,0,0.2,0,0.3,0c0.6,0.3,1.1,0.9,1.4,1.5c0.2,1.6-0.9,3-1.1,4.5c-0.4,2.5-1.6,4.8-3.3,6.6
	c-1.7,1.8-3.7,3.3-6,4.3c-0.8,0.4-1.6,0.7-2.4,1.1c-0.6,0.3-1.4,0.4-1.7-0.2c0.4-0.9,1.1-1.5,2-1.9l3.7-2.1
	c-0.2-0.5-0.7-0.9-1.3-0.8c-0.5,0.1-1,0.3-1.5,0.6c-1.9,1-4.2,1-6.1,0l-0.7,1.7c0.6,0.5,1.4,1,2.1,1.3c0.6,0.4,0.8,1.2,0.1,1.4
	l-0.3,0.1c-0.6,0.1-0.9-0.5-1.5-0.7c-1.9-0.6-3.6-1.7-5-3.1c-0.6-0.7-1.2-1.4-1.8-2.1c-0.8-1.1-1.8-2.5-2.6-3.7
	c-0.4-0.6-0.8-1.4-0.3-1.8c0.7,0,1.4,0.3,1.8,0.9c0.4,0.6,0.7,1.2,1,1.8c1.2,2.1,2.9,4,4.9,5.3c0.1,0.1,0.3,0.2,0.5,0.1
	c0.1-0.1,0.1-0.1,0.2-0.2l0.6-1C152.4,85.6,150.2,84.6,149.5,83.1z"/>
<rect x="150.9" y="100.1" transform="matrix(0.9606 -0.2778 0.2778 0.9606 -21.7222 47.4087)" class="st8" width="11.1" height="0.5"/>
<rect x="150.8" y="99.8" transform="matrix(0.9606 -0.2778 0.2778 0.9606 -21.6217 47.3771)" class="st9" width="11.1" height="0.5"/>
<rect x="151" y="100.4" transform="matrix(0.9606 -0.2778 0.2778 0.9606 -21.8069 47.458)" class="st9" width="11.1" height="0.5"/>
<rect x="150.8" y="99.4" transform="matrix(0.9606 -0.2778 0.2778 0.9606 -21.5234 47.3495)" class="st10" width="11.1" height="0.5"/>
<rect x="151.1" y="100.7" transform="matrix(0.9606 -0.2778 0.2778 0.9606 -21.8837 47.5116)" class="st10" width="11.1" height="0.5"/>
<rect x="151.2" y="100.6" transform="matrix(0.96 -0.28 0.28 0.96 -21.9571 47.9242)" class="st11" width="11.1" height="0.5"/>
<rect x="150.6" y="99.9" transform="matrix(0.9606 -0.2778 0.2778 0.9606 -21.6574 47.3294)" class="st11" width="11.1" height="0.5"/>
<rect x="150.4" y="100.2" transform="matrix(0.9606 -0.2778 0.2778 0.9606 -21.7712 47.2923)" class="st12" width="11.1" height="0.5"/>
<rect x="141" y="96.8" transform="matrix(0.5922 -0.8058 0.8058 0.5922 -18.2361 158.0742)" class="st8" width="12.2" height="0.5"/>
<rect x="141.3" y="97.1" transform="matrix(0.5922 -0.8058 0.8058 0.5922 -18.335 158.432)" class="st9" width="12.2" height="0.5"/>
<rect x="140.6" y="96.6" transform="matrix(0.5922 -0.8058 0.8058 0.5922 -18.223 157.737)" class="st9" width="12.2" height="0.5"/>
<rect x="141.6" y="97.4" transform="matrix(0.5922 -0.8058 0.8058 0.5922 -18.4558 158.7787)" class="st10" width="12.2" height="0.5"/>
<rect x="140.3" y="96.5" transform="matrix(0.5922 -0.8058 0.8058 0.5922 -18.2196 157.4125)" class="st10" width="12.2" height="0.5"/>
<rect x="140.8" y="96.5" transform="matrix(0.5922 -0.8058 0.8058 0.5922 -18.0288 157.813)" class="st11" width="12.2" height="0.5"/>
<rect x="141.4" y="96.9" transform="matrix(0.5922 -0.8058 0.8058 0.5922 -18.1343 158.4326)" class="st11" width="12.2" height="0.5"/>
<rect x="141.3" y="96.4" transform="matrix(0.5922 -0.8058 0.8058 0.5922 -17.8034 158.1742)" class="st12" width="12.2" height="0.5"/>
<rect x="140.2" y="106" transform="matrix(0.989 -0.1482 0.1482 0.989 -14.9037 22.0359)" class="st7" width="0.6" height="10.1"/>
<rect x="138.8" y="106.2" transform="matrix(0.9717 -0.2362 0.2362 0.9717 -22.3345 35.9914)" class="st7" width="0.6" height="10.1"/>
<path class="st13" d="M145.7,71.1c0.1-0.2-0.1-0.5-0.3-0.6c-0.4-0.3-0.9-0.2-1.2,0.1c-0.3,0.3-0.3,0.8,0,1.1L144,72l0.3,0.2l0.3-0.2
	C145,71.9,145.4,71.5,145.7,71.1z"/>
<path class="st13" d="M141.2,70.5c0.4-0.2,0.6-0.5,0.7-0.8c0-0.2-0.1-0.3-0.2-0.4c-0.4-0.3-1-0.3-1.3,0.1c-0.2,0.3-0.2,0.7,0,1
	l0.2-0.3l0.4,0.3L141.2,70.5z"/>
<path class="st13" d="M142.5,65.6c-0.4-0.3-0.9-0.3-1.3,0.1c0,0,0,0,0,0c-0.2,0.3-0.2,0.7,0.1,1l-0.2,0.2l0.4,0.3l0.3-0.2
	c0.4-0.2,0.7-0.6,0.9-1.1C142.7,65.8,142.7,65.6,142.5,65.6z"/>
<path class="st13" d="M143.3,66.1l0.3-0.2c0.4-0.2,0.7-0.6,0.9-1c0-0.2,0-0.3-0.2-0.4c-0.3-0.3-0.8-0.2-1.1,0.1c0,0,0,0.1-0.1,0.1
	c-0.2,0.3-0.6,0.4,0.1,1.1l-0.2,0.2L143.3,66.1z"/>
<path class="st13" d="M145.2,62.1l0.3,0.2l0.2,0c0.4-0.1,0.8-0.4,1-0.8c0-0.3-0.1-0.5-0.3-0.6c-0.2-0.1-0.4-0.1-0.6,0
	c-0.2,0.1-0.3,0.2-0.4,0.3C145.1,61.4,145,61.8,145.2,62.1z"/>
<path class="st13" d="M147.8,59.4l0.4,0.3l0.2-0.1c0.4-0.1,0.8-0.3,1-0.8c0-0.3-0.1-0.5-0.3-0.7c-0.4-0.3-0.9-0.3-1.2,0.1
	c0,0,0,0,0,0C147.8,58.7,147.8,59,147.8,59.4L147.8,59.4z"/>
<path class="st13" d="M149.9,59.4c0,0.2,0,0.4,0.1,0.5l0.3,0.2l0.2,0c0.4-0.1,0.8-0.4,1-0.8c0-0.1,0-0.1,0-0.2c0,0,0-0.1,0-0.1
	c0-0.2-0.1-0.3-0.2-0.4c-0.3-0.3-0.8-0.2-1.1,0.1c0,0,0,0.1-0.1,0.1C149.9,58.9,149.8,59.1,149.9,59.4z"/>
<path class="st13" d="M145.6,62.5c-0.1,0.3-0.1,0.6-0.1,0.9l-0.1,0.2l0.7,0.5l0.3-0.2c0.4-0.2,0.7-0.6,0.9-1.1
	c0-0.2-0.1-0.3-0.3-0.4C146.5,62.1,146,62.1,145.6,62.5z"/>
<path class="st13" d="M143.1,68l0.1-0.2l0,0c0.2,0.2,0.5,0.3,0.8,0.2c0.3-0.1,0.5-0.4,0.5-0.6c0-0.3-0.1-0.6-0.4-0.8
	c-0.2-0.2-0.5-0.2-0.8-0.1c-0.3,0.1-0.5,0.4-0.6,0.8C142.7,67.5,142.8,67.8,143.1,68z"/>
<path class="st13" d="M142.9,70.1c-0.3-0.2-0.8-0.2-1,0.1c0,0-0.1,0.1-0.1,0.1c-0.2,0.3-0.5,0.5,0.2,1.2l0.2-0.3h0.1h0.1
	c0.4-0.1,0.6-0.5,0.7-0.8C143.1,70.3,143,70.2,142.9,70.1z"/>
<path class="st13" d="M145.6,69.6l0.2-0.1c0.4-0.1,0.8-0.4,1-0.8c0-0.3-0.1-0.5-0.3-0.7c-0.3-0.3-0.9-0.2-1.1,0.1c0,0,0,0-0.1,0.1
	c0,0.3,0,0.7,0.1,1l-0.1,0.2L145.6,69.6z"/>
<path class="st13" d="M146.8,65.7l0.5,0.4l0.2-0.1c0.4-0.1,0.8-0.4,1-0.8c0-0.3-0.1-0.5-0.3-0.7c-0.4-0.3-1-0.3-1.3,0.1c0,0,0,0,0,0
	C146.8,65,146.8,65.4,146.8,65.7L146.8,65.7z"/>
<path class="st13" d="M151.1,63.5c0.1-0.2-0.1-0.5-0.3-0.6c-0.4-0.3-0.9-0.2-1.2,0.1c-0.3,0.3-0.3,0.8,0,1.1l-0.1,0.1l0.3,0.2
	l0.2-0.1C150.5,64.2,150.9,63.9,151.1,63.5z"/>
<path class="st13" d="M152.7,62.6L152.7,62.6c0.5,0.1,0.9-0.2,1-0.6c0,0,0,0,0-0.1c0.1-0.5-0.2-0.9-0.7-1l-0.1,0.4v-0.4
	c-0.3-0.1-0.6,0-0.8,0.3c-0.2,0.3-0.3,0.6-0.1,0.9c0.1,0.2,0.2,0.3,0.3,0.4C152.5,62.6,152.6,62.6,152.7,62.6z"/>
<path class="st13" d="M156.3,60.3c0-0.2-0.1-0.3-0.2-0.4c-0.4-0.3-0.9-0.2-1.2,0.1c0,0,0,0,0,0c-0.1,0.3-0.1,0.7,0,1l-0.2,0.3
	l0.4,0.3l0.3-0.3C155.8,61.2,156.1,60.8,156.3,60.3z"/>
<path class="st13" d="M153.6,60.6l0.3-0.2c0.4-0.2,0.7-0.6,0.8-1c0-0.2,0-0.3-0.2-0.4c-0.3-0.3-0.8-0.2-1.1,0.1c0,0-0.1,0.1-0.1,0.1
	c-0.2,0.3-0.5,0.5,0.2,1.1l-0.1,0.1L153.6,60.6z"/>
<path class="st13" d="M159.9,59.7c-0.3-0.3-0.8-0.2-1.1,0.1c0,0,0,0.1-0.1,0.1c-0.2,0.3-0.6,0.4,0.1,1l-0.1,0.2l0.3,0.2l0.3-0.2
	c0.4-0.2,0.7-0.6,0.9-1.1C160.1,60,160,59.8,159.9,59.7z"/>
<path class="st13" d="M167.6,63.2c0-0.3-0.1-0.5-0.4-0.7c-0.4-0.3-0.9-0.2-1.2,0.1c0,0,0,0,0,0c-0.1,0.3-0.1,0.7,0,1l-0.3,0.4
	l0.5,0.4l0.3-0.2C167,64,167.4,63.7,167.6,63.2z"/>
<path class="st13" d="M168.3,64.8c-0.2-0.2-0.5-0.2-0.8-0.1c-0.3,0.1-0.5,0.4-0.5,0.7c0,0.3,0.1,0.6,0.4,0.7l0.2-0.2l0,0
	c0.2,0.2,0.4,0.3,0.7,0.3c0.3-0.1,0.4-0.3,0.4-0.6C168.6,65.3,168.5,65,168.3,64.8z"/>
<path class="st13" d="M170.9,67.6l-0.3,0.4l0.3,0.2l0.3-0.3c0.5-0.2,0.9-0.5,1.1-1c0-0.3-0.1-0.5-0.3-0.7c-0.4-0.3-0.9-0.2-1.2,0.1
	c0,0,0,0,0,0.1C170.6,66.8,170.2,66.9,170.9,67.6z"/>
<path class="st13" d="M169,70l-0.2,0.3l0.3,0.2l0.3-0.3c0.4-0.2,0.7-0.6,0.9-1c0-0.2-0.1-0.3-0.2-0.4c-0.3-0.3-0.8-0.2-1.1,0.1
	c0,0,0,0.1-0.1,0.1C168.7,69.3,168.3,69.4,169,70z"/>
<path class="st13" d="M168.3,62.9L168.3,62.9l0.2,0.3l0.2-0.1c0.4-0.1,0.8-0.4,1-0.8c0-0.3-0.1-0.5-0.3-0.6
	c-0.3-0.3-0.8-0.2-1.1,0.1c0,0,0,0.1-0.1,0.1C168,62.1,167.6,62.2,168.3,62.9z"/>
<path class="st13" d="M166.8,60.9l0.1-0.1l0.4,0.3h0.1c0.4-0.1,0.8-0.3,1-0.8c0-0.3-0.1-0.5-0.3-0.6c-0.4-0.3-0.9-0.2-1.2,0.1
	c0,0,0,0,0,0C166.5,60.1,166.5,60.6,166.8,60.9z"/>
<path class="st13" d="M164.5,59.1l0.6,0.5h0.1c0.4-0.1,0.8-0.4,1-0.8c0-0.3-0.1-0.5-0.4-0.7c-0.4-0.3-1-0.3-1.3,0.1
	C164.5,58.5,164.5,58.8,164.5,59.1L164.5,59.1L164.5,59.1z"/>
<path class="st13" d="M153.5,58.1l0.2-0.3l0,0l0.1,0.1c0.4,0,0.8-0.3,0.9-0.6c0-0.2-0.1-0.5-0.3-0.6c-0.3-0.3-0.8-0.2-1.1,0.1
	c0,0-0.1,0.1-0.1,0.1C153.1,57.2,152.8,57.4,153.5,58.1z"/>
<path class="st13" d="M156.7,58.5l0.2-0.3l0.4,0.3l0.1,0.1c0.4,0,0.8-0.3,0.9-0.7c0-0.3-0.1-0.5-0.3-0.6c-0.4-0.3-0.9-0.2-1.2,0.1
	c0,0,0,0,0,0C156.6,57.9,156.6,58.2,156.7,58.5z"/>
<path class="st13" d="M159.4,56.9L159.4,56.9l0.5,0.5l0.2-0.1c0.4-0.1,0.8-0.4,1-0.8c0-0.3-0.1-0.5-0.3-0.7c-0.4-0.3-1-0.3-1.3,0.1
	C159.2,56.2,159.2,56.6,159.4,56.9C159.4,56.9,159.4,56.9,159.4,56.9z"/>
<path class="st13" d="M155.5,56.1l-0.3,0.4l0.5,0.4l0.3-0.2c0.5-0.1,0.9-0.5,1.1-0.9c0-0.3-0.1-0.5-0.3-0.7c-0.4-0.3-1-0.3-1.3,0.1
	C155.5,55.5,155.4,55.8,155.5,56.1z"/>
<path class="st13" d="M162.1,58.7l0.8,0.6l0.2-0.1c0.4-0.1,0.8-0.4,1-0.8c0-0.3-0.1-0.5-0.4-0.7c-0.4-0.3-1-0.3-1.4,0.1
	C162.3,58,162.2,58.3,162.1,58.7L162.1,58.7z"/>
<path class="st13" d="M160.7,60.5c-0.3,0.3-0.3,0.7,0,1l-0.2,0.2L161,62l0.2-0.1c0.5-0.1,0.9-0.4,1.1-0.9c0-0.3-0.1-0.5-0.3-0.7
	C161.6,60,161,60,160.7,60.5C160.7,60.4,160.7,60.4,160.7,60.5z"/>
<path class="st13" d="M169,74.4l0.3,0.2l0.2-0.1c0.4-0.1,0.8-0.4,1-0.8c0-0.3-0.1-0.5-0.3-0.6c-0.2-0.1-0.4-0.1-0.6,0
	c-0.2,0.1-0.3,0.2-0.4,0.3C168.9,73.7,168.8,74.1,169,74.4z"/>
<path class="st13" d="M168.7,76c-0.3,0.3-0.3,0.7,0,1l0.1-0.1l0.4,0.3h0.1c0.4-0.1,0.8-0.3,1-0.8c0-0.3-0.1-0.5-0.3-0.7
	C169.6,75.5,169.1,75.6,168.7,76C168.7,76,168.7,76,168.7,76z"/>
<path class="st13" d="M168.5,78.9l0.3,0.2l0.2-0.1c0.4-0.1,0.8-0.4,1-0.8c0-0.3-0.1-0.5-0.3-0.6c-0.2-0.1-0.4-0.1-0.6,0
	c-0.2,0.1-0.3,0.2-0.4,0.3C168.3,78.2,168.3,78.6,168.5,78.9z"/>
<path class="st13" d="M167.8,80.4c-0.2,0.1-0.3,0.2-0.4,0.3c-0.3,0.3-0.3,0.7-0.1,1l0.3,0.2l0.2-0.1c0.4-0.2,0.7-0.6,0.8-1
	c0-0.3-0.3-0.5-0.6-0.5C167.9,80.4,167.8,80.4,167.8,80.4z"/>
<path class="st13" d="M166.3,83.8c0.4-0.1,0.8-0.4,1-0.8c0-0.3-0.1-0.5-0.3-0.6c-0.2-0.1-0.4-0.1-0.6,0c-0.2,0.1-0.3,0.2-0.4,0.3
	c-0.3,0.3-0.3,0.7-0.1,1l0.3,0.2L166.3,83.8z"/>
<path class="st13" d="M163.9,85.8l0.3,0.3l0.2-0.1c0.4-0.2,0.7-0.6,0.8-1c0-0.3-0.3-0.6-0.6-0.5c-0.1,0-0.2,0-0.3,0.1
	c-0.2,0.1-0.3,0.2-0.4,0.3C163.7,85.1,163.7,85.5,163.9,85.8z"/>
<path class="st13" d="M161.7,88.3l0.3,0.2l0.3-0.2c0.4-0.2,0.7-0.6,0.8-1c0-0.2-0.1-0.3-0.2-0.4c-0.4-0.3-0.9-0.2-1.2,0.1
	c0,0,0,0,0,0.1C161.5,87.4,161.1,87.5,161.7,88.3L161.7,88.3z"/>
<path class="st13" d="M152.9,87.3c-0.4-0.3-1-0.3-1.3,0.1c0,0,0,0,0,0c-0.1,0.3-0.1,0.6-0.1,0.9l-0.1,0.2l0.6,0.4l0.2-0.1
	c0.4-0.1,0.8-0.4,1-0.8C153.3,87.8,153.2,87.5,152.9,87.3z"/>
<path class="st13" d="M145.3,81.1c-0.3-0.3-0.8-0.2-1.1,0.1c0,0,0,0.1-0.1,0.1c-0.2,0.3-0.6,0.4,0.1,1.1l0.1-0.2l0.3,0.2h0.1
	c0.4-0.2,0.6-0.5,0.7-0.8C145.5,81.4,145.4,81.2,145.3,81.1z"/>
<path class="st13" d="M144.2,74c-0.3-0.3-0.8-0.2-1.1,0.1c0,0,0,0.1-0.1,0.1c-0.2,0.3-0.6,0.4,0.1,1.1l0,0l0.1,0.1h0.2
	c0.4-0.1,0.8-0.3,1-0.7C144.6,74.4,144.4,74.1,144.2,74z"/>
<path class="st13" d="M147.9,81.2c-0.2-0.1-0.4-0.1-0.6,0c-0.2,0.1-0.3,0.2-0.4,0.3c-0.3,0.3-0.3,0.7-0.1,1l0.3,0.2l0.2-0.1
	c0.4-0.1,0.8-0.4,1-0.8C148.3,81.6,148.2,81.3,147.9,81.2z"/>
<path class="st13" d="M148.2,83.1c-0.2,0.3-0.7,0.4,0,1l0.1-0.2l0.4,0.3h0.1c0.4-0.2,0.7-0.5,0.8-0.9c0-0.2-0.1-0.3-0.2-0.4
	C149,82.6,148.5,82.7,148.2,83.1z"/>
<path class="st13" d="M146.8,79c-0.3-0.3-0.8-0.2-1.1,0.1c0,0,0,0.1-0.1,0.1c-0.2,0.3-0.6,0.4,0.1,1.1l0,0l0.3,0.3l0.2-0.1
	c0.4-0.2,0.7-0.6,0.8-1C147,79.2,146.9,79.1,146.8,79z"/>
<path class="st13" d="M148.6,81c-0.3,0.2-0.3,0.7-0.1,1c0,0,0,0,0,0l0.1-0.1l0.6,0.4h0.1c0.4,0,0.8-0.3,0.9-0.7
	c0-0.3-0.1-0.5-0.3-0.7C149.6,80.6,149,80.6,148.6,81C148.7,81,148.7,81,148.6,81z"/>
<path class="st13" d="M151.9,82.5c-0.4-0.3-1-0.3-1.3,0.1c-0.1,0.3-0.1,0.6-0.1,0.9l-0.1,0.2l0.7,0.5l0.2-0.1c0.5-0.1,0.8-0.5,1-0.9
	C152.3,82.9,152.1,82.6,151.9,82.5z"/>
<path class="st13" d="M155.1,84.3c-0.4-0.3-1-0.3-1.3,0.1c0,0,0,0,0,0c-0.1,0.3-0.1,0.6-0.1,0.9l-0.1,0.1l0.6,0.4l0.2-0.1
	c0.4-0.1,0.8-0.4,1-0.8C155.5,84.7,155.4,84.4,155.1,84.3z"/>
<path class="st13" d="M155,87l0.5,0.4h0.1c0.4,0,0.8-0.3,1-0.7c0-0.3-0.1-0.5-0.3-0.6c-0.4-0.3-1-0.3-1.3,0.1c-0.3,0.3-0.3,0.7,0,1
	L155,87z"/>
<path class="st13" d="M161.3,84.4c0-0.3-0.1-0.5-0.3-0.6c-0.2-0.1-0.4-0.1-0.6,0c-0.2,0.1-0.3,0.2-0.4,0.3c-0.3,0.3-0.3,0.7-0.1,1
	l0.3,0.2l0.2-0.1C160.8,85.2,161.2,84.9,161.3,84.4z"/>
<path class="st13" d="M163.2,83.9c-0.2-0.1-0.4-0.1-0.6,0c-0.2,0.1-0.3,0.2-0.4,0.3c-0.3,0.3-0.3,0.7-0.1,1l0.3,0.2l0.2-0.1
	c0.4-0.1,0.8-0.4,1-0.8C163.6,84.3,163.4,84.1,163.2,83.9z"/>
<path class="st13" d="M158.3,86.7l0.3,0.3l0.2-0.1c0.4-0.2,0.7-0.6,0.8-1c0-0.3-0.3-0.6-0.6-0.5c-0.1,0-0.2,0-0.3,0.1
	c-0.2,0.1-0.3,0.2-0.4,0.3C158.1,85.9,158.1,86.4,158.3,86.7z"/>
<path class="st13" d="M164.9,82.7c0-0.3-0.1-0.5-0.3-0.6c-0.3-0.3-0.8-0.2-1.1,0.1c0,0,0,0.1-0.1,0.1c-0.2,0.3-0.6,0.4,0.1,1.1
	l0.1-0.1l0.2,0.2h0.1C164.4,83.3,164.7,83.1,164.9,82.7z"/>
<path class="st13" d="M166.5,81.1c0-0.3-0.1-0.5-0.3-0.7c-0.4-0.3-0.9-0.2-1.2,0.1c0,0,0,0,0,0c-0.1,0.3-0.1,0.7,0,1l-0.1,0.1
	l0.5,0.3l0.2-0.1C165.9,81.8,166.3,81.5,166.5,81.1z"/>
<path class="st13" d="M168.1,78.8c0-0.3-0.1-0.5-0.3-0.7c-0.4-0.3-0.9-0.2-1.2,0.1c0,0,0,0,0,0c-0.1,0.3-0.1,0.7,0,1l0.2-0.3
	l0.5,0.4v0.1C167.6,79.4,168,79.2,168.1,78.8z"/>
<path class="st13" d="M165.6,85.9l0.3,0.2l0.2-0.1c0.4-0.1,0.8-0.4,1-0.8c0-0.3-0.1-0.5-0.3-0.6c-0.2-0.1-0.4-0.1-0.6,0
	c-0.2,0.1-0.3,0.2-0.4,0.3C165.5,85.3,165.5,85.6,165.6,85.9z"/>
<path class="st13" d="M169.4,83.4c-0.4-0.3-1-0.3-1.3,0.1c-0.1,0.3-0.1,0.6-0.1,0.9l0,0l0.6,0.5l0.2-0.1c0.4-0.1,0.8-0.4,1-0.8
	C169.7,83.8,169.6,83.6,169.4,83.4z"/>
<path class="st13" d="M169.4,81.3c-0.2,0.3-0.2,0.7,0.1,1l0.1-0.2l0.3,0.2l0.1,0.1c0.4,0,0.8-0.3,0.9-0.7c0-0.3-0.1-0.5-0.3-0.6
	C170.2,80.9,169.7,81,169.4,81.3C169.4,81.3,169.4,81.3,169.4,81.3z"/>
<path class="st13" d="M170.5,78.8c-0.2,0.3-0.5,0.4,0.2,1.1V80l0.1,0.1L171,80c0.4-0.1,0.8-0.4,1-0.8c0.1-0.2-0.1-0.5-0.3-0.6
	C171.4,78.3,170.9,78.4,170.5,78.8C170.6,78.8,170.5,78.8,170.5,78.8z"/>
<path class="st13" d="M171.1,76.9c-0.1,0.3-0.1,0.6-0.1,0.9v0.1l0.6,0.4l0.2-0.1c0.4-0.1,0.8-0.4,1-0.8c0-0.3-0.1-0.5-0.3-0.7
	c-0.4-0.3-0.9-0.3-1.3,0C171.1,76.8,171.1,76.9,171.1,76.9z"/>
<path class="st13" d="M170.7,74.8l-0.1,0.1l0.5,0.4l0.3-0.2c0.4-0.2,0.7-0.6,0.8-1c0-0.2-0.1-0.3-0.2-0.4c-0.4-0.3-1-0.3-1.3,0.1
	C170.5,74.1,170.5,74.5,170.7,74.8z"/>
<path class="st13" d="M170.9,71.2l0.5,0.4h0.1c0.4-0.1,0.8-0.3,0.9-0.7c0-0.3-0.1-0.5-0.3-0.7c-0.4-0.3-0.9-0.3-1.2,0.1c0,0,0,0,0,0
	c-0.1,0.3-0.1,0.7,0,1L170.9,71.2z"/>
<path class="st13" d="M160.1,91.1l0.3,0.3l0.2-0.1c0.4-0.2,0.7-0.6,0.8-1c0-0.3-0.3-0.6-0.6-0.5c-0.1,0-0.2,0-0.3,0.1
	c-0.2,0.1-0.3,0.2-0.4,0.3C159.9,90.4,159.9,90.8,160.1,91.1z"/>
<path class="st13" d="M164.3,87.9c-0.4-0.3-1-0.3-1.3,0c0,0,0,0,0,0c-0.1,0.3-0.1,0.7,0,1l-0.1,0.1l0.6,0.4l0.2-0.1
	c0.4-0.1,0.8-0.4,1-0.9C164.7,88.3,164.6,88.1,164.3,87.9z"/>
<path class="st13" d="M166.6,86.8c-0.4-0.3-0.9-0.2-1.2,0.1c0,0,0,0,0,0c-0.2,0.3-0.2,0.7,0.1,1V88l0.3,0.2l0.2-0.1
	c0.4-0.1,0.8-0.4,1-0.8C167,87.1,166.8,86.9,166.6,86.8z"/>
<path class="st13" d="M153.9,89.7c-0.4-0.4-1-0.4-1.4,0c-0.1,0.3-0.2,0.6-0.2,0.9l-0.2,0.2l0.8,0.6l0.2-0.2c0.4-0.1,0.8-0.4,1-0.9
	C154.3,90.1,154.2,89.9,153.9,89.7z"/>
<path class="st13" d="M150.9,87.6c-0.4-0.3-0.9-0.3-1.2,0.1c0,0,0,0,0,0c-0.1,0.3-0.1,0.7-0.1,1l-0.1,0.2l0.5,0.4l0.2-0.1
	c0.4-0.1,0.8-0.4,1-0.8C151.3,88,151.2,87.7,150.9,87.6z"/>
<path class="st13" d="M149,86c-0.2-0.1-0.4-0.1-0.6,0c-0.2,0.1-0.3,0.2-0.4,0.3c-0.3,0.3-0.3,0.7-0.1,1l0.3,0.2l0.2-0.1
	c0.4-0.1,0.8-0.4,1-0.8C149.4,86.4,149.3,86.1,149,86z"/>
<path class="st13" d="M146.5,86.7l0.3-0.2c0.4-0.2,0.7-0.6,0.8-1c0-0.2-0.1-0.4-0.2-0.5c-0.4-0.4-1-0.4-1.3,0
	c-0.1,0.3-0.2,0.6-0.2,0.8l-0.1,0.2L146.5,86.7z"/>
<path class="st13" d="M146,78.1l0.3-0.2c0.4-0.2,0.7-0.6,0.8-1c0-0.2-0.1-0.3-0.2-0.4c-0.3-0.3-0.8-0.2-1.1,0.1c0,0-0.1,0.1-0.1,0.1
	c-0.2,0.3-0.6,0.4,0.1,1.1l-0.1,0.1L146,78.1z"/>
<path class="st13" d="M142.9,76.4c-0.2-0.1-0.4-0.1-0.6,0c-0.2,0.1-0.3,0.2-0.4,0.3c-0.3,0.3-0.3,0.7-0.1,1l0.3,0.2l0.2-0.1
	c0.4-0.1,0.8-0.4,1-0.8C143.3,76.9,143.2,76.6,142.9,76.4z"/>
<path class="st13" d="M141.3,89.7c-0.4-0.3-1-0.3-1.3,0.1c0,0,0,0,0,0c-0.1,0.3-0.1,0.6-0.1,0.9v0.1l0.6,0.4l0.2-0.1
	c0.4-0.1,0.8-0.4,1-0.8C141.7,90,141.5,89.8,141.3,89.7z"/>
<path class="st13" d="M156.4,104.7c-0.3-0.3-0.8-0.2-1.1,0.1c0,0,0,0.1-0.1,0.1c-0.2,0.3-0.6,0.4,0.1,1.1l0.2-0.3l0.2,0.2l0.1,0.1
	c0.4-0.1,0.6-0.4,0.7-0.8C156.6,104.9,156.5,104.8,156.4,104.7z"/>
<path class="st13" d="M144.2,114c-0.4-0.3-1-0.3-1.3,0.1c-0.3,0.3-0.3,0.7,0,1l0.2-0.2l0.5,0.4h0.1c0.4-0.2,0.6-0.5,0.7-0.9
	C144.4,114.2,144.4,114.1,144.2,114z"/>
<path class="st13" d="M168.6,109.5c0-0.3-0.1-0.5-0.3-0.6c-0.2-0.1-0.4-0.1-0.6,0c-0.2,0.1-0.3,0.2-0.4,0.3c-0.3,0.3-0.3,0.7-0.1,1
	l0.3,0.2l0.2-0.1C168.1,110.3,168.4,110,168.6,109.5z"/>
<path class="st13" d="M169.2,88.7c-0.4-0.3-1-0.3-1.3,0.1c-0.1,0.3-0.1,0.6-0.1,0.9l0,0l0.7,0.5l0.2-0.1c0.4-0.1,0.8-0.4,1-0.9
	C169.6,89,169.5,88.8,169.2,88.7z"/>
<path class="st13" d="M134.8,80.5c-0.4-0.3-0.9-0.3-1.3,0.1c0,0,0,0,0,0c-0.1,0.3-0.1,0.7,0,1v-0.1l0.5,0.4l0.2-0.1
	c0.4-0.2,0.7-0.6,0.8-1C135.1,80.7,135,80.6,134.8,80.5z"/>
<path class="st6" d="M135.7,99.2c-0.6,0.6-1.5,0.9-2.3,0.8c-0.8-0.1-1.6-0.6-2-1.3c-0.4-0.5-0.7-1.1-0.8-1.7
	c-0.1-0.4-0.1-0.8-0.1-1.2l0.7-6.1c0.3-2.1,1.7-3.6,3.7-3.3c0.8,0,1.6,0.4,2.1,1.1c0.6,0.9,0.8,2.1,0.7,3.2l-0.7,6.1
	C137,97.6,136.5,98.5,135.7,99.2z"/>
<path class="st6" d="M151.7,115.1c-0.8-0.3-1.4-1-1.7-1.8c-0.2-0.8-0.1-1.6,0.4-2.3c0.3-0.6,0.7-1.1,1.2-1.4
	c0.3-0.2,0.7-0.4,1.1-0.6l5.8-1.9c2-0.6,3.9,0,4.6,2c0.4,0.8,0.3,1.7-0.1,2.4c-0.6,0.9-1.5,1.6-2.6,1.9l-5.8,1.9
	C153.7,115.6,152.6,115.5,151.7,115.1z"/>
<path class="st6" d="M173.8,99.3c-0.8,0.4-1.7,0.4-2.4,0c-0.7-0.4-1.2-1.1-1.4-1.9c-0.2-0.6-0.3-1.2-0.2-1.9
	c0.1-0.4,0.2-0.8,0.4-1.2l2.7-5.5c0.9-1.9,2.7-2.8,4.6-1.9c0.8,0.3,1.5,0.9,1.7,1.7c0.3,1.1,0.1,2.2-0.4,3.2l-2.7,5.5
	C175.5,98.3,174.7,99,173.8,99.3z"/>
</svg>
