<?xml version="1.0" encoding="utf-8"?>
<!-- Generator: Adobe Illustrator 22.1.0, SVG Export Plug-In . SVG Version: 6.00 Build 0)  -->
<svg version="1.1" id="Camada_1" xmlns="http://www.w3.org/2000/svg" xmlns:xlink="http://www.w3.org/1999/xlink" x="0px" y="0px"
	 viewBox="0 0 549.4 591.4" style="enable-background:new 0 0 549.4 591.4;" xml:space="preserve">
<style type="text/css">
	.st0{fill:#0F5659;}
</style>
<path class="st0" d="M548.9,370.8c-2.8-59.4-15.1-117.7-36.8-173.3c-28.5-72.9-68.8-127.2-119.7-161.1C362.2,16.4,327.5,4,291.8,0.9
	c-38.5-3.6-75,4-105.5,21.9c-14.1,8.2-25.9,17.9-37.6,27.3c-6.8,5.6-13.3,10.8-20,15.6c-6.8,4.9-14.2,9.5-22.1,14.2
	c-10.8,6.7-21.8,13.5-32.6,21.9c-20.5,16.1-37.2,36.6-49.5,60.3C12.1,185.8,4.2,212.9,1.3,242C-4,294,7.2,349.7,32,394.5
	c11.9,21.6,27.7,39.7,41.6,55.6c22.4,25.6,50.4,57.7,83.4,82.7c50.4,38.1,110,58.7,169.1,58.7c4.7,0,9.6-0.1,14.4-0.4
	c68.8-3.9,133.4-37.2,173.1-89.2c11.3-14.8,19.9-30.1,25.3-45.4C550,426.6,550.1,395.1,548.9,370.8z M513.8,447.5
	c-5,13.8-12.6,26.5-21.5,38.2c-35.9,47-94,75.3-153.2,78.5c-59.1,3.4-118.6-17.2-165.8-52.9c-29.8-22.5-54.8-50.8-79.4-79
	c-13.9-16-28-32.3-38.4-51c-43.9-79.7-40.9-199,35.3-258.5c16.9-13.2,36.2-23,53.6-35.4c18.8-13.3,35.6-29.8,55.4-41.5
	C253.8,14.6,325.3,24.4,377.4,59s86.8,90.3,109.7,148.5c20.5,52.5,32.3,108.3,35,164.7C523.3,397.6,522.5,423.5,513.8,447.5z"/>
</svg>
