<?xml version="1.0" encoding="utf-8"?>
<!-- Generator: Adobe Illustrator 19.2.1, SVG Export Plug-In . SVG Version: 6.00 Build 0)  -->
<svg version="1.1" id="Layer_1" xmlns="http://www.w3.org/2000/svg" xmlns:xlink="http://www.w3.org/1999/xlink" x="0px" y="0px"
	 viewBox="0 0 775.2 834.6" enable-background="new 0 0 775.2 834.6" xml:space="preserve">
<path display="none" fill="#0F5659" d="M380.3,413.1c0,0,16.8-184.8-191.3-132.1c-64.7,23.3-70.7,98-70.7,136.3
	c0,23.3,40.1,99.8,50.7,120.4c10.2,19.9,50,28.7,78,34.3c130.7,9,133.7-122.9,133.7-122.9c-0.2-9.9,1.2-14.6,1.9-19.1
	c-0.2-8.3-1.4-9.4-1.4-9.8C381,418.6,379.7,418.5,380.3,413.1z"/>
<path display="none" fill="#98E2CD" d="M366,414c-10.5-27.3-30.3-162.3-136-113c-101,29.3-83.7,81.6-83.7,113.3
	c0,40.7,64.7,131.6,94.7,127.3c84.7,30.1,120-74.6,126.5-93c1.2-1.8,2.4-6.8,1.8-10.8c-0.3-6.4-0.9-7.4-1.5-13.9
	C367.6,420.8,366.5,414.8,366,414z"/>
<g id="direito" display="none">
	<path display="inline" fill="#0F5659" d="M573,284c-99.9,11.3-109,57.7-129,108c-7.3,23-8.7,48.3-0.8,66.6
		C465.9,500,501.6,571.5,584,556c99-17,112.8-73.2,115-127C689,387,695,274.3,573,284z"/>
	<path display="inline" fill="#98E2CD" d="M593,301c-107.6,13.6-128,78-139,104c0.6,6.4-2.7,35.5,3.8,41.5
		c8.8,25.9,90.4,123.8,145.8,87.2c52.7-18,79.4-58.5,81.3-105.3C679.7,359.7,645,305,593,301z"/>
</g>
<g id="nucleo">
	<path fill="#C333F2" d="M441.9,345.6c-0.2-0.3-0.3-0.7-0.5-1c-0.3-0.7-0.7-1.4-0.9-2.1c-0.1-0.4-0.2-0.8-0.3-1.2
		c-0.2-0.6-0.3-1.2-0.6-1.8c-0.8-1.9-2.3-3.3-3.8-4.5c-3.2-2.7-6.7-5.4-10.9-6.5c-3.3-0.9-6.7-0.7-10-0.5l-12.2,0.7
		c-1.3,0.1-3.1,0.2-4.4,1.3c-0.3,0.2-1.4,0.5-2.2,0.7c-1.2,0.3-2.2,0.5-2.7,0.9c-0.7,0.6-1.3,1.1-1.8,1.5c-2.6,2.1-4.1,3.4-6.3,7.9
		c-0.3,0.6-0.8,1.5-1.3,2.5c-1.2,2.2-2.7,4.9-3,6.5c-0.3,1.3-0.2,2.5,0,3.7c0.1,0.5,0.1,1.6,0.2,3c0.3,4.6,0.6,8.4,1.2,9.5
		c2.3,4.2,4.6,6.4,7.8,9.5l0.9,0.8c2,2,6.7,6.1,11.5,7.4c-0.8-5-1.3-9.4,0.4-14.6c-1.7,5.2-1.2,9.6-0.4,14.6
		c0.8,0.2,1.7,0.4,2.5,0.4c4,0.1,8.1,0.2,12.1,0.2c2.9,0,5.9,0,8.8-0.1c1.6,0,3.4-0.1,5.1-0.6c2.7-0.8,5.2-2.8,7-5.6
		c1.6-2.5,2.6-5.4,3.5-8.2C443.4,363.4,445.6,353.8,441.9,345.6z"/>
	<g>
		<g>
			<path fill="#D91EF4" d="M403.008,369.3c-1.6,4.9-1.3,9.2-0.5,13.9c0.9,0.2,1.7,0.4,2.6,0.4c7,0.2,13.9,0.3,20.9,0.1
				c1.7,0,3.3-0.1,4.9-0.6c2.8-0.8,5.1-2.9,6.7-5.4s2.6-5.3,3.4-8.1c2.3-7.8,3.8-16.5,0.4-23.9c-0.5-1.1-1.1-2.1-1.4-3.2
				c-0.3-1-0.5-2-0.9-2.9c-0.7-1.7-2.2-3.1-3.6-4.3c-3.2-2.7-6.7-5.3-10.7-6.4c-3.2-0.8-6.5-0.6-9.8-0.5c-4.1,0.2-8.2,0.5-12.3,0.7
				c-1.4,0.1-3,0.2-4.1,1.1c-0.8,0.7-4.1,0.9-4.9,1.6c-3.8,3.3-5.4,3.9-7.9,9.3c-1,2.1-3.8,6.6-4.3,8.9c-0.3,1.2-0.2,2.3,0,3.5
				c0.2,1.6,0.5,10.8,1.3,12.2c2.4,4.4,4.9,6.6,8.6,10.2c2.9,2.9,7.1,6.2,11.1,7.3"/>
		</g>
		<g>
			<g>
				<g>
					<g>
						<g>
							<defs>
								<path id="SVGID_1_" d="M405,383.6c7,0.2,13.9,0.3,20.9,0.1c1.7,0,3.3-0.1,4.9-0.6c2.8-0.8,5.1-2.9,6.7-5.4s2.6-5.3,3.4-8.1
									c2.3-7.8,3.8-16.5,0.4-23.9c-0.5-1.1-1.1-2.1-1.4-3.2c-0.3-1-0.5-2-0.9-2.9c-0.7-1.7-2.2-3.1-3.6-4.3
									c-3.2-2.7-6.7-5.3-10.7-6.4c-3.2-0.8-6.5-0.6-9.8-0.5c-4.1,0.2-8.2,0.5-12.3,0.7c-1.4,0.1-3,0.2-4.1,1.1
									c-0.8,0.7-4.1,0.9-4.9,1.6c-3.8,3.3-5.4,3.9-7.9,9.3c-1,2.1-3.8,6.6-4.3,8.9c-0.3,1.2-0.2,2.3,0,3.5
									c0.2,1.6,0.5,10.8,1.3,12.2c2.4,4.4,4.9,6.6,8.6,10.2C394.8,379.4,400.2,383.5,405,383.6z"/>
							</defs>
							<clipPath id="SVGID_2_">
								<use xlink:href="#SVGID_1_"  overflow="visible"/>
							</clipPath>
							<path clip-path="url(#SVGID_2_)" fill="none" stroke="#C333F2" stroke-width="0.5" stroke-miterlimit="10" d="M329.1,350.5"
								/>
						</g>
					</g>
				</g>
			</g>
		</g>
		<g>
			<g>
				<g>
					<g>
						<g>
							<defs>
								<path id="SVGID_3_" d="M405,383.6c7,0.2,13.9,0.3,20.9,0.1c1.7,0,3.3-0.1,4.9-0.6c2.8-0.8,5.1-2.9,6.7-5.4s2.6-5.3,3.4-8.1
									c2.3-7.8,3.8-16.5,0.4-23.9c-0.5-1.1-1.1-2.1-1.4-3.2c-0.3-1-0.5-2-0.9-2.9c-0.7-1.7-2.2-3.1-3.6-4.3
									c-3.2-2.7-6.7-5.3-10.7-6.4c-3.2-0.8-6.5-0.6-9.8-0.5c-4.1,0.2-8.2,0.5-12.3,0.7c-1.4,0.1-3,0.2-4.1,1.1
									c-0.8,0.7-4.1,0.9-4.9,1.6c-3.8,3.3-5.4,3.9-7.9,9.3c-1,2.1-3.8,6.6-4.3,8.9c-0.3,1.2-0.2,2.3,0,3.5
									c0.2,1.6,0.5,10.8,1.3,12.2c2.4,4.4,4.9,6.6,8.6,10.2C394.8,379.4,400.2,383.5,405,383.6z"/>
							</defs>
							<clipPath id="SVGID_4_">
								<use xlink:href="#SVGID_3_"  overflow="visible"/>
							</clipPath>
						</g>
					</g>
				</g>
			</g>
		</g>
		<g>
			<g>
				<g>
					<g>
						<g>
							<defs>
								<path id="SVGID_5_" d="M405,383.6c7,0.2,13.9,0.3,20.9,0.1c1.7,0,3.3-0.1,4.9-0.6c2.8-0.8,5.1-2.9,6.7-5.4s2.6-5.3,3.4-8.1
									c2.3-7.8,3.8-16.5,0.4-23.9c-0.5-1.1-1.1-2.1-1.4-3.2c-0.3-1-0.5-2-0.9-2.9c-0.7-1.7-2.2-3.1-3.6-4.3
									c-3.2-2.7-6.7-5.3-10.7-6.4c-3.2-0.8-6.5-0.6-9.8-0.5c-4.1,0.2-8.2,0.5-12.3,0.7c-1.4,0.1-3,0.2-4.1,1.1
									c-0.8,0.7-4.1,0.9-4.9,1.6c-3.8,3.3-5.4,3.9-7.9,9.3c-1,2.1-3.8,6.6-4.3,8.9c-0.3,1.2-0.2,2.3,0,3.5
									c0.2,1.6,0.5,10.8,1.3,12.2c2.4,4.4,4.9,6.6,8.6,10.2C394.8,379.4,400.2,383.5,405,383.6z"/>
							</defs>
							<clipPath id="SVGID_6_">
								<use xlink:href="#SVGID_5_"  overflow="visible"/>
							</clipPath>
						</g>
					</g>
				</g>
			</g>
		</g>
	</g>
	<g>
		<path fill="#D731F4" d="M428.6,344.3c2.2,4.5,1.6,10.3-1.8,14c-0.9,0.9-1.9,1.7-2.9,2.5c-0.7,0.5-1.4,1-2.2,1.2
			c-0.6,0.1-1.3,0-1.9-0.1c-4.6-1-9.1-2.7-13.2-5.1c-1.8-1.1-3.7-2.3-4.5-4.3c-0.5-1.3-0.5-2.8-0.4-4.2c0.2-2.2,0.7-4.3,1.5-6.4
			c0.6-1.5,1.5-3.1,3.1-3.3c0.5-0.1,1.1,0,1.6,0c1.3-0.1,2.4-0.8,3.6-1.4c2-0.9,2.9,0.4,4.7,0.3c1.5-0.1,1.8-1.2,3.5-0.8
			C423.5,337.5,427,341,428.6,344.3z"/>
		<path id="dna" fill="none" stroke="#6D138E" stroke-width="0.5" stroke-miterlimit="10" d="M418.2,348.9c-3.3-0.4,1.3,0.7-1.6-1
			c-2.9-1.6,3.9,2.9,3.7-0.4c0-0.4,5.3-0.1,5.5-0.4c0.2-0.4-2.9-2-2.5-2.2c2.2-1.2-10.6,1.5-8.1,1.5c0.7,0-3.7-3.9-3.1-3.5
			c1.7,1,1.8,3.5,1.7,5.5c2.3-0.3,4.5-0.6,6.8-0.9c0.2,0.9,0.1,1.8-0.3,2.6c0.2-0.6,0.7-1.1,1.2-1.5c0.3,2-0.1-3.5-1.4-1.9
			c-0.2,0.3-0.8,3.2-1.2,3.3s2.1,0.2,1.8-0.1c-2-1.4-7.1,1.1-6.7-1.3c0.4-2.6,3.7-3.8,6.3-3.4c0.4,0.1,0.8,0.2,1,0.5s0.1,0.6,0,0.9
			c-0.4,1.5-1.5,2.8-3,3.4c-0.6,0.3-1.3,0.4-2,0.2c-1.6-0.3-2.7-2-2.8-3.7c-0.1-2,1.3-4,3.2-4.6c1.9-0.6,4.3,0.4,5,2.3
			s-0.4,4.3-2.3,4.9c-0.9,0.2-2,0-2.3-0.9c-0.2-0.7,0.4-1.5,1.1-1.7s1.5-0.1,2.2,0.2c2.3,0.7,4.5,2,6.2,3.7c0.6,0.6-8.2-3.8-8.1-3
			c0.3,2.1,3.2-0.3,1.2,0.1c-3.3,0.6-3.5,8.8-5.1,5.8c-0.6-1.1-0.7-2.3-0.5-3.5c0.3-2.2,1.7-4.4,3.8-5.3c2.1-1,4.7-0.6,6.3,0.9
			c0.7,0.7,1.2,1.5,1.2,2.5c-0.1,1.2-0.9,2.1-1.8,2.9c-2.6,2.3-0.5-5.5-3.8-4.5c-1.7,0.5,2.6,0.7,1.3-0.6c-0.5-0.5-4.2,5.1-4.4,4.4
			c-1.1-4.2-6.1-5.2-2.3-7.4c1.4-0.9,3.2-1.5,4.8-1c1.1,0.4,1.8,1.3,2.5,2.2c1.5,1.8,2.8,4.1,2.4,6.4c-0.3,1.4-4.7-1.9-5.7-0.8
			c-2.5,2.6,4.1-3.8,0.7-2.8c-1.6,0.5-0.4,4.4-1.7,3.4c-0.7-0.5,0,0-0.3-0.8c-1.6-3.9-0.6,3.9,1.3,0.1c1.1-2.2-3.2-1.8-0.7-2
			c1-0.1-2.6-7.1-1.8-6.7c3.7,1.6,6.6,4.9,7.6,8.8c-2.3,0.1-4.7-0.9-6.3-2.5c-0.7-0.7-1.3-1.6-1.3-2.5c-0.1-1.3,0.8-2.4,1.8-3.3
			c1.9-1.7,1.1,3.4,2.6,5.5c1,1.4,4.8-2.5,4-0.9c-1.3,2.4-3.7,4.4-6.4,4.2c-0.6,0-1.1-0.2-1.6-0.5c-1.3-1.1-0.4-3.2,0.9-4.3
			c0.8-0.7,1.8-1.4,2.9-1.5s2.3,0.4,2.7,1.4c0.4,0.9,0.1,1.9-0.3,2.7c-1.3,2.9-4.3,4.9-7.5,5.1c-0.6,0-1.4-0.1-1.6-0.7
			c-0.1-0.4,0-0.8,0.1-1.1c0.6-1.6,1.4-3.1,2.6-4.3c1.2-1.1,3-1.8,4.6-1.4c2.8,0.7,4.1,4.2,3,6.9c-1,2.7,0.8-6.5-1.9-5.7
			c-2.2,0.7,2.5-2,0.9-3.7c-0.6-0.7-2,6.4-2.3,5.5c-0.8-2.5-2.3,3.2-1.5,0.7s-6.9-7.6-4.3-7.4c1,0,2,0.4,3,0.9
			c2.6,1.2,5.1,3,6.2,5.6c1.4,3.4-6.8-8.8-9.6-6.5s3.7,0.3,0,0.3c-2.1,0,1.1,1.5-0.2-0.1c-1.1-1.3,0.8,1.4,0.7-0.3
			c-0.2-3.2-2.1,3-1-0.1s2,7.9,5.2,7.3c2.7-0.5-2.7-10-0.2-9c5.8,2.4-5.6,5.7,0.2,8.1"/>
	</g>
</g>
<g id="centr2">
	<g>
		<g>
			<path fill="#703BF2" d="M333.3,388.2c0.1,0.1,0.2,0.1,0.3,0.2s0.2,0.1,0.3,0.2c0.1,0.1,0.2,0.1,0.3,0.2c0.4,0.4,1.2,0.1,1.2-0.6
				l0,0c0-0.5,0.4-0.8,0.8-0.8c0.1,0,0.1,0.1,0.2,0.1c0.1,0.1,0.2,0.1,0.3,0.2c0.5,0.5,1.4-0.1,1.1-0.8l0,0c-0.3-0.6,0.4-1.2,1-0.9
				c0.7,0.4,1.4-0.5,0.9-1.1c-0.4-0.5,0-1.3,0.7-1.1c0.8,0.2,1.2-0.9,0.5-1.3c-0.6-0.3-0.3-1.2,0.3-1.3l0,0c0.7-0.1,0.9-1.1,0.2-1.3
				c-0.1-0.1-0.1-0.1-0.3-0.2c-0.1-0.1-0.1-0.1-0.3-0.2l0,0c-0.2-0.3-0.1-0.8,0.4-1l0,0c0.6-0.3,0.5-1.1,0-1.3
				c-0.1-0.1-0.2-0.1-0.3-0.2c-0.1-0.1-0.2-0.1-0.3-0.2s-0.2-0.1-0.3-0.2c-0.1-0.1-0.2-0.1-0.3-0.2l0,0c0-0.2,0.1-0.4,0.2-0.5
				c0.5-0.4,0.2-1-0.2-1.2c-0.1-0.1-0.2-0.1-0.3-0.2s-0.2-0.1-0.3-0.2c-0.1-0.1-0.2-0.1-0.3-0.2s-0.2-0.1-0.3-0.2
				c-0.1-0.1-0.2-0.1-0.3-0.2l-0.1-0.1l0,0l0,0c0.3-0.4,0-0.9-0.3-1c-0.1-0.1-0.2-0.1-0.3-0.2c-0.1-0.1-0.2-0.1-0.3-0.2
				s-0.2-0.1-0.3-0.2c-0.1-0.1-0.2-0.1-0.3-0.2s-0.2-0.1-0.3-0.2c-0.1-0.1-0.2-0.1-0.3-0.2s-0.2-0.1-0.3-0.2
				c-0.1-0.1-0.2-0.1-0.3-0.2s-0.2-0.1-0.3-0.2c-0.1-0.1-0.2-0.1-0.3-0.2s-0.2-0.1-0.3-0.2c-0.1-0.1-0.2-0.1-0.3-0.2
				s-0.2-0.1-0.3-0.2c-0.1-0.1-0.2-0.1-0.3-0.2s-0.2-0.1-0.3-0.2c-0.1-0.1-0.2-0.1-0.3-0.2s-0.2-0.1-0.3-0.2
				c-0.1-0.1-0.2-0.1-0.3-0.2s-0.2-0.1-0.3-0.2c-0.1-0.1-0.2-0.1-0.3-0.2s-0.2-0.1-0.3-0.2c-0.1-0.1-0.2-0.1-0.3-0.2
				s-0.2-0.1-0.3-0.2c-0.1-0.1-0.2-0.1-0.3-0.2s-0.2-0.1-0.3-0.2c-0.1-0.1-0.2-0.1-0.3-0.2s-0.2-0.1-0.3-0.2
				c-0.1-0.1-0.2-0.1-0.3-0.2s-0.2-0.1-0.3-0.2c-0.1-0.1-0.2-0.1-0.3-0.2s-0.2-0.1-0.3-0.2c-0.1-0.1-0.2-0.1-0.3-0.2
				s-0.2-0.1-0.3-0.2c-0.1-0.1-0.2-0.1-0.3-0.2s-0.2-0.1-0.3-0.2c-0.1-0.1-0.2-0.1-0.3-0.2s-0.2-0.1-0.3-0.2
				c-0.1-0.1-0.2-0.1-0.3-0.2s-0.2-0.1-0.3-0.2c-0.1-0.1-0.2-0.1-0.3-0.2s-0.2-0.1-0.3-0.2c-0.1-0.1-0.2-0.1-0.3-0.2
				s-0.2-0.1-0.3-0.2c-0.1-0.1-0.2-0.1-0.3-0.2s-0.2-0.1-0.3-0.2c-0.1-0.1-0.2-0.1-0.3-0.2s-0.2-0.1-0.3-0.2
				c-0.1-0.1-0.2-0.1-0.3-0.2s-0.2-0.1-0.3-0.2c-0.1-0.1-0.2-0.1-0.3-0.2s-0.2-0.1-0.3-0.2c-0.1-0.1-0.2-0.1-0.3-0.2
				s-0.2-0.1-0.3-0.2c-0.1-0.1-0.2-0.1-0.3-0.2s-0.2-0.1-0.3-0.2c-0.1-0.1-0.2-0.1-0.3-0.2s-0.2-0.1-0.3-0.2
				c-0.1-0.1-0.2-0.1-0.3-0.2s-0.2-0.1-0.3-0.2c-0.1-0.1-0.2-0.1-0.3-0.2s-0.2-0.1-0.3-0.2c-0.1-0.1-0.2-0.1-0.3-0.2
				s-0.2-0.1-0.3-0.2c-0.1-0.1-0.2-0.1-0.3-0.2s-0.2-0.1-0.3-0.2c-0.1-0.1-0.2-0.1-0.3-0.2s-0.2-0.1-0.3-0.2
				c-0.1-0.1-0.2-0.1-0.3-0.2s-0.2-0.1-0.3-0.2c-0.1-0.1-0.2-0.1-0.3-0.2s-0.2-0.1-0.3-0.2c-0.1-0.1-0.2-0.1-0.3-0.2
				s-0.2-0.1-0.3-0.2c-0.1-0.1-0.2-0.1-0.3-0.2s-0.2-0.1-0.3-0.2c-0.1-0.1-0.2-0.1-0.3-0.2s-0.2-0.1-0.3-0.2
				c-0.1-0.1-0.2-0.1-0.3-0.2s-0.2-0.1-0.3-0.2c-0.1-0.1-0.2-0.1-0.3-0.2s-0.2-0.1-0.3-0.2c-0.1-0.1-0.2-0.1-0.3-0.2
				s-0.2-0.1-0.3-0.2c-0.1-0.1-0.2-0.1-0.3-0.2s-0.2-0.1-0.3-0.2c-0.1-0.1-0.2-0.1-0.3-0.2s-0.2-0.1-0.3-0.2
				c-0.1-0.1-0.2-0.1-0.3-0.2s-0.2-0.1-0.3-0.2c-0.1-0.1-0.2-0.1-0.3-0.2s-0.2-0.1-0.3-0.2c-0.1-0.1-0.2-0.1-0.3-0.2
				s-0.2-0.1-0.3-0.2c-0.1-0.1-0.2-0.1-0.3-0.2s-0.2-0.1-0.3-0.2c-0.1-0.1-0.2-0.1-0.3-0.2s-0.2-0.1-0.3-0.2
				c-0.1-0.1-0.2-0.1-0.3-0.2s-0.2-0.1-0.3-0.2c-0.1-0.1-0.2-0.1-0.3-0.2c-0.1-0.2-0.3-0.2-0.5-0.2h-0.1c-0.1-0.1-0.2-0.1-0.3-0.2
				s-0.2-0.1-0.3-0.2c-0.1-0.1-0.2-0.1-0.3-0.2s-0.2-0.1-0.3-0.2c-0.1-0.1-0.2-0.1-0.3-0.2s-0.2-0.1-0.3-0.2
				c-0.1-0.1-0.2-0.1-0.3-0.2c-0.2-0.3-0.7-0.3-0.9,0.1l-0.3,0.4h-0.1c-0.1-0.1-0.2-0.1-0.3-0.2c-0.1-0.1-0.2-0.1-0.3-0.2
				s-0.2-0.1-0.3-0.2c-0.1-0.1-0.2-0.1-0.3-0.2s-0.2-0.1-0.3-0.2c-0.1-0.1-0.2-0.1-0.3-0.2c-0.2-0.3-0.9-0.3-1,0.2l-0.3,1.1
				c0,0,0,0-0.1,0c-0.1-0.1-0.2-0.2-0.3-0.2c-0.1-0.1-0.2-0.2-0.3-0.2c-0.1-0.1-0.2-0.2-0.3-0.2c-0.1-0.1-0.2-0.2-0.3-0.2
				c-0.1-0.1-0.2-0.2-0.3-0.2c-0.1-0.1-0.2-0.2-0.3-0.2c-0.3-0.4-1-0.2-1,0.4l0.1,1.3c0,0.2-0.1,0.4-0.2,0.5l0,0l0,0
				c-0.1-0.1-0.2-0.1-0.3-0.2l0,0c-0.1-0.1-0.2-0.1-0.3-0.2l0,0c-0.1-0.1-0.2-0.1-0.3-0.2l0,0c-0.1-0.1-0.2-0.1-0.3-0.2l0,0
				c-0.1-0.1-0.2-0.1-0.3-0.2l0,0c-0.1-0.1-0.2-0.1-0.3-0.2l0,0c-0.4-0.5-1.2,0-0.9,0.6l0.5,1.2c0.2,0.5-0.4,1-0.8,0.7l-1.1-0.7
				c-0.5-0.3-1.1,0.4-0.7,0.8l0.9,1c0.3,0.4,0,1-0.6,0.9l-1.3-0.3c-0.6-0.1-1,0.7-0.4,1l0.2,0.1l0.1,0.1l0.2,0.1l0.1,0.1l0.2,0.1
				l0.1,0.1l0.2,0.1l0.1,0.1l0.2,0.1c0,0,0,0,0.1,0.1c0.2,0.3,0,0.8-0.4,0.8l-1.3,0.1c-0.6,0.1-0.7,0.9-0.1,1.1
				c0.1,0.1,0.2,0.1,0.3,0.2s0.2,0.1,0.3,0.2c0.1,0.1,0.2,0.1,0.3,0.2s0.2,0.1,0.3,0.2c0.1,0.1,0.2,0.1,0.3,0.2s0.2,0.1,0.3,0.2
				c0,0,0,0,0.1,0.1c-0.1,0.1-0.1,0.2-0.3,0.2l-1.3,0.5c-0.5,0.2-0.4,0.9,0.1,1c0.1,0.1,0.2,0.1,0.3,0.2c0.1,0.1,0.2,0.1,0.3,0.2
				s0.2,0.1,0.3,0.2c0.1,0.1,0.2,0.1,0.3,0.2s0.2,0.1,0.3,0.2c0.1,0.1,0.2,0.1,0.3,0.2l0,0l-0.8,0.7c-0.4,0.3-0.2,0.9,0.2,0.9
				c0.1,0.1,0.2,0.1,0.3,0.2s0.2,0.1,0.3,0.2c0.1,0.1,0.2,0.1,0.3,0.2s0.2,0.1,0.3,0.2c0.1,0.1,0.2,0.1,0.3,0.2s0.2,0.1,0.3,0.2
				l0.1,0.1l-0.2,0.3c-0.2,0.4,0,0.7,0.3,0.8c0.1,0.1,0.2,0.1,0.3,0.2s0.2,0.1,0.3,0.2c0.1,0.1,0.2,0.1,0.3,0.2s0.2,0.1,0.3,0.2
				c0.1,0.1,0.2,0.1,0.3,0.2s0.2,0.1,0.3,0.2c0.1,0.1,0.2,0.1,0.3,0.2s0.2,0.1,0.3,0.2c0.1,0.1,0.2,0.1,0.3,0.2s0.2,0.1,0.3,0.2
				c0.1,0.1,0.2,0.1,0.3,0.2s0.2,0.1,0.3,0.2c0.1,0.1,0.2,0.1,0.3,0.2s0.2,0.1,0.3,0.2c0.1,0.1,0.2,0.1,0.3,0.2s0.2,0.1,0.3,0.2
				c0.1,0.1,0.2,0.1,0.3,0.2s0.2,0.1,0.3,0.2c0.1,0.1,0.2,0.1,0.3,0.2s0.2,0.1,0.3,0.2c0.1,0.1,0.2,0.1,0.3,0.2s0.2,0.1,0.3,0.2
				c0.1,0.1,0.2,0.1,0.3,0.2s0.2,0.1,0.3,0.2c0.1,0.1,0.2,0.1,0.3,0.2s0.2,0.1,0.3,0.2c0.1,0.1,0.2,0.1,0.3,0.2s0.2,0.1,0.3,0.2
				c0.1,0.1,0.2,0.1,0.3,0.2s0.2,0.1,0.3,0.2c0.1,0.1,0.2,0.1,0.3,0.2s0.2,0.1,0.3,0.2c0.1,0.1,0.2,0.1,0.3,0.2s0.2,0.1,0.3,0.2
				c0.1,0.1,0.2,0.1,0.3,0.2s0.2,0.1,0.3,0.2c0.1,0.1,0.2,0.1,0.3,0.2s0.2,0.1,0.3,0.2c0.1,0.1,0.2,0.1,0.3,0.2s0.2,0.1,0.3,0.2
				c0.1,0.1,0.2,0.1,0.3,0.2s0.2,0.1,0.3,0.2c0.1,0.1,0.2,0.1,0.3,0.2s0.2,0.1,0.3,0.2c0.1,0.1,0.2,0.1,0.3,0.2s0.2,0.1,0.3,0.2
				c0.1,0.1,0.2,0.1,0.3,0.2s0.2,0.1,0.3,0.2c0.1,0.1,0.2,0.1,0.3,0.2s0.2,0.1,0.3,0.2c0.1,0.1,0.2,0.1,0.3,0.2s0.2,0.1,0.3,0.2
				c0.1,0.1,0.2,0.1,0.3,0.2s0.2,0.1,0.3,0.2c0.1,0.1,0.2,0.1,0.3,0.2s0.2,0.1,0.3,0.2c0.1,0.1,0.2,0.1,0.3,0.2s0.2,0.1,0.3,0.2
				c0.1,0.1,0.2,0.1,0.3,0.2s0.2,0.1,0.3,0.2c0.1,0.1,0.2,0.1,0.3,0.2s0.2,0.1,0.3,0.2c0.1,0.1,0.2,0.1,0.3,0.2s0.2,0.1,0.3,0.2
				c0.1,0.1,0.2,0.1,0.3,0.2s0.2,0.1,0.3,0.2c0.1,0.1,0.2,0.1,0.3,0.2s0.2,0.1,0.3,0.2c0.1,0.1,0.2,0.1,0.3,0.2s0.2,0.1,0.3,0.2
				c0.1,0.1,0.2,0.1,0.3,0.2s0.2,0.1,0.3,0.2c0.1,0.1,0.2,0.1,0.3,0.2s0.2,0.1,0.3,0.2c0.1,0.1,0.2,0.1,0.3,0.2s0.2,0.1,0.3,0.2
				c0.1,0.1,0.2,0.1,0.3,0.2s0.2,0.1,0.3,0.2c0.1,0.1,0.2,0.1,0.3,0.2s0.2,0.1,0.3,0.2c0.1,0.1,0.2,0.1,0.3,0.2s0.2,0.1,0.3,0.2
				c0.1,0.1,0.2,0.1,0.3,0.2s0.2,0.1,0.3,0.2c0.1,0.1,0.2,0.1,0.3,0.2s0.2,0.1,0.3,0.2c0.1,0.1,0.2,0.1,0.3,0.2s0.2,0.1,0.3,0.2
				c0.1,0.1,0.2,0.1,0.3,0.2s0.2,0.1,0.3,0.2c0.1,0.1,0.2,0.1,0.3,0.2s0.2,0.1,0.3,0.2c0.1,0.1,0.2,0.1,0.3,0.2s0.2,0.1,0.3,0.2
				c0.1,0.1,0.2,0.1,0.3,0.2s0.2,0.1,0.3,0.2c0.1,0.1,0.2,0.1,0.3,0.2s0.2,0.1,0.3,0.2c0.1,0.1,0.2,0.1,0.3,0.2s0.2,0.1,0.3,0.2
				c0.1,0.1,0.2,0.2,0.4,0.2c0.1,0.1,0.2,0.1,0.3,0.2c0.1,0.1,0.2,0.1,0.3,0.2s0.2,0.1,0.3,0.2c0.1,0.1,0.2,0.1,0.3,0.2
				s0.2,0.1,0.3,0.2c0.1,0.1,0.2,0.1,0.3,0.2s0.2,0.1,0.3,0.2c0.3,0.3,0.8,0.3,1.1-0.1l0,0l0.1-0.1l0,0c0.1,0.1,0.2,0.1,0.3,0.2
				s0.2,0.1,0.3,0.2c0.1,0.1,0.2,0.1,0.3,0.2s0.2,0.1,0.3,0.2c0.1,0.1,0.2,0.1,0.3,0.2c0.3,0.3,1,0.3,1.2-0.3
				c0.1-0.3,0.3-0.4,0.5-0.5C333.2,388.1,333.2,388.2,333.3,388.2z"/>
			<g>
				<g>
					<polygon fill="#6B25F2" points="312.5,355.8 312.6,355.6 338.9,373.8 338.7,374 					"/>
				</g>
				<g>
					<polygon fill="#6B25F2" points="314.2,358.1 314.4,357.9 340.4,376 340.3,376.2 					"/>
				</g>
				<g>
					<polygon fill="#6B25F2" points="315.4,360.6 315.6,360.4 341.2,378.5 341.1,378.7 					"/>
				</g>
				<g>
					<polygon fill="#6B25F2" points="315.2,363.6 315.4,363.3 341.2,381.1 341,381.4 					"/>
				</g>
				<g>
					<polygon fill="#6B25F2" points="314.5,366.6 314.7,366.4 340.3,383.7 340.2,383.9 					"/>
				</g>
				<g>
					<polygon fill="#6B25F2" points="312.9,368.9 313.1,368.7 338.7,385.9 338.6,386.1 					"/>
				</g>
				<g>
					<polygon fill="#6B25F2" points="310.8,371 310.9,370.8 336.1,387.3 336,387.5 					"/>
				</g>
				<g>
					<polygon fill="#6B25F2" points="308,372.2 308.1,372 334.1,388.6 334,388.8 					"/>
				</g>
				<g>
					<polygon fill="#6B25F2" points="304.9,372.3 305,372.1 330.2,388 330.1,388.2 					"/>
				</g>
			</g>
			<path fill="#744DEF" d="M315.4,360.9l-1.3,0.5c-0.5,0.2-0.4,0.9,0.1,1l1.3,0.3c0.6,0.1,0.5,1-0.1,1.1l-1.3,0.1
				c-0.5,0.1-0.7,0.8-0.3,1l1.1,0.7c0.5,0.3,0.2,1.1-0.4,1l-1.3-0.3c-0.5-0.1-0.9,0.5-0.6,0.9l0.9,1c0.4,0.5-0.2,1.2-0.7,0.8
				l-1.1-0.7c-0.4-0.3-1,0.2-0.8,0.7l0.5,1.2c0.2,0.6-0.5,1.1-0.9,0.6l-0.9-1c-0.3-0.4-1-0.1-1,0.4l0.1,1.3c0,0.6-0.8,0.8-1.1,0.3
				l-0.5-1.2c-0.2-0.5-0.9-0.4-1,0.1l-0.3,1.3c-0.2,0.6-1,0.6-1.1-0.1l-0.1-1.3c0-0.5-0.7-0.7-1-0.2l-0.7,1.2
				c-0.3,0.5-1.2,0.2-1-0.4l0.3-1.3c0.1-0.5-0.5-0.9-0.9-0.5l-1,0.9c-0.5,0.4-1.2-0.1-0.8-0.7l0.7-1.2c0.3-0.5-0.2-1-0.7-0.8
				l-1.3,0.5c-0.6,0.3-1-0.5-0.6-0.9l1-0.9c0.4-0.4,0.1-1-0.4-1l-1.3,0.1c-0.6,0.1-0.8-0.8-0.2-1.1l1.3-0.5c0.5-0.2,0.4-0.9-0.1-1
				l-1.3-0.3c-0.6-0.1-0.5-1,0.1-1.1l1.3-0.1c0.5-0.1,0.7-0.8,0.3-1l-1.1-0.7c-0.5-0.3-0.2-1.1,0.4-1l1.3,0.3
				c0.5,0.1,0.9-0.5,0.6-0.9l-0.9-1c-0.4-0.5,0.2-1.2,0.7-0.8l1.1,0.7c0.4,0.3,1-0.2,0.8-0.7l-0.5-1.2c-0.2-0.6,0.5-1.1,0.9-0.6
				l0.9,1c0.3,0.4,1,0.1,1-0.4l-0.1-1.3c0-0.6,0.8-0.8,1.1-0.3l0.5,1.2c0.2,0.5,0.9,0.4,1-0.1l0.3-1.3c0.1-0.6,1-0.6,1.1,0.1
				l0.1,1.3c0,0.5,0.7,0.7,1,0.2l0.7-1.2c0.3-0.5,1.2-0.2,1,0.4l-0.3,1.3c-0.1,0.5,0.5,0.9,0.9,0.5l1-0.9c0.5-0.4,1.2,0.1,0.8,0.7
				l-0.7,1.2c-0.3,0.5,0.2,1,0.7,0.8l1.3-0.5c0.6-0.3,1,0.5,0.6,0.9l-1,0.9c-0.4,0.4-0.1,1,0.4,1l1.3-0.1
				C315.8,359.8,316,360.7,315.4,360.9z"/>
		</g>
	</g>
</g>
<g id="mito2">
	<g>
		<path fill="#2D98DA" d="M334,474c-0.1,0.6-0.1,0.1-0.2-0.7c0-1-0.1-0.8-0.2-0.9c-0.1-0.3-0.2-0.6-0.3-1c0-1.2-0.2-1.6-0.4-1.3
			c0-0.5-0.1-0.8-0.2-0.7c0-0.5-0.1-0.6-0.2-0.8c-0.1-0.1-0.1-0.7-0.3-0.7c-0.1,0.1-0.2-0.7-0.3-0.9c0-0.7-0.2-0.4-0.3-0.9
			c-0.1-0.4-0.2-0.3-0.3-0.9c-0.1,0-0.1-1.8-0.3-1c-0.2,0.6-0.2-0.4-0.3-0.8s-0.2-0.6-0.3-1.1c-0.1,0-0.3-0.1-0.3-0.8
			c-0.1,0.4-0.3,0.3-0.2-1c-0.2,0.3-0.2-0.6-0.3-0.8c-0.1-0.1-0.2-1.1-0.3-0.9c-0.1-0.2-0.2-1.1-0.3-1c-0.1-0.5-0.2-0.8-0.3-0.9
			c-0.1-0.3-0.2-0.7-0.3-1.1c-0.1-0.8-0.2-1-0.3-1.2c0-0.8-0.2-0.9-0.3-0.8c-0.2-0.5-0.4-1.3-0.6-1.8c-0.1-0.4-0.2-0.8-0.2-1.1
			c-0.1-0.3-0.2-0.5-0.3-0.6c-0.2,0.1-0.3-1-0.4-2c-0.2-0.3-0.3-1-0.5-0.8c-0.2,0.4-0.2-0.7-0.4-0.8c-0.1-0.4-0.1-1-0.2-1
			c-0.1-0.5-0.2-1.2-0.2-0.7c-0.1-0.5-0.2-1.9-0.3-1.6c-0.1-0.3-0.2-0.9-0.2-1.2c-0.1-0.2,0-1.7,0-1.6c0-0.4,0.1-1.3,0.1-1.2
			c-0.1,1.1,0.2-1.1,0.3-1.2c0.2-1.3,0.3-0.8,0.4-1.4c0.3-1.4,0.5-0.6,1-1.9c0.3,0.4,0.7-0.2,1.3-1.7c0.5-0.8,1-1.4,1.6-1.5
			c0.6-0.5,1.2-0.9,1.8-1.2c0.3-0.2,0.7-0.3,1-0.5c0.3-0.1,0.7,0,1.1-0.4c0,0.2,0,0,0,0c1-0.6,1.8-0.3,2.8-0.5
			c1-0.4,1.9-0.2,2.7,0.1c1-0.5,1.8,0.4,2.6,0.7c0.8,0.4,1.6,0.7,2.4,1.2c0.8,0,1.4,1.7,2.1,1.7c0.6,0.7,1.2,1.4,1.6,2.2
			c0.2,0.4,0.4,0.8,0.6,1.2c0.2,0.1,0.3,1.1,0.5,1.3c0-0.1,0,0.9,0.2,0.7c0.2,0.3,0.4,0.9,0.6,1.8c0.1,0.3,0.3,0.8,0.4,1.3
			c0.1,0.3,0.1,0.5,0.2,0.8c0.1,0.1,0.2,0.5,0.2,0.7c0.2,0.4,0.3,1.7,0.6,1.3c0.1,0.5,0.2,0.3,0.3,1c0.1,0.1,0.1,1.1,0.3,1.1
			c0.1,0.6,0.1,1.3,0.3,1c0.1,0.3,0.3-0.2,0.3,0.9c0,0.9,0.2,0.8,0.3,0.7c0.1,0.5,0.4-0.7,0.3,1.1c0,0.6,0.2-0.8,0.3-0.4
			c0,0.5,0.1,0.3,0.1,1.4c0.2-0.1,0,2.1,0.3,1c0,0.6,0,0.8,0,1.1c0,0.1,0,0.2,0.1,0c0.2-0.9,0.1,0.5,0.2-0.2c0.1-0.2,0.1,0.5,0.1,1
			c0,0.2,0,1.1,0.2,0c0.1,0.6,0.2,0.3,0.3,0.6c0.1-0.1,0.2,0.6,0.3,1.4c0.1,0.3,0.1,1.7,0.3,1.1c0.1,0.1,0.2,0.3,0.3,0.7
			c0,1.1,0.2,0.7,0.3,1c0.1-0.2,0.2,0.2,0.3,0.9c0.1,0.2,0.2,0.5,0.3,0.8c0.1,0.2,0.2,0.5,0.3,0.7c0.1,0.7,0.3,1.3,0.5,1.3
			c0.2-0.1,0.4-0.1,0.4,1.4c0.1,0.2,0.2,0.7,0.3,1c0.1,0.2,0.2,0.4,0.2,0.9c0.2-0.3,0.3,0,0.2,0.7c0,0.6,0,1.3,0.1,1.1
			c0.1,0.1,0.2,0,0.2,0.4c0.2-0.2,0.1,1.7,0.2,1.3c0,0.5,0.1,0.6,0,1.4c-0.1,1.1,0,0.3-0.1,1.4c-0.1,0.8-0.2,1-0.3,1.5
			c-0.1,0.2-0.3,1.2-0.4,1.2c-0.2,0.3-0.3,0.6-0.5,1.1s-0.5,1-0.7,1.2c-0.5,0.7-1.1,1.4-1.7,2.1c-1.3,1.2-2.9,2.2-4.8,2.8l0,0
			c-0.9,0.3-1.9,0.5-2.8,0.5c-0.9,0.1-1.8,0-2.7-0.1c-0.9-0.3-1.7-0.7-2.6-0.7c-0.4-0.5-0.8-0.8-1.2-1s-0.8-0.2-1.2-0.3
			c-0.4-0.3-0.7-0.4-1.1-0.6c-0.3-0.4-0.7-0.3-1-1.1c-0.3-0.2-0.6-0.3-0.9-0.9c-0.3-0.5-0.5-0.9-0.8-1.2c-0.2-0.4-0.4-0.8-0.6-1.2
			C334.2,475.6,334.2,473.7,334,474z"/>
	</g>
</g>
<g id="centr1">
	<g>
		<g>
			<path fill="#703BF2" d="M421.2,508.6c-0.1,0.1-0.1,0.2-0.1,0.3c-0.1,0.1-0.1,0.2-0.1,0.3c-0.1,0.1-0.1,0.2-0.1,0.3
				c-0.3,0.5,0.2,1.2,0.8,1l0,0c0.5-0.2,0.9,0.2,0.9,0.6c0,0.1,0,0.1-0.1,0.2s-0.1,0.2-0.1,0.3c-0.4,0.6,0.4,1.4,1,0.9l0,0
				c0.5-0.4,1.3,0.1,1.1,0.8c-0.2,0.7,0.8,1.2,1.2,0.6c0.4-0.5,1.3-0.3,1.3,0.4c0,0.8,1.1,0.9,1.4,0.2c0.2-0.6,1.1-0.6,1.3,0l0,0
				c0.3,0.7,1.3,0.6,1.3-0.1c0.1-0.1,0.1-0.2,0.1-0.3c0.1-0.1,0.1-0.2,0.1-0.3c0,0,0,0,0-0.1c0.3-0.2,0.7-0.2,1,0.1l0,0
				c0.4,0.5,1.2,0.2,1.2-0.3c0.1-0.1,0.1-0.2,0.1-0.3c0.1-0.1,0.1-0.2,0.1-0.3c0.1-0.1,0.1-0.2,0.1-0.3c0.1-0.1,0.1-0.2,0.1-0.3l0,0
				c0.2,0,0.4,0,0.6,0.1c0.5,0.3,1,0,1.1-0.5c0.1-0.1,0.1-0.2,0.1-0.3c0.1-0.1,0.1-0.2,0.1-0.3c0.1-0.1,0.1-0.2,0.1-0.3
				c0.1-0.1,0.1-0.2,0.1-0.3c0.1-0.1,0.1-0.2,0.1-0.3c0,0,0-0.1,0.1-0.1l0,0l0,0c0.5,0.1,0.8-0.2,0.9-0.6c0.1-0.1,0.1-0.2,0.1-0.3
				c0.1-0.1,0.1-0.2,0.1-0.3c0.1-0.1,0.1-0.2,0.1-0.3c0.1-0.1,0.1-0.2,0.1-0.3c0.1-0.1,0.1-0.2,0.1-0.3c0.1-0.1,0.1-0.2,0.1-0.3
				c0.1-0.1,0.1-0.2,0.1-0.3c0.1-0.1,0.1-0.2,0.1-0.3c0.1-0.1,0.1-0.2,0.1-0.3c0.1-0.1,0.1-0.2,0.1-0.3c0.1-0.1,0.1-0.2,0.1-0.3
				c0.1-0.1,0.1-0.2,0.1-0.3c0.1-0.1,0.1-0.2,0.1-0.3c0.1-0.1,0.1-0.2,0.1-0.3c0.1-0.1,0.1-0.2,0.1-0.3c0.1-0.1,0.1-0.2,0.1-0.3
				c0.1-0.1,0.1-0.2,0.1-0.3c0.1-0.1,0.1-0.2,0.1-0.3c0.1-0.1,0.1-0.2,0.1-0.3c0.1-0.1,0.1-0.2,0.1-0.3c0.1-0.1,0.1-0.2,0.1-0.3
				c0.1-0.1,0.1-0.2,0.1-0.3c0.1-0.1,0.1-0.2,0.1-0.3c0.1-0.1,0.1-0.2,0.1-0.3c0.1-0.1,0.1-0.2,0.1-0.3c0.1-0.1,0.1-0.2,0.1-0.3
				c0.1-0.1,0.1-0.2,0.1-0.3c0.1-0.1,0.1-0.2,0.1-0.3c0.1-0.1,0.1-0.2,0.1-0.3c0.1-0.1,0.1-0.2,0.1-0.3c0.1-0.1,0.1-0.2,0.1-0.3
				c0.1-0.1,0.1-0.2,0.1-0.3c0.1-0.1,0.1-0.2,0.1-0.3c0.1-0.1,0.1-0.2,0.1-0.3c0.1-0.1,0.1-0.2,0.1-0.3c0.1-0.1,0.1-0.2,0.1-0.3
				c0.1-0.1,0.1-0.2,0.1-0.3c0.1-0.1,0.1-0.2,0.1-0.3c0.1-0.1,0.1-0.2,0.1-0.3c0.1-0.1,0.1-0.2,0.1-0.3c0.1-0.1,0.1-0.2,0.1-0.3
				c0.1-0.1,0.1-0.2,0.1-0.3c0.1-0.1,0.1-0.2,0.1-0.3c0.1-0.1,0.1-0.2,0.1-0.3c0.1-0.1,0.1-0.2,0.1-0.3c0.1-0.1,0.1-0.2,0.1-0.3
				c0.1-0.1,0.1-0.2,0.1-0.3c0.1-0.1,0.1-0.2,0.1-0.3c0.1-0.1,0.1-0.2,0.1-0.3c0.1-0.1,0.1-0.2,0.1-0.3c0.1-0.1,0.1-0.2,0.1-0.3
				c0.1-0.1,0.1-0.2,0.1-0.3c0.1-0.1,0.1-0.2,0.1-0.3c0.1-0.1,0.1-0.2,0.1-0.3c0.1-0.1,0.1-0.2,0.1-0.3c0.1-0.1,0.1-0.2,0.1-0.3
				c0.1-0.1,0.1-0.2,0.1-0.3c0.1-0.1,0.1-0.2,0.1-0.3c0.1-0.1,0.1-0.2,0.1-0.3c0.1-0.1,0.1-0.2,0.1-0.3c0.1-0.1,0.1-0.2,0.1-0.3
				c0.1-0.1,0.1-0.2,0.1-0.3c0.1-0.1,0.1-0.2,0.1-0.3c0.1-0.1,0.1-0.2,0.1-0.3c0.1-0.1,0.1-0.2,0.1-0.3c0.1-0.1,0.1-0.2,0.1-0.3
				c0.1-0.1,0.1-0.2,0.1-0.3c0.1-0.1,0.1-0.2,0.1-0.3c0.1-0.1,0.1-0.2,0.1-0.3c0.1-0.1,0.1-0.2,0.1-0.3c0.1-0.1,0.1-0.2,0.1-0.3
				c0.1-0.1,0.1-0.2,0.1-0.3c0.1-0.1,0.1-0.2,0.1-0.3c0.1-0.1,0.1-0.2,0.1-0.3c0.1-0.1,0.1-0.2,0.1-0.3c0.1-0.1,0.1-0.2,0.1-0.3
				c0.1-0.1,0.1-0.2,0.1-0.3c0.1-0.1,0.1-0.2,0.1-0.3c0.1-0.1,0.1-0.2,0.1-0.3c0.1-0.1,0.1-0.2,0.1-0.3c0.1-0.1,0.1-0.2,0.1-0.3
				c0.1-0.1,0.1-0.2,0.1-0.3c0.1-0.1,0.1-0.2,0.1-0.3c0.1-0.1,0.1-0.2,0.1-0.3c0.1-0.1,0.1-0.2,0.1-0.3c0.1-0.1,0.1-0.2,0.1-0.3
				c0.1-0.1,0.1-0.2,0.1-0.3c0.1-0.1,0.1-0.2,0.1-0.3c0.1-0.1,0.1-0.2,0.1-0.3c0.1-0.1,0.1-0.2,0.1-0.3c0.1-0.1,0.1-0.2,0.1-0.3
				c0.1-0.1,0.1-0.2,0.1-0.3c0.1-0.1,0.1-0.2,0.1-0.3c0.1-0.1,0.1-0.2,0.1-0.3c0.1-0.1,0.1-0.2,0.1-0.3c0.1-0.1,0.1-0.2,0.1-0.3
				c0.1-0.1,0.1-0.2,0.1-0.3c0.1-0.1,0.1-0.2,0.1-0.3c0.1-0.1,0.1-0.2,0.1-0.3c0.1-0.1,0.1-0.2,0.1-0.3c0.1-0.2,0.1-0.4,0-0.6V479
				c0.1-0.1,0.1-0.2,0.1-0.3c0.1-0.1,0.1-0.2,0.1-0.3c0.1-0.1,0.1-0.2,0.1-0.3c0.1-0.1,0.1-0.2,0.1-0.3c0.1-0.1,0.1-0.2,0.1-0.3
				c0.1-0.1,0.1-0.2,0.1-0.3c0.1-0.1,0.1-0.2,0.1-0.3c0.2-0.3,0.1-0.7-0.3-0.9l-0.5-0.1v-0.1c0.1-0.1,0.1-0.2,0.1-0.3
				c0.1-0.1,0.1-0.2,0.1-0.3c0.1-0.1,0.1-0.2,0.1-0.3c0.1-0.1,0.1-0.2,0.1-0.3c0.1-0.1,0.1-0.2,0.1-0.3c0.1-0.1,0.1-0.2,0.1-0.3
				c0.3-0.3,0-0.9-0.5-0.9h-1.2c0,0,0,0,0-0.1c0.1-0.1,0.1-0.2,0.1-0.3c0.1-0.1,0.1-0.2,0.1-0.3c0.1-0.1,0.1-0.2,0.1-0.3
				c0.1-0.1,0.1-0.2,0.1-0.3c0.1-0.1,0.1-0.2,0.1-0.3c0.1-0.1,0.1-0.2,0.1-0.3c0.3-0.4-0.1-1-0.6-0.8l-1.3,0.4
				c-0.2,0.1-0.4,0-0.5-0.1l0,0l0,0c0.1-0.1,0.1-0.2,0.1-0.3l0,0c0.1-0.1,0.1-0.2,0.1-0.3l0,0c0.1-0.1,0.1-0.2,0.1-0.3l0,0
				c0.1-0.1,0.1-0.2,0.1-0.3l0,0c0.1-0.1,0.1-0.2,0.1-0.3l0,0c0.1-0.1,0.1-0.2,0.1-0.3l0,0c0.4-0.5-0.3-1.1-0.8-0.8l-1.1,0.8
				c-0.4,0.3-1-0.1-0.9-0.6l0.4-1.3c0.2-0.6-0.6-1-1-0.5l-0.8,1.1c-0.3,0.4-1,0.2-1-0.3V466c0-0.6-0.9-0.8-1.1-0.2l-0.1,0.2v0.1
				l-0.1,0.2v0.1l-0.1,0.2v0.1l-0.1,0.2v0.1l-0.1,0.2v0.1c-0.3,0.3-0.8,0.2-0.9-0.2l-0.5-1.3c-0.2-0.6-1.1-0.4-1.1,0.1
				c-0.1,0.1-0.1,0.2-0.1,0.3c-0.1,0.1-0.1,0.2-0.1,0.3c-0.1,0.1-0.1,0.2-0.1,0.3c-0.1,0.1-0.1,0.2-0.1,0.3
				c-0.1,0.1-0.1,0.2-0.1,0.3c-0.1,0.1-0.1,0.2-0.1,0.3c0,0,0,0,0,0.1c-0.1,0-0.2-0.1-0.3-0.2l-0.8-1.1c-0.3-0.4-1-0.2-1,0.3
				c-0.1,0.1-0.1,0.2-0.1,0.3c-0.1,0.1-0.1,0.2-0.1,0.3c-0.1,0.1-0.1,0.2-0.1,0.3c-0.1,0.1-0.1,0.2-0.1,0.3
				c-0.1,0.1-0.1,0.2-0.1,0.3c-0.1,0.1-0.1,0.2-0.1,0.3l0,0l-0.8-0.6c-0.4-0.3-0.9,0-0.9,0.4c-0.1,0.1-0.1,0.2-0.1,0.3
				c-0.1,0.1-0.1,0.2-0.1,0.3c-0.1,0.1-0.1,0.2-0.1,0.3c-0.1,0.1-0.1,0.2-0.1,0.3c-0.1,0.1-0.1,0.2-0.1,0.3
				c-0.1,0.1-0.1,0.2-0.1,0.3c0,0,0,0.1-0.1,0.1l-0.3-0.1c-0.4-0.1-0.7,0.2-0.7,0.5c-0.1,0.1-0.1,0.2-0.1,0.3
				c-0.1,0.1-0.1,0.2-0.1,0.3c-0.1,0.1-0.1,0.2-0.1,0.3c-0.1,0.1-0.1,0.2-0.1,0.3c-0.1,0.1-0.1,0.2-0.1,0.3
				c-0.1,0.1-0.1,0.2-0.1,0.3c-0.1,0.1-0.1,0.2-0.1,0.3c-0.1,0.1-0.1,0.2-0.1,0.3c-0.1,0.1-0.1,0.2-0.1,0.3
				c-0.1,0.1-0.1,0.2-0.1,0.3c-0.1,0.1-0.1,0.2-0.1,0.3c-0.1,0.1-0.1,0.2-0.1,0.3c-0.1,0.1-0.1,0.2-0.1,0.3
				c-0.1,0.1-0.1,0.2-0.1,0.3c-0.1,0.1-0.1,0.2-0.1,0.3c-0.1,0.1-0.1,0.2-0.1,0.3c-0.1,0.1-0.1,0.2-0.1,0.3
				c-0.1,0.1-0.1,0.2-0.1,0.3c-0.1,0.1-0.1,0.2-0.1,0.3c-0.1,0.1-0.1,0.2-0.1,0.3c-0.1,0.1-0.1,0.2-0.1,0.3
				c-0.1,0.1-0.1,0.2-0.1,0.3c-0.1,0.1-0.1,0.2-0.1,0.3c-0.1,0.1-0.1,0.2-0.1,0.3c-0.1,0.1-0.1,0.2-0.1,0.3
				c-0.1,0.1-0.1,0.2-0.1,0.3c-0.1,0.1-0.1,0.2-0.1,0.3c-0.1,0.1-0.1,0.2-0.1,0.3c-0.1,0.1-0.1,0.2-0.1,0.3
				c-0.1,0.1-0.1,0.2-0.1,0.3c-0.1,0.1-0.1,0.2-0.1,0.3c-0.1,0.1-0.1,0.2-0.1,0.3c-0.1,0.1-0.1,0.2-0.1,0.3
				c-0.1,0.1-0.1,0.2-0.1,0.3c-0.1,0.1-0.1,0.2-0.1,0.3c-0.1,0.1-0.1,0.2-0.1,0.3c-0.1,0.1-0.1,0.2-0.1,0.3
				c-0.1,0.1-0.1,0.2-0.1,0.3c-0.1,0.1-0.1,0.2-0.1,0.3c-0.1,0.1-0.1,0.2-0.1,0.3c-0.1,0.1-0.1,0.2-0.1,0.3
				c-0.1,0.1-0.1,0.2-0.1,0.3c-0.1,0.1-0.1,0.2-0.1,0.3c-0.1,0.1-0.1,0.2-0.1,0.3c-0.1,0.1-0.1,0.2-0.1,0.3
				c-0.1,0.1-0.1,0.2-0.1,0.3c-0.1,0.1-0.1,0.2-0.1,0.3c-0.1,0.1-0.1,0.2-0.1,0.3c-0.1,0.1-0.1,0.2-0.1,0.3
				c-0.1,0.1-0.1,0.2-0.1,0.3c-0.1,0.1-0.1,0.2-0.1,0.3c-0.1,0.1-0.1,0.2-0.1,0.3c-0.1,0.1-0.1,0.2-0.1,0.3
				c-0.1,0.1-0.1,0.2-0.1,0.3c-0.1,0.1-0.1,0.2-0.1,0.3c-0.1,0.1-0.1,0.2-0.1,0.3c-0.1,0.1-0.1,0.2-0.1,0.3
				c-0.1,0.1-0.1,0.2-0.1,0.3c-0.1,0.1-0.1,0.2-0.1,0.3c-0.1,0.1-0.1,0.2-0.1,0.3c-0.1,0.1-0.1,0.2-0.1,0.3
				c-0.1,0.1-0.1,0.2-0.1,0.3c-0.1,0.1-0.1,0.2-0.1,0.3c-0.1,0.1-0.1,0.2-0.1,0.3c-0.1,0.1-0.1,0.2-0.1,0.3
				c-0.1,0.1-0.1,0.2-0.1,0.3c-0.1,0.1-0.1,0.2-0.1,0.3c-0.1,0.1-0.1,0.2-0.1,0.3c-0.1,0.1-0.1,0.2-0.1,0.3
				c-0.1,0.1-0.1,0.2-0.1,0.3c-0.1,0.1-0.1,0.2-0.1,0.3c-0.1,0.1-0.1,0.2-0.1,0.3c-0.1,0.1-0.1,0.2-0.1,0.3
				c-0.1,0.1-0.1,0.2-0.1,0.3c-0.1,0.1-0.1,0.2-0.1,0.3c-0.1,0.1-0.1,0.2-0.1,0.3c-0.1,0.1-0.1,0.2-0.1,0.3
				c-0.1,0.1-0.1,0.2-0.1,0.3c-0.1,0.1-0.1,0.2-0.1,0.3c-0.1,0.1-0.1,0.2-0.1,0.3c-0.1,0.1-0.1,0.2-0.1,0.3
				c-0.1,0.1-0.1,0.2-0.1,0.3c-0.1,0.1-0.1,0.2-0.1,0.3c-0.1,0.1-0.1,0.2-0.1,0.3c-0.1,0.1-0.1,0.2-0.1,0.3
				c-0.1,0.1-0.1,0.2-0.1,0.3c-0.1,0.1-0.1,0.2-0.1,0.3c-0.1,0.1-0.1,0.2-0.1,0.3c-0.1,0.1-0.1,0.2-0.1,0.3
				c-0.1,0.1-0.1,0.2-0.1,0.3c-0.1,0.1-0.1,0.2-0.1,0.3c-0.1,0.1-0.1,0.2-0.1,0.3c-0.1,0.1-0.1,0.2-0.1,0.3
				c-0.1,0.1-0.1,0.2-0.1,0.3c-0.1,0.1-0.1,0.2-0.1,0.3c-0.1,0.1-0.1,0.2-0.1,0.3c-0.1,0.1-0.1,0.2-0.1,0.3
				c-0.1,0.1-0.1,0.2-0.1,0.3c-0.1,0.1-0.1,0.2-0.1,0.3c-0.1,0.1-0.1,0.2-0.1,0.3c-0.1,0.1-0.1,0.3-0.1,0.4s-0.1,0.2-0.1,0.3
				c-0.1,0.1-0.1,0.2-0.1,0.3c-0.1,0.1-0.1,0.2-0.1,0.3c-0.1,0.1-0.1,0.2-0.1,0.3c-0.1,0.1-0.1,0.2-0.1,0.3
				c-0.1,0.1-0.1,0.2-0.1,0.3c-0.1,0.1-0.1,0.2-0.1,0.3c-0.2,0.3-0.1,0.9,0.4,1l0,0c0.1,0,0.1,0,0.1,0.1l0,0
				c-0.1,0.1-0.1,0.2-0.1,0.3c-0.1,0.1-0.1,0.2-0.1,0.3c-0.1,0.1-0.1,0.2-0.1,0.3c-0.1,0.1-0.1,0.2-0.1,0.3
				c-0.1,0.1-0.1,0.2-0.1,0.3c-0.3,0.4,0,1.1,0.6,1.1c0.3,0,0.5,0.1,0.6,0.3C421.3,508.4,421.3,508.5,421.2,508.6z"/>
			<g>
				<g>
					<polygon fill="#6B25F2" points="447.5,480.4 447.7,480.5 436.6,510.4 436.3,510.3 					"/>
				</g>
				<g>
					<polygon fill="#6B25F2" points="445.6,482.6 445.9,482.7 434.9,512.4 434.6,512.3 					"/>
				</g>
				<g>
					<polygon fill="#6B25F2" points="443.6,484.4 443.8,484.5 432.6,513.8 432.4,513.7 					"/>
				</g>
				<g>
					<polygon fill="#6B25F2" points="440.6,484.9 440.9,485 430,514.5 429.8,514.4 					"/>
				</g>
				<g>
					<polygon fill="#6B25F2" points="437.6,485 437.8,485.1 427.3,514.3 427.1,514.2 					"/>
				</g>
				<g>
					<polygon fill="#6B25F2" points="434.9,484 435.1,484.1 424.8,513.3 424.6,513.2 					"/>
				</g>
				<g>
					<polygon fill="#6B25F2" points="432.4,482.5 432.6,482.6 422.9,511.1 422.6,511 					"/>
				</g>
				<g>
					<polygon fill="#6B25F2" points="430.5,480.1 430.7,480.1 421.1,509.5 420.8,509.4 					"/>
				</g>
				<g>
					<polygon fill="#6B25F2" points="429.6,477.1 429.8,477.2 420.7,505.5 420.4,505.4 					"/>
				</g>
			</g>
			<path fill="#744DEF" d="M443.2,484.5l-0.8-1.1c-0.3-0.4-1-0.2-1,0.3v1.3c0,0.6-0.9,0.8-1.1,0.2l-0.5-1.3c-0.2-0.5-0.9-0.5-1.1,0
				l-0.4,1.3c-0.2,0.6-1.1,0.5-1.1-0.2v-1.3c0-0.5-0.7-0.7-1-0.3l-0.8,1.1c-0.4,0.5-1.2,0.1-1-0.5l0.4-1.3c0.2-0.5-0.4-0.9-0.9-0.6
				l-1.1,0.8c-0.5,0.4-1.2-0.3-0.8-0.8l0.8-1.1c0.3-0.4-0.1-1-0.6-0.8l-1.3,0.4c-0.6,0.2-1-0.6-0.5-1l1.1-0.8c0.4-0.3,0.2-1-0.4-1
				h-1.4c-0.6,0-0.8-0.9-0.2-1.1l1.3-0.4c0.5-0.2,0.5-0.9,0-1l-1.3-0.4c-0.6-0.2-0.5-1.1,0.1-1.1h1.4c0.5,0,0.7-0.7,0.3-1l-1.1-0.8
				c-0.5-0.4-0.1-1.2,0.5-1l1.3,0.4c0.5,0.2,0.9-0.4,0.6-0.8l-0.8-1.1c-0.4-0.5,0.2-1.1,0.7-0.8l1.1,0.8c0.4,0.3,1-0.1,0.8-0.6
				l-0.5-1.3c-0.2-0.6,0.6-1,1-0.5l0.8,1.1c0.3,0.4,1,0.2,1-0.3v-1.3c0-0.6,0.9-0.8,1.1-0.2l0.5,1.3c0.2,0.5,0.9,0.5,1.1,0l0.4-1.3
				c0.2-0.6,1.1-0.5,1.1,0.2v1.3c0,0.5,0.7,0.7,1,0.3l0.8-1.1c0.4-0.5,1.2-0.1,1,0.5l-0.4,1.3c-0.2,0.5,0.4,0.9,0.9,0.6l1.1-0.8
				c0.5-0.4,1.2,0.3,0.8,0.8l-0.8,1.1c-0.3,0.4,0.1,1,0.6,0.8l1.3-0.4c0.6-0.2,1,0.6,0.5,1l-1.1,0.8c-0.4,0.3-0.2,1,0.4,1h1.4
				c0.6,0,0.8,0.9,0.2,1.1l-1.3,0.4c-0.5,0.2-0.5,0.9,0,1l1.3,0.4c0.6,0.2,0.5,1.1-0.1,1.1h-1.4c-0.5,0-0.7,0.7-0.3,1l1.1,0.8
				c0.5,0.4,0.1,1.2-0.5,1l-1.3-0.4c-0.5-0.2-0.9,0.4-0.6,0.8l0.8,1.1c0.4,0.5-0.2,1.1-0.7,0.8l-1.1-0.8c-0.4-0.3-1,0.1-0.8,0.6
				l0.5,1.3C444.4,484.6,443.6,485,443.2,484.5z"/>
		</g>
	</g>
</g>
<g id="mito1">
	<g>
		<path fill="#2D98DA" d="M473.8,427.5c-0.1,0.6-0.1,0.1-0.2-0.7c0-1-0.1-0.8-0.2-0.9c-0.1-0.3-0.2-0.6-0.3-1c0-1.2-0.2-1.6-0.4-1.3
			c0-0.5-0.1-0.8-0.2-0.7c0-0.5-0.1-0.6-0.2-0.8c-0.1-0.1-0.1-0.7-0.3-0.7c-0.1,0.1-0.2-0.7-0.3-0.9c0-0.7-0.2-0.4-0.3-0.9
			c-0.1-0.4-0.2-0.3-0.3-0.9c-0.1,0-0.1-1.8-0.3-1c-0.2,0.6-0.2-0.4-0.3-0.8c-0.1-0.4-0.2-0.6-0.3-1.1c-0.1,0-0.3-0.1-0.3-0.8
			c-0.1,0.4-0.3,0.3-0.2-1c-0.2,0.3-0.2-0.6-0.3-0.8c-0.1-0.1-0.2-1.1-0.3-0.9c-0.1-0.2-0.2-1.1-0.3-1c-0.1-0.5-0.2-0.8-0.3-0.9
			c-0.1-0.3-0.2-0.7-0.3-1.1c-0.1-0.8-0.2-1-0.3-1.2c0-0.8-0.2-0.9-0.3-0.8c-0.2-0.5-0.4-1.3-0.6-1.8c-0.1-0.4-0.2-0.8-0.2-1.1
			c-0.1-0.3-0.2-0.5-0.3-0.6c-0.2,0.1-0.3-1-0.4-2c-0.2-0.3-0.3-1-0.5-0.8c-0.2,0.4-0.2-0.7-0.4-0.8c-0.1-0.4-0.1-1-0.2-1
			c-0.1-0.5-0.2-1.2-0.2-0.7c-0.1-0.5-0.2-1.9-0.3-1.6c-0.1-0.3-0.2-0.9-0.2-1.2c-0.1-0.2,0-1.7,0-1.6c0-0.4,0.1-1.3,0.1-1.2
			c-0.1,1.1,0.2-1.1,0.3-1.2c0.2-1.3,0.3-0.8,0.4-1.4c0.3-1.4,0.5-0.6,1-1.9c0.3,0.4,0.7-0.2,1.3-1.7c0.5-0.8,1-1.4,1.6-1.5
			c0.6-0.5,1.2-0.9,1.8-1.2c0.3-0.2,0.7-0.3,1-0.5c0.3-0.1,0.7,0,1.1-0.4c0,0.2,0,0,0,0c1-0.6,1.8-0.3,2.8-0.5
			c1-0.4,1.9-0.2,2.7,0.1c1-0.5,1.8,0.4,2.6,0.7c0.8,0.4,1.6,0.7,2.4,1.2c0.8,0,1.4,1.7,2.1,1.7c0.6,0.7,1.2,1.4,1.6,2.2
			c0.2,0.4,0.4,0.8,0.6,1.2c0.2,0.1,0.3,1.1,0.5,1.3c0-0.1,0,0.9,0.2,0.7c0.2,0.3,0.4,0.9,0.6,1.8c0.1,0.3,0.3,0.8,0.4,1.3
			c0.1,0.3,0.1,0.5,0.2,0.8c0.1,0.1,0.2,0.5,0.2,0.7c0.2,0.4,0.3,1.7,0.6,1.3c0.1,0.5,0.2,0.3,0.3,1c0.1,0.1,0.1,1.1,0.3,1.1
			c0.1,0.6,0.1,1.3,0.3,1c0.1,0.3,0.3-0.2,0.3,0.9c0,0.9,0.2,0.8,0.3,0.7c0.1,0.5,0.4-0.7,0.3,1.1c0,0.6,0.2-0.8,0.3-0.4
			c0,0.5,0.1,0.3,0.1,1.4c0.2-0.1,0,2.1,0.3,1c0,0.6,0,0.8,0,1.1c0,0.1,0,0.2,0.1,0c0.2-0.9,0.1,0.5,0.2-0.2c0.1-0.2,0.1,0.5,0.1,1
			c0,0.2,0,1.1,0.2,0c0.1,0.6,0.2,0.3,0.3,0.6c0.1-0.1,0.2,0.6,0.3,1.4c0.1,0.3,0.1,1.7,0.3,1.1c0.1,0.1,0.2,0.3,0.3,0.7
			c0,1.1,0.2,0.7,0.3,1c0.1-0.2,0.2,0.2,0.3,0.9c0.1,0.2,0.2,0.5,0.3,0.8c0.1,0.2,0.2,0.5,0.3,0.7c0.1,0.7,0.3,1.3,0.5,1.3
			c0.2-0.1,0.4-0.1,0.4,1.4c0.1,0.2,0.2,0.7,0.3,1c0.1,0.2,0.2,0.4,0.2,0.9c0.2-0.3,0.3,0,0.2,0.7c0,0.6,0,1.3,0.1,1.1
			c0.1,0.1,0.2,0,0.2,0.4c0.2-0.2,0.1,1.7,0.2,1.3c0,0.5,0.1,0.6,0,1.4c-0.1,1.1,0,0.3-0.1,1.4c-0.1,0.8-0.2,1-0.3,1.5
			c-0.1,0.2-0.3,1.2-0.4,1.2c-0.2,0.3-0.3,0.6-0.5,1.1s-0.5,1-0.7,1.2c-0.5,0.7-1.1,1.4-1.7,2.1c-1.3,1.2-2.9,2.2-4.8,2.8l0,0
			c-0.9,0.3-1.9,0.5-2.8,0.5c-0.9,0.1-1.8,0-2.7-0.1c-0.9-0.3-1.7-0.7-2.6-0.7c-0.4-0.5-0.8-0.8-1.2-1c-0.4-0.2-0.8-0.2-1.2-0.3
			c-0.4-0.3-0.7-0.4-1.1-0.6c-0.3-0.4-0.7-0.3-1-1.1c-0.3-0.2-0.6-0.3-0.9-0.9c-0.3-0.5-0.5-0.9-0.8-1.2c-0.2-0.4-0.5-0.8-0.6-1.2
			C474.1,429.1,474,427.2,473.8,427.5z"/>
	</g>
</g>
<path id="r4" fill="#D279F7" d="M327.9,403.5c-0.5-0.2-1.1-0.2-1.6-0.1c-0.7,0.2-1.2,0.7-1.4,1.4c-0.4,1.1,0.1,2.5,1.2,3.1
	c0.4,0.2,0.8,0.3,1.3,0.3s1.1-0.2,1.6-0.5c0.8-0.6,1.3-1.6,1.1-2.6c-0.1-0.4-0.2-0.8-0.4-1C329.4,403.8,328.8,403.4,327.9,403.5z"/>
<path id="r3" fill="#D279F7" d="M364.1,361L364.1,361c-0.6-0.4-1.4-0.4-2.1,0s-1.1,1-1.2,1.7c-0.1,1,0.6,2,1.7,2.7
	c0.6,0.3,1.1,0.5,1.7,0.5h0.1c0.8,0,1.6-0.5,1.9-1.2c0.4-0.8,0.2-1.9-0.5-2.7C365.3,361.5,364.6,361.2,364.1,361z"/>
<path id="r2" fill="#D279F7" d="M406.1,471.4l-1.3-0.3v-0.2c-1-0.1-2.1,0.1-3,0.5l-0.3,0.1l-0.2,0.3c-0.4,0.6-0.5,1.3-0.3,2
	s0.6,1.3,1.2,1.7c0.5,0.3,1.1,0.4,1.6,0.5c0.2,0,0.4,0,0.6,0c0.7,0,1.2-0.1,1.7-0.3c1-0.4,1.6-1.3,1.6-2.3c0-0.6-0.2-1.2-0.6-1.5
	C406.8,471.6,406.3,471.5,406.1,471.4z"/>
<path id="r1" fill="#D279F7" d="M450.5,394.9L450.5,394.9c-0.8,0.3-1.4,0.8-1.9,1.1c-0.4,0.3-1,0.8-1.3,1.5
	c-0.4,0.9-0.2,2.1,0.7,2.6c0.4,0.3,0.9,0.3,1.2,0.3h0.1h2.4c0.2,0,0.7,0,1-0.4c0.4-0.4,0.5-0.9,0.5-1.2V397c0-0.3,0-0.8-0.2-1.2
	C452.6,395,451.7,394.7,450.5,394.9z"/>
<path id="dn1" fill="none" stroke="#6D138E" stroke-width="0.5" stroke-miterlimit="10" d="M401.86,376.251
	c0.417,2.084-7.922-12.762-6.575-11.118c0.967,1.18,2.134,2.182,3.35,3.104c4.736,3.591,10.323,6.051,16.169,7.12
	c1.265,0.231,2.886,0.232,3.465-0.916c0.111-0.22,0.168-0.483,0.081-0.713c-0.16-0.425-0.697-0.545-1.151-0.576
	c-2.509-0.174-5.001,0.402-7.473,0.865c-2.472,0.463-5.044,0.812-7.482,0.195c-2.438-0.617-4.731-2.412-5.236-4.876
	c-0.05-0.246-0.081-0.51,0.018-0.74c0.258-0.599,1.112-0.552,1.747-0.404c1.837,0.429,3.674,0.857,5.512,1.286
	c2.715,0.633,5.477,1.285,7.882,2.693c2.015,1.18,3.792,2.892,6.065,3.425c1.245,0.292-16.322,0.746-15.047,0.654
	c0.64-0.046,1.507-2.298,1.563-2.938c-6.357-2.951,6.056-4.42-0.745-6.114c-2.164-0.539-4.456-0.992-6.173-2.417
	c-1.469-1.219-2.331-3.005-3.08-4.761c-1.333-3.123,9.499,10.829,7.314,8.229c-0.644-0.766-3.501,2.368-3.63,1.375
	c-0.209-1.616,0.015-0.43,1.188-1.563c1.654-1.598-0.39,1.473,0.326-0.714c-2.064,0.473-4.258-4.517-4.887-2.495
	c-0.39,1.254-3.394-4.119-3.252-2.813c0.581,5.345,7.179,3.535,3.313,7.271c-0.352,0.341,1.218,0.459,1.125,0.94
	c-0.191,0.982-3.39-4.396-2.5-3.94c4.562,2.336,0.747,4.796,4.049,8.716c0.73,0.866,1.475,1.739,2.405,2.386
	c1.034,0.72,2.252,1.128,3.472,1.445c2.118,0.55,4.301,0.849,6.489,0.89c0.532,0.01,1.092-0.002,1.554-0.266
	c0.45-0.256-8.271-6.865-7.907-7.234c1.081-1.095,4.926,2.841,6.438,3.125s-9.524-7.504-8.183-6.75"/>
<path fill="none" stroke="#6D138E" stroke-width="0.5" stroke-miterlimit="10" d="M431.954,338.438
	c-0.824-0.419-1.649-0.839-2.473-1.258c-1.327-0.675-2.659-1.352-4.067-1.834c-3.262-1.117-6.782-1.145-10.23-1.161
	c-0.915-0.004-1.86-0.003-2.702,0.358c-1.135,0.486-1.91,1.552-2.501,2.635c-1.865,3.415-2.443,7.513-1.597,11.311
	c1.31,5.877,5.732,10.549,7.958,16.143c0.228,0.574,0.388,1.338-0.098,1.72c-0.25,0.196-0.592,0.213-0.91,0.221
	c-1.057,0.028-2.113,0.055-3.17,0.083c7.241-1.119,14.497-2.242,21.589-4.085c1.141-0.297,2.385-0.689,3.002-1.694
	c0.462-0.752,0.467-1.695,0.359-2.57c-0.368-2.975-1.93-5.784-4.261-7.668c-0.426-0.344-0.891-0.675-1.146-1.16
	c-0.206-0.391-0.254-0.844-0.271-1.285c-0.081-2.068,0.449-4.156,1.505-5.936c-7.676,0.445-15.372,0.542-23.057,0.29
	c-0.176-0.006-0.368-0.018-0.5-0.134c-0.199-0.175-0.167-0.489-0.117-0.75c0.609-3.133,1.465-6.217,2.555-9.216
	c-4.166,6.752-8.421,13.737-9.656,21.575c-0.163,1.034-0.211,2.25,0.564,2.954c0.379,0.344,0.891,0.496,1.389,0.615
	c2.866,0.683,5.85,0.615,8.796,0.57c5.116-0.077,10.233-0.069,15.349,0.025c0.804,0.015,1.683,0.059,2.283,0.596
	c0.381,0.341,0.587,0.83,0.782,1.302c0.365,0.886,0.731,1.773,1.096,2.659c0.29,0.704,0.596,1.431,1.148,1.956
	s1.423,0.795,2.093,0.431c0.384-0.209,0.644-0.586,0.86-0.966c0.948-1.662,1.337-3.637,1.091-5.535"/>
</svg>
