<?xml version="1.0" encoding="utf-8"?>
<!-- Generator: Adobe Illustrator 22.1.0, SVG Export Plug-In . SVG Version: 6.00 Build 0)  -->
<svg version="1.1" id="fundo-03" xmlns="http://www.w3.org/2000/svg" xmlns:xlink="http://www.w3.org/1999/xlink" x="0px" y="0px"
	 viewBox="0 0 350.9 271.4" style="enable-background:new 0 0 350.9 271.4;" xml:space="preserve">
<style type="text/css">
	.st0{fill:#22A6B3;}
	.st1{fill:#0F5659;}
	.st2{fill:#6FD1A0;}
</style>
<g>
	<path class="st0" d="M235.7,213.2c-0.7-1.8-1.5-3.3-2.2-5.5c-4.1-10.3-8.5-20.6-10.3-31.3c-0.7-5.5-1.1-11.4-1.1-16.9
		c13.3-6.6,26.1-13.3,39-21.4c0.4,0.7,0.4,1.8,1.1,2.2c0.7,1.1,1.5,2.2,1.8,2.6c0.7,0.7,1.5,1.8,1.5,2.2c0.7,1.5,0.4,3.7-1.1,5.9
		c-1.1,1.5-2.2,2.6-3.3,4.4c-0.7,0.7-1.5,1.8-2.2,2.2c-9.6,12.2-10.7,30.2-2.2,43.8l5.9-3.3c-6.6-11-5.9-25.8,2.2-36.1
		c0.7-0.7,1.1-1.5,1.8-2.2c1.5-1.8,2.6-3.3,4.1-5.5c2.2-4.1,2.6-8.1,1.5-11.4c-0.7-1.5-1.8-2.6-2.2-3.7c-0.4-0.7-1.1-1.5-1.5-1.8
		c-0.4-0.7-0.4-1.5-0.4-1.8c0,0,0,0-0.4,0.4l-0.7-1.5c6.6-4.4,12.9-9.2,19.1-14l0,0l0,0c3.3,2.9,7,5.9,11,8.5
		c1.5,1.1,2.9,2.2,4.8,2.9c10.3,7,20.6,11,30.2,12.2l1.1-6.6c-8.8-1.5-18-5.2-27.6-11.4c-5.2-3.3-9.9-7-14.4-11
		c2.2-2.6,4.1-6.3,5.5-9.2c5.5-1.5,11.4,0,16.2,2.9c0.7,0.4,1.5,1.1,2.2,1.8c2.9,2.2,6.3,4.8,10.7,4.8c2.2,0,4.1-0.7,5.9-1.5
		l9.6-3.3l-2.2-6.3l-9.6,3.3c-1.5,0.4-2.6,1.1-3.7,1.1c-2.2,0-4.4-1.8-6.6-3.3c-0.7-0.7-1.8-1.5-2.2-1.8c-5.5-3.7-11.8-5.5-18.4-4.8
		c0.4-2.6,0.4-5.9,0-8.5c2.2-4.4,5.2-8.5,8.8-11.4c4.8-4.4,10.7-6.6,15.8-5.5c2.2,0.4,3.7,1.5,5.9,2.2c3.7,1.8,8.1,3.3,12.9,2.2
		c1.8-0.4,3.3-1.1,4.8-1.8c1.5-0.7,2.6-1.5,4.1-1.5l-0.7-6.6c-2.2,0.4-4.4,1.1-6.3,2.2c-1.5,0.7-2.2,1.1-3.3,1.5
		c-2.6,0.7-5.9-0.7-8.8-2.2c-2.2-1.1-4.4-2.2-7-2.2c-7-1.5-15.1,1.1-21.4,7c-2.6,2.2-4.8,5.2-7,7.7c0-0.4,0-0.4-0.4-0.7
		c-2.2-5.9-6.6-11-11.4-14.4c4.1-4.4,8.1-9.2,10.7-15.1c1.1-2.2,1.8-4.1,2.2-5.9c1.5-3.7,2.6-7.4,4.8-10.3c1.5-1.8,3.3-2.9,5.5-4.4
		c3.3-2.2,7-4.8,8.8-8.8l-6.3-2.6c-1.5,2.6-3.7,4.4-7,6.6c-2.2,1.8-4.8,3.3-6.6,5.5c-2.9,3.7-4.8,8.1-6.3,12.2
		c-0.7,2.2-1.5,3.7-2.2,5.5c-2.2,5.5-6.6,10.3-10.7,14.4c-5.5-2.2-11.4-2.9-17.7-2.2c-0.4,0-0.7,0-1.1,0.4c-1.1-2.2-2.6-4.4-5.2-6.3
		c-1.5-1.1-2.9-2.2-4.4-2.9c-2.2-1.5-3.7-2.2-5.2-3.7c-4.4-4.4-5.9-11.4-6.3-16.2c-0.4-3.7,0-7,0-11.4c0-2.6,0.4-5.9,0-8.8
		c-0.4-7-2.6-11.4-7-12.5l-2.2,6.3c1.5,0.7,2.2,2.9,2.2,6.6c0,2.6,0,5.5,0,8.1c0,3.7-0.4,7.7,0,11.8c0.7,8.5,3.3,15.8,8.1,20.6
		c2.2,2.2,4.1,3.3,6.3,4.8c1.5,1.1,2.6,1.8,3.7,2.6c0.7,0.7,1.5,1.5,2.2,2.2c-12.2,2.2-25.8,4.8-40.5,8.8v0.7
		c-1.1-8.1-2.6-16.2-5.2-24.3c-1.5-5.2-3.3-10.3-8.1-13.3c-2.2-1.5-4.1-1.8-6.3-2.2c-0.7,0-1.1-0.4-1.8-0.4
		c-5.9-1.8-11-5.5-15.8-9.2c-1.8-1.1-3.3-2.2-4.1-3.7c-0.7-1.1-1.1-2.2-0.4-2.9l-5.9-2.9c-1.8,2.9-1.5,7,0.7,9.9
		c1.8,2.2,3.7,4.1,5.9,5.5c5.2,3.7,11,7.7,17.3,10.3c0.7,0.4,1.5,0.4,1.8,0.7c1.8,0.4,2.9,1.1,4.4,1.8c2.6,1.8,4.1,5.5,5.5,9.6
		c2.2,7,3.7,14.7,4.8,22.1c-0.7,1.1-1.1,2.2-1.1,3.3c-10.7,2.9-21.4,7-32.8,11.4l-5.2-9.6c-3.3-6.6-7.4-14.4-14.7-18.8
		c-2.9-2.2-6.6-2.9-9.9-4.4l-12.5-4.4c-2.6-1.1-5.2-1.8-7-3.3c-1.5-1.1-2.2-2.9-1.8-4.8l-6.3-2.2c-1.8,4.4,0.7,9.2,3.7,11.8
		c2.6,2.2,6.6,3.7,9.2,4.8l12.5,4.4c2.9,1.1,6.3,2.2,8.5,3.7c5.9,3.7,9.2,10.3,12.5,16.2l4.8,9.2c-11.8,4.8-23.9,10.7-36.5,16.9
		c-0.7-1.1-1.1-2.6-1.8-4.4c-0.7-2.9-1.8-6.6-4.4-8.8c-1.8-1.5-3.7-2.2-5.5-2.6l-16.9-5.5c-2.9-1.1-6.3-2.2-8.5-3.7
		c-2.2-2.2-3.7-4.8-5.2-8.5c-1.5-2.9-2.2-6.6-3.3-9.9l-6.6,2.2c1.1,3.3,2.2,7,3.7,10.3c1.8,4.1,3.7,8.1,7,11c2.9,2.6,7,4.1,10.7,5.2
		l16.9,5.5c1.1,0.4,2.2,0.7,2.9,1.5c1.5,1.1,1.8,2.9,2.2,5.5c0.4,2.2,1.1,4.1,2.2,6.3c-11.4,6.3-22.5,12.9-33.9,20.6
		c-1.1-1.8-1.5-3.7-1.8-4.8c-0.7-2.9-1.1-6.6-1.5-9.9c0-1.1,0-2.6-0.7-4.1c-0.7-1.1-1.5-2.2-2.2-2.6c-3.3-3.3-7.7-6.3-12.5-7.4
		c-0.7-0.4-1.1-0.4-1.8-0.7c-1.1-0.4-2.2-0.7-2.9-1.1c-2.9-1.5-5.9-4.4-7.4-8.5c-1.8-4.1-2.2-8.5-2.9-12.9L46,81.7
		c0.7,4.8,1.5,9.6,3.3,14.4c2.2,5.5,6.3,9.9,10.7,11.8c1.5,0.7,2.6,1.1,4.1,1.5c0.7,0,1.1,0.4,1.8,0.7c3.7,1.5,7,3.3,10.3,6.3
		c0.4,0.4,0.7,0.7,0.7,0.7c0,0.4,0,1.1,0,1.5c0,3.7,0.7,7.4,1.5,11c0.7,2.6,1.5,4.8,2.6,7c-7,4.8-13.6,9.6-20.6,15.1
		c-2.2-1.1-4.1-3.3-6.3-6.3c-2.6-3.7-6.6-8.8-12.2-9.9c-2.2-0.4-5.2,0-7,0c-0.7,0-1.5,0.4-2.2,0.4c-7.7,0.7-16.2-2.6-23.2-5.9
		L7,136.2c7.4,3.3,16.9,7.4,26.5,6.6c0.7,0,1.5-0.4,2.2-0.4c1.8-0.4,3.3-0.4,4.8-0.4c2.9,0.7,5.5,3.3,8.1,7.4
		c1.8,2.2,3.7,4.8,6.3,6.6c-5.2,5.5-7.7,12.2-8.1,19.5c-5.2,0-10.3,1.8-14.4,5.2c-5.5,4.4-8.1,10.7-11,16.2
		c-0.4,0.7-0.7,1.8-1.1,2.2c-2.2,4.8-3.7,9.2-6.6,12.9c-2.6,3.3-7.4,7-12.5,6.3L0,225c7.7,1.5,15.1-3.3,18.8-8.5
		c3.3-4.4,5.5-9.6,7.4-14.7c0.4-0.7,0.7-1.8,1.1-2.2c2.2-5.2,7-10.7,11-13.6c2.9-2.2,9.2-3.7,12.5-3.7v-1.5c0,2.2-1.5,4.8-0.4,7
		c0,0.4-1.1,0.7-0.7,1.1c4.1,9.6,11.8,15.8,21.4,17.3l-3.7,4.8c-6.6,8.5-12.2,16.6-11.4,26.5c0,0.7,0,1.8,0,2.2
		c0,1.1,0.4,2.2,0.4,2.9c0,2.2-1.1,4.4-2.2,6.6l-4.1,10.3l6.3,2.2l4.1-10.3c1.1-2.2,2.2-5.5,2.2-8.5c0-1.5,0-2.6-0.4-4.1
		c0-0.7,0-1.5-0.4-2.2c-0.4-7.7,4.4-15.1,9.9-22.1l6.3-7.7c-0.7,0.7-1.8,0.7-2.2,0.4c-0.4,0-0.7-0.4-1.1-0.7c2.2,0,4.1,0,6.3-0.4
		c5.9-1.1,11.4-2.2,17.7-3.3c0,0.7,0,1.1,0,1.8c0,3.7-0.4,7.4,0.7,11.4c0,0.7,0.4,1.5,0.7,2.2c0.4,1.1,0.7,2.2,0.7,2.9
		c0.4,2.2-0.4,4.4-1.1,7c-0.7,2.2-1.1,4.4-1.1,6.6c-0.4,5.9,2.2,11,4.8,16.2c0.4,1.1,1.1,1.8,1.5,2.6c2.2,4.4,4.1,10.3,1.5,14.4
		l5.9,3.3c2.9-5.5,2.6-12.2-1.1-20.6c-0.4-1.1-1.1-1.8-1.5-2.6c-2.2-4.4-4.4-8.5-4.1-12.5c0-1.8,0.4-3.3,1.1-5.5
		c0.7-2.6,1.5-5.9,1.1-8.8c0-1.5-0.7-2.6-1.1-4.1c-0.4-0.7-0.4-1.5-0.4-1.8c-0.7-2.9-0.7-6.3-0.4-9.6c0-1.1,0-2.2,0-3.3
		c9.2-2.2,19.1-4.4,29.1-7l16.9,37.9c0.7,1.5,1.1,2.6,2.2,4.1c1.1,1.5,2.2,2.6,3.3,3.7l0.7,0.7c4.4,4.4,7.7,9.6,9.9,15.1l6.3-2.2
		c-2.2-6.6-6.3-12.5-11.4-17.7l-0.7-0.7c-1.1-1.1-1.8-1.8-2.2-2.6c-0.7-0.7-1.1-1.8-1.5-2.9L142.5,194c13.3-3.7,27.2-8.1,40.9-13.3
		c3.3,4.1,5.9,9.2,6.6,14.4c0.4,2.6,0.4,5.2,0.4,8.1c0,5.5,0,11.4,2.6,16.6c1.5,2.9,3.7,5.5,5.9,7.7l0,0c5.9,6.6,11.4,14.4,9.9,21.7
		l6.6,1.5c2.2-10.3-4.8-19.9-11.4-27.6l0,0c-1.8-2.2-3.7-4.1-4.8-6.3c-2.2-4.1-2.2-8.5-2.2-13.6c0-2.9,0-5.9-0.4-8.8
		c-0.7-5.9-2.9-11.4-6.6-15.8c7.7-2.9,16.2-6.6,23.9-9.9c0,4.8,0.4,9.9,1.1,15.1c1.8,11.4,6.3,22.5,10.7,33.1
		c0.7,1.8,1.5,3.3,2.2,5.2c2.2,5.5,4.1,11,3.7,16.2l6.6,0.4C240.4,225.7,238.2,219.5,235.7,213.2z"/>
	<path class="st1" d="M280.6,114.1c8.8-7,11.8-18.8,7-29.5c-4.4-10.7-15.1-16.2-26.1-15.1C213.6,76.2,141,96.1,65.5,155
		c-7.7,6.3-10.7,16.2-7,25.4c0,0.4,0.4,0.4,0.4,0.7c4.1,9.2,13.6,14.4,23.6,12.5C139.9,183.7,220.9,161.6,280.6,114.1z"/>
	<path class="st2" d="M262.5,76.6c-45.7,6.6-117.8,25.8-192.6,84c-12.5,9.6-3.7,29.8,11.8,26.9c52.7-9.2,134.8-30.6,194.8-78.4
		C290.9,97.2,280.9,74,262.5,76.6z"/>
	<ellipse transform="matrix(0.1408 -0.99 0.99 0.1408 112.7252 330.6559)" class="st0" cx="246.9" cy="100.4" rx="5.2" ry="5.2"/>
	<ellipse transform="matrix(0.1408 -0.99 0.99 0.1408 80.2073 306.915)" class="st0" cx="216.9" cy="107.2" rx="2.6" ry="2.6"/>
	<ellipse class="st0" cx="165" cy="131.1" rx="1.8" ry="1.8"/>
	<ellipse class="st0" cx="171.2" cy="138.1" rx="1.8" ry="1.8"/>
	<ellipse transform="matrix(0.1408 -0.99 0.99 0.1408 -68.1323 237.6598)" class="st0" cx="102.9" cy="158.1" rx="2.9" ry="2.9"/>
	<ellipse transform="matrix(0.1408 -0.99 0.99 0.1408 -89.6517 237.2821)" class="st0" cx="91.9" cy="170.3" rx="2.6" ry="2.6"/>
	<ellipse transform="matrix(0.1408 -0.99 0.99 0.1408 -76.6709 250.1844)" class="st0" cx="105.8" cy="169.3" rx="1.5" ry="1.5"/>
	<ellipse transform="matrix(0.1408 -0.99 0.99 0.1408 -59.9586 251.4073)" class="st0" cx="114.9" cy="160.2" rx="2.2" ry="2.2"/>
	<ellipse class="st0" cx="114.5" cy="147.3" rx="1.8" ry="1.8"/>
</g>
</svg>
